M48
;Layer_Color=9474304
;FILE_FORMAT=2:4
INCH,LZ
;TYPE=PLATED
T1F00S00C0.0080
T2F00S00C0.0118
;TYPE=NON_PLATED
T4F00S00C0.0350
%
T01
X000386Y000337
X000906
Y00111
X000386
Y00169
X000906
Y002411
X000386
X001677Y002909
X002358Y002904
X002928Y002799
X003345Y002819
X003625Y00283
X004077Y002896
X003909Y002411
Y00169
X0043Y00112
Y00034
X0049
X005488Y001541
X005648Y002527
X005631Y003415
X005138Y003451
X004469Y003371
X004356Y003654
X004218Y004505
X003444Y004561
X002715Y003743
X002107Y004233
X0012Y003672
X002648Y002411
Y00169
X005318Y004911
X006065Y004236
X00606Y003949
X006034Y003057
X005929Y002527
X006518Y002603
Y002121
Y001638
X00587Y001555
X007286Y001392
Y002848
X006906Y003429
T02
X003496Y003461
X003774Y00374
X003218
X003496Y004018
T04
X006873Y001286
Y002956
M30
