G04*
G04 #@! TF.GenerationSoftware,Altium Limited,Altium Designer,23.1.1 (15)*
G04*
G04 Layer_Physical_Order=4*
G04 Layer_Color=16776960*
%FSLAX24Y24*%
%MOIN*%
G70*
G04*
G04 #@! TF.SameCoordinates,9E248168-9D0A-4965-B1BF-A28D9D39D317*
G04*
G04*
G04 #@! TF.FilePolarity,Positive*
G04*
G01*
G75*
%ADD10C,0.0100*%
%ADD14C,0.0060*%
%ADD17C,0.0005*%
%ADD73C,0.0197*%
%ADD75C,0.0080*%
%ADD76O,0.0320X0.0770*%
%ADD77O,0.0770X0.0320*%
%ADD78C,0.0180*%
%ADD80R,0.0354X0.0433*%
D10*
X3800Y1110D02*
Y1581D01*
X2800Y1110D02*
X2896Y1206D01*
X3800Y1581D02*
X3909Y1690D01*
X2896Y1859D02*
X3155Y2118D01*
X2896Y1206D02*
Y1859D01*
X3155Y2118D02*
Y2629D01*
X3345Y2819D01*
X4083Y4508D02*
X4215D01*
X3798Y4793D02*
X4083Y4508D01*
X4215D02*
X4218Y4505D01*
X3798Y9257D02*
X3856Y9316D01*
X3798Y8991D02*
Y9257D01*
X3856Y9316D02*
X4440D01*
X4587Y9169D01*
X3798Y4793D02*
Y8991D01*
X11354Y-4093D02*
Y-4493D01*
X11554D01*
X11621Y-4427D01*
Y-4360D01*
X11554Y-4293D01*
X11354D01*
X11554D01*
X11621Y-4227D01*
Y-4160D01*
X11554Y-4093D01*
X11354D01*
X11821Y-4493D02*
X11954D01*
X12021Y-4427D01*
Y-4293D01*
X11954Y-4227D01*
X11821D01*
X11754Y-4293D01*
Y-4427D01*
X11821Y-4493D01*
X12220Y-4160D02*
Y-4227D01*
X12154D01*
X12287D01*
X12220D01*
Y-4427D01*
X12287Y-4493D01*
X12554Y-4160D02*
Y-4227D01*
X12487D01*
X12620D01*
X12554D01*
Y-4427D01*
X12620Y-4493D01*
X12887D02*
X13020D01*
X13087Y-4427D01*
Y-4293D01*
X13020Y-4227D01*
X12887D01*
X12820Y-4293D01*
Y-4427D01*
X12887Y-4493D01*
X13220D02*
Y-4227D01*
X13287D01*
X13353Y-4293D01*
Y-4493D01*
Y-4293D01*
X13420Y-4227D01*
X13487Y-4293D01*
Y-4493D01*
X14020Y-4093D02*
Y-4493D01*
X14286D01*
X14486Y-4227D02*
X14620D01*
X14686Y-4293D01*
Y-4493D01*
X14486D01*
X14420Y-4427D01*
X14486Y-4360D01*
X14686D01*
X14820Y-4227D02*
Y-4427D01*
X14886Y-4493D01*
X15086D01*
Y-4560D01*
X15020Y-4627D01*
X14953D01*
X15086Y-4493D02*
Y-4227D01*
X15419Y-4493D02*
X15286D01*
X15220Y-4427D01*
Y-4293D01*
X15286Y-4227D01*
X15419D01*
X15486Y-4293D01*
Y-4360D01*
X15220D01*
X15619Y-4227D02*
Y-4493D01*
Y-4360D01*
X15686Y-4293D01*
X15753Y-4227D01*
X15819D01*
X11354Y-16380D02*
Y-16780D01*
X11554D01*
X11621Y-16713D01*
Y-16646D01*
X11554Y-16580D01*
X11354D01*
X11554D01*
X11621Y-16513D01*
Y-16446D01*
X11554Y-16380D01*
X11354D01*
X11821Y-16780D02*
X11954D01*
X12021Y-16713D01*
Y-16580D01*
X11954Y-16513D01*
X11821D01*
X11754Y-16580D01*
Y-16713D01*
X11821Y-16780D01*
X12220Y-16513D02*
X12354D01*
X12420Y-16580D01*
Y-16780D01*
X12220D01*
X12154Y-16713D01*
X12220Y-16646D01*
X12420D01*
X12554Y-16513D02*
Y-16780D01*
Y-16646D01*
X12620Y-16580D01*
X12687Y-16513D01*
X12754D01*
X13220Y-16380D02*
Y-16780D01*
X13020D01*
X12954Y-16713D01*
Y-16580D01*
X13020Y-16513D01*
X13220D01*
X13953Y-16380D02*
X13820D01*
X13753Y-16446D01*
Y-16713D01*
X13820Y-16780D01*
X13953D01*
X14020Y-16713D01*
Y-16446D01*
X13953Y-16380D01*
X14153Y-16513D02*
Y-16713D01*
X14220Y-16780D01*
X14420D01*
Y-16513D01*
X14620Y-16446D02*
Y-16513D01*
X14553D01*
X14686D01*
X14620D01*
Y-16713D01*
X14686Y-16780D01*
X14886D02*
X15020D01*
X14953D01*
Y-16380D01*
X14886D01*
X15220Y-16780D02*
X15353D01*
X15286D01*
Y-16513D01*
X15220D01*
X15553Y-16780D02*
Y-16513D01*
X15753D01*
X15819Y-16580D01*
Y-16780D01*
X16153D02*
X16019D01*
X15953Y-16713D01*
Y-16580D01*
X16019Y-16513D01*
X16153D01*
X16219Y-16580D01*
Y-16646D01*
X15953D01*
D14*
X3033Y2991D02*
X3234Y3191D01*
X2928Y2799D02*
Y2832D01*
X3033Y2937D01*
Y2991D01*
X3234Y3191D02*
X4582D01*
X1677Y3326D02*
X2712Y4361D01*
X1677Y2909D02*
Y3326D01*
X2715Y3557D02*
Y3743D01*
X3608Y4729D02*
X4239Y4097D01*
X4562D01*
X4871Y3788D01*
Y3304D02*
X5648Y2527D01*
X4871Y3304D02*
Y3788D01*
X3649Y4361D02*
X4356Y3654D01*
X6224Y2359D02*
Y2867D01*
X6034Y3057D02*
X6224Y2867D01*
X5636Y2137D02*
X6002D01*
X4582Y3191D02*
X5636Y2137D01*
X5631Y3415D02*
Y3706D01*
X4569Y4769D02*
X5631Y3706D01*
X4117Y4769D02*
X4569D01*
X2074Y1009D02*
X2451Y632D01*
X2074Y2915D02*
X2715Y3557D01*
X2074Y1009D02*
Y2915D01*
X2712Y4361D02*
X3649D01*
X4800Y951D02*
Y1110D01*
X2451Y632D02*
X4481D01*
X4800Y951D01*
X5815Y3740D02*
X5975Y3900D01*
X6027Y3949D02*
X6060D01*
X5975Y3900D02*
X5978D01*
X6027Y3949D01*
X4077Y2896D02*
X4529D01*
X3998Y4888D02*
X4117Y4769D01*
X3998Y4888D02*
Y5400D01*
X5815Y2641D02*
Y3740D01*
X3998Y5400D02*
Y8450D01*
Y8946D01*
X4056Y9005D02*
X4409D01*
X3998Y8946D02*
X4056Y9005D01*
X4529Y2896D02*
X5870Y1555D01*
X5815Y2641D02*
X5929Y2527D01*
X6002Y2137D02*
X6224Y2359D01*
X4466Y8945D02*
X4570Y8840D01*
X3178Y9351D02*
X3561D01*
X3608Y4729D02*
Y8752D01*
X4466Y8945D02*
Y8949D01*
X4409Y9005D02*
X4466Y8949D01*
X3561Y9351D02*
X3608Y9305D01*
X2991Y9164D02*
X3178Y9351D01*
X3608Y8752D02*
Y9305D01*
X4570Y8813D02*
Y8840D01*
D17*
X0Y3830D02*
G03*
X1114Y4257I100J1406D01*
G01*
X6486D02*
G03*
X7600Y3830I1014J979D01*
G01*
X3450Y8300D02*
G03*
X3300Y8450I-150J0D01*
G01*
X4150Y5550D02*
G03*
X4300Y5400I150J0D01*
G01*
Y8450D02*
G03*
X4150Y8300I0J-150D01*
G01*
X3300Y5400D02*
G03*
X3450Y5550I0J150D01*
G01*
X0Y0D02*
Y3830D01*
X7600Y0D02*
Y1725D01*
Y2515D01*
Y3830D01*
X0Y0D02*
X7600D01*
X2650Y8450D02*
Y9830D01*
X4300Y5400D02*
X5382D01*
X2650Y8450D02*
X3300D01*
X2650Y9830D02*
X4950D01*
Y8450D02*
Y9830D01*
X3450Y5550D02*
Y8300D01*
X4300Y8450D02*
X4950D01*
X5382Y5400D02*
X6486Y4257D01*
X1114D02*
X2218Y5400D01*
X4150Y5550D02*
Y8300D01*
X2218Y5400D02*
X3300D01*
D73*
X3496Y3461D02*
D03*
X3774Y3740D02*
D03*
X3218D02*
D03*
X3496Y4018D02*
D03*
D75*
X3836Y2601D02*
X4384D01*
X5086Y1644D02*
Y1899D01*
X4384Y2601D02*
X5086Y1899D01*
X3630Y2806D02*
X3836Y2601D01*
X4282Y1138D02*
X4300Y1120D01*
X4432Y1550D02*
X4920D01*
X4282Y1138D02*
Y1400D01*
X4432Y1550D01*
X5086Y1644D02*
X5500Y1230D01*
X6110D01*
X4900Y340D02*
X4923D01*
X5172Y589D01*
Y1298D01*
X4920Y1550D02*
X5172Y1298D01*
X4300Y1120D02*
Y1149D01*
X3300Y1110D02*
Y1692D01*
X3531Y1923D02*
Y2704D01*
X3300Y1692D02*
X3531Y1923D01*
X3625Y2798D02*
Y2830D01*
X3531Y2704D02*
X3625Y2798D01*
X6518Y2603D02*
X6865Y2256D01*
Y1986D02*
Y2256D01*
X6518Y1638D02*
X6865Y1986D01*
X6110Y1230D02*
X6518Y1638D01*
D76*
X4270Y2050D02*
D03*
D77*
X659Y2770D02*
D03*
D78*
X2928Y2799D02*
D03*
X2107Y4233D02*
D03*
X1200Y3672D02*
D03*
X1677Y2909D02*
D03*
X2358Y2904D02*
D03*
X2715Y3743D02*
D03*
X3444Y4561D02*
D03*
X4356Y3654D02*
D03*
X5488Y1541D02*
D03*
X5929Y2527D02*
D03*
X5870Y1555D02*
D03*
X4300Y1120D02*
D03*
Y340D02*
D03*
X3345Y2819D02*
D03*
X2648Y1690D02*
D03*
Y2411D02*
D03*
X3909Y1690D02*
D03*
X3625Y2830D02*
D03*
X4077Y2896D02*
D03*
X4218Y4505D02*
D03*
X6060Y3949D02*
D03*
X6065Y4236D02*
D03*
X6906Y3429D02*
D03*
X5138Y3451D02*
D03*
X4469Y3371D02*
D03*
X6034Y3057D02*
D03*
X5631Y3415D02*
D03*
X906Y2411D02*
D03*
X2991Y9164D02*
D03*
X386Y337D02*
D03*
X906D02*
D03*
X6518Y2121D02*
D03*
X906Y1110D02*
D03*
X6518Y1638D02*
D03*
X3909Y2411D02*
D03*
X386D02*
D03*
Y1690D02*
D03*
X5648Y2527D02*
D03*
X906Y1690D02*
D03*
X7286Y2848D02*
D03*
X4570Y8813D02*
D03*
X6518Y2603D02*
D03*
X5318Y4911D02*
D03*
X7286Y1392D02*
D03*
X386Y1110D02*
D03*
X4900Y340D02*
D03*
X4587Y9169D02*
D03*
D80*
X3300Y1110D02*
D03*
X2800D02*
D03*
X4300D02*
D03*
X3800D02*
D03*
X4800D02*
D03*
M02*
