M48
;Layer_Color=9474304
;FILE_FORMAT=2:4
INCH,LZ
;TYPE=PLATED
T1F00S00C0.0080
T2F00S00C0.0118
;TYPE=NON_PLATED
T3F00S00C0.0350
%
T01
X000386Y000337
X000906
Y00111
X000386
Y00169
X000906
Y002411
X000386
X001716Y002783
X002369Y002769
X002971Y002794
X003336Y002793
X00363Y002806
X004077Y002896
X003909Y002411
Y00169
X004375Y00111
X004824
Y000337
X004375
X005488Y001541
X005648Y002527
X005631Y003415
X005138Y003451
X004469Y003371
X004356Y003654
X004218Y004505
X003444Y004561
X002098Y004121
X0012Y003553
X002648Y002411
Y00169
X005318Y004911
X00457Y008813
X004587Y009169
X002991Y009164
X006065Y004236
X00606Y003949
X006034Y003057
X005929Y002527
X006518Y002603
Y002121
Y001638
X00587Y001555
X007286Y001392
Y002848
X006906Y003429
T02
X003218Y00374
X003496Y004018
X003774Y00374
X003496Y003461
T03
X006873Y001286
Y002956
M30
