G04*
G04 #@! TF.GenerationSoftware,Altium Limited,Altium Designer,23.1.1 (15)*
G04*
G04 Layer_Color=16711833*
%FSLAX24Y24*%
%MOIN*%
G70*
G04*
G04 #@! TF.SameCoordinates,E02B9306-6A5D-4C65-B62C-121D950AC055*
G04*
G04*
G04 #@! TF.FilePolarity,Negative*
G04*
G01*
G75*
%ADD10C,0.0100*%
%ADD17C,0.0005*%
%ADD33R,0.0350X0.0515*%
%ADD34R,0.0710X0.0295*%
%ADD35R,0.0710X0.0240*%
%ADD47P,0.0220X4X270.0*%
%ADD48R,0.0128X0.0187*%
%ADD49R,0.0306X0.0187*%
G04:AMPARAMS|DCode=50|XSize=12.8mil|YSize=18.7mil|CornerRadius=0mil|HoleSize=0mil|Usage=FLASHONLY|Rotation=45.000|XOffset=0mil|YOffset=0mil|HoleType=Round|Shape=Rectangle|*
%AMROTATEDRECTD50*
4,1,4,0.0021,-0.0112,-0.0112,0.0021,-0.0021,0.0112,0.0112,-0.0021,0.0021,-0.0112,0.0*
%
%ADD50ROTATEDRECTD50*%

G04:AMPARAMS|DCode=51|XSize=30.6mil|YSize=18.7mil|CornerRadius=0mil|HoleSize=0mil|Usage=FLASHONLY|Rotation=45.000|XOffset=0mil|YOffset=0mil|HoleType=Round|Shape=Rectangle|*
%AMROTATEDRECTD51*
4,1,4,-0.0042,-0.0174,-0.0174,-0.0042,0.0042,0.0174,0.0174,0.0042,-0.0042,-0.0174,0.0*
%
%ADD51ROTATEDRECTD51*%

%ADD52R,0.0187X0.0128*%
%ADD53R,0.0187X0.0306*%
G04:AMPARAMS|DCode=54|XSize=12.8mil|YSize=18.7mil|CornerRadius=0mil|HoleSize=0mil|Usage=FLASHONLY|Rotation=315.000|XOffset=0mil|YOffset=0mil|HoleType=Round|Shape=Rectangle|*
%AMROTATEDRECTD54*
4,1,4,-0.0112,-0.0021,0.0021,0.0112,0.0112,0.0021,-0.0021,-0.0112,-0.0112,-0.0021,0.0*
%
%ADD54ROTATEDRECTD54*%

G04:AMPARAMS|DCode=55|XSize=30.6mil|YSize=18.7mil|CornerRadius=0mil|HoleSize=0mil|Usage=FLASHONLY|Rotation=315.000|XOffset=0mil|YOffset=0mil|HoleType=Round|Shape=Rectangle|*
%AMROTATEDRECTD55*
4,1,4,-0.0174,0.0042,-0.0042,0.0174,0.0174,-0.0042,0.0042,-0.0174,-0.0174,0.0042,0.0*
%
%ADD55ROTATEDRECTD55*%

G04:AMPARAMS|DCode=56|XSize=35.4mil|YSize=11.8mil|CornerRadius=0mil|HoleSize=0mil|Usage=FLASHONLY|Rotation=315.000|XOffset=0mil|YOffset=0mil|HoleType=Round|Shape=Rectangle|*
%AMROTATEDRECTD56*
4,1,4,-0.0167,0.0084,-0.0084,0.0167,0.0167,-0.0084,0.0084,-0.0167,-0.0167,0.0084,0.0*
%
%ADD56ROTATEDRECTD56*%

G04:AMPARAMS|DCode=57|XSize=35.4mil|YSize=11.8mil|CornerRadius=0mil|HoleSize=0mil|Usage=FLASHONLY|Rotation=45.000|XOffset=0mil|YOffset=0mil|HoleType=Round|Shape=Rectangle|*
%AMROTATEDRECTD57*
4,1,4,-0.0084,-0.0167,-0.0167,-0.0084,0.0084,0.0167,0.0167,0.0084,-0.0084,-0.0167,0.0*
%
%ADD57ROTATEDRECTD57*%

%ADD58P,0.1058X4X90.0*%
G04:AMPARAMS|DCode=59|XSize=19.8mil|YSize=32.8mil|CornerRadius=0mil|HoleSize=0mil|Usage=FLASHONLY|Rotation=45.000|XOffset=0mil|YOffset=0mil|HoleType=Round|Shape=Rectangle|*
%AMROTATEDRECTD59*
4,1,4,0.0046,-0.0186,-0.0186,0.0046,-0.0046,0.0186,0.0186,-0.0046,0.0046,-0.0186,0.0*
%
%ADD59ROTATEDRECTD59*%

G04:AMPARAMS|DCode=60|XSize=23.8mil|YSize=34.8mil|CornerRadius=0mil|HoleSize=0mil|Usage=FLASHONLY|Rotation=135.000|XOffset=0mil|YOffset=0mil|HoleType=Round|Shape=Rectangle|*
%AMROTATEDRECTD60*
4,1,4,0.0207,0.0039,-0.0039,-0.0207,-0.0207,-0.0039,0.0039,0.0207,0.0207,0.0039,0.0*
%
%ADD60ROTATEDRECTD60*%

%ADD61R,0.0297X0.0297*%
%ADD62R,0.1025X0.1261*%
%ADD63R,0.1797X0.1198*%
%ADD64R,0.1001X0.1198*%
%ADD65P,0.0392X4X180.0*%
%ADD66R,0.0277X0.0277*%
%ADD67R,0.0277X0.0277*%
%ADD68P,0.0420X4X180.0*%
%ADD69R,0.0297X0.0297*%
%ADD70C,0.0430*%
%ADD71O,0.0400X0.0850*%
%ADD72O,0.0850X0.0400*%
%ADD73C,0.0197*%
%ADD74C,0.0260*%
D10*
X11354Y-5090D02*
X11621D01*
X11487D01*
Y-5490D01*
X11821D02*
X11954D01*
X12021Y-5423D01*
Y-5290D01*
X11954Y-5223D01*
X11821D01*
X11754Y-5290D01*
Y-5423D01*
X11821Y-5490D01*
X12154Y-5623D02*
Y-5223D01*
X12354D01*
X12420Y-5290D01*
Y-5423D01*
X12354Y-5490D01*
X12154D01*
X13220Y-5156D02*
X13154Y-5090D01*
X13020D01*
X12954Y-5156D01*
Y-5423D01*
X13020Y-5490D01*
X13154D01*
X13220Y-5423D01*
X13420Y-5490D02*
X13553D01*
X13620Y-5423D01*
Y-5290D01*
X13553Y-5223D01*
X13420D01*
X13353Y-5290D01*
Y-5423D01*
X13420Y-5490D01*
X13753Y-5223D02*
X13887Y-5490D01*
X14020Y-5223D01*
X14353Y-5490D02*
X14220D01*
X14153Y-5423D01*
Y-5290D01*
X14220Y-5223D01*
X14353D01*
X14420Y-5290D01*
Y-5356D01*
X14153D01*
X14553Y-5223D02*
Y-5490D01*
Y-5356D01*
X14620Y-5290D01*
X14686Y-5223D01*
X14753D01*
X14953Y-5490D02*
X15086D01*
X15020D01*
Y-5090D01*
X14953D01*
X15353Y-5223D02*
X15486D01*
X15553Y-5290D01*
Y-5490D01*
X15353D01*
X15286Y-5423D01*
X15353Y-5356D01*
X15553D01*
X15686Y-5223D02*
Y-5423D01*
X15753Y-5490D01*
X15953D01*
Y-5556D01*
X15886Y-5623D01*
X15819D01*
X15953Y-5490D02*
Y-5223D01*
X11354Y-16380D02*
Y-16780D01*
X11554D01*
X11621Y-16713D01*
Y-16646D01*
X11554Y-16580D01*
X11354D01*
X11554D01*
X11621Y-16513D01*
Y-16446D01*
X11554Y-16380D01*
X11354D01*
X11821Y-16780D02*
X11954D01*
X12021Y-16713D01*
Y-16580D01*
X11954Y-16513D01*
X11821D01*
X11754Y-16580D01*
Y-16713D01*
X11821Y-16780D01*
X12220Y-16513D02*
X12354D01*
X12420Y-16580D01*
Y-16780D01*
X12220D01*
X12154Y-16713D01*
X12220Y-16646D01*
X12420D01*
X12554Y-16513D02*
Y-16780D01*
Y-16646D01*
X12620Y-16580D01*
X12687Y-16513D01*
X12754D01*
X13220Y-16380D02*
Y-16780D01*
X13020D01*
X12954Y-16713D01*
Y-16580D01*
X13020Y-16513D01*
X13220D01*
X13953Y-16380D02*
X13820D01*
X13753Y-16446D01*
Y-16713D01*
X13820Y-16780D01*
X13953D01*
X14020Y-16713D01*
Y-16446D01*
X13953Y-16380D01*
X14153Y-16513D02*
Y-16713D01*
X14220Y-16780D01*
X14420D01*
Y-16513D01*
X14620Y-16446D02*
Y-16513D01*
X14553D01*
X14686D01*
X14620D01*
Y-16713D01*
X14686Y-16780D01*
X14886D02*
X15020D01*
X14953D01*
Y-16380D01*
X14886D01*
X15220Y-16780D02*
X15353D01*
X15286D01*
Y-16513D01*
X15220D01*
X15553Y-16780D02*
Y-16513D01*
X15753D01*
X15819Y-16580D01*
Y-16780D01*
X16153D02*
X16019D01*
X15953Y-16713D01*
Y-16580D01*
X16019Y-16513D01*
X16153D01*
X16219Y-16580D01*
Y-16646D01*
X15953D01*
D17*
X0Y3830D02*
G03*
X1114Y4257I100J1406D01*
G01*
X6486D02*
G03*
X7600Y3830I1014J979D01*
G01*
X3450Y8300D02*
G03*
X3300Y8450I-150J0D01*
G01*
X4150Y5550D02*
G03*
X4300Y5400I150J0D01*
G01*
Y8450D02*
G03*
X4150Y8300I0J-150D01*
G01*
X3300Y5400D02*
G03*
X3450Y5550I0J150D01*
G01*
X0Y0D02*
Y3830D01*
X7600Y0D02*
Y1725D01*
Y2515D01*
Y3830D01*
X0Y0D02*
X7600D01*
X2650Y8450D02*
Y9830D01*
X4300Y5400D02*
X5382D01*
X2650Y8450D02*
X3300D01*
X2650Y9830D02*
X4950D01*
Y8450D02*
Y9830D01*
X3450Y5550D02*
Y8300D01*
X4300Y8450D02*
X4950D01*
X5382Y5400D02*
X6486Y4257D01*
X1114D02*
X2218Y5400D01*
X4150Y5550D02*
Y8300D01*
X2218Y5400D02*
X3300D01*
D33*
X7288Y2848D02*
D03*
Y1393D02*
D03*
D34*
X6518Y1638D02*
D03*
Y2603D02*
D03*
D35*
Y2121D02*
D03*
D47*
X1945Y3966D02*
D03*
X2084Y3827D02*
D03*
X1806Y4105D02*
D03*
X2224Y3966D02*
D03*
X2363Y4105D02*
D03*
X1667Y4244D02*
D03*
X1806Y4384D02*
D03*
X1945Y4523D02*
D03*
X2224Y4523D02*
D03*
X2502Y4244D02*
D03*
X2363Y4384D02*
D03*
X2084Y4662D02*
D03*
D48*
X5793Y2804D02*
D03*
X5616D02*
D03*
D49*
X5704Y3080D02*
D03*
D50*
X2465Y3117D02*
D03*
X2590Y3242D02*
D03*
D51*
X2722Y2985D02*
D03*
D52*
X4920Y3012D02*
D03*
Y3189D02*
D03*
D53*
X5196Y3101D02*
D03*
D54*
X2340Y3612D02*
D03*
X2465Y3486D02*
D03*
D55*
X2208Y3354D02*
D03*
D56*
X2856Y3934D02*
D03*
X3190Y4268D02*
D03*
X3078Y4157D02*
D03*
X2967Y4046D02*
D03*
X3301Y4380D02*
D03*
X3802Y3211D02*
D03*
X3691Y3099D02*
D03*
X4025Y3433D02*
D03*
X3914Y3322D02*
D03*
X4136Y3545D02*
D03*
D57*
X2856D02*
D03*
X2967Y3433D02*
D03*
X3802Y4268D02*
D03*
X3691Y4380D02*
D03*
X3078Y3322D02*
D03*
X3190Y3211D02*
D03*
X3301Y3099D02*
D03*
X3914Y4157D02*
D03*
X4025Y4046D02*
D03*
X4136Y3934D02*
D03*
D58*
X3496Y3740D02*
D03*
D59*
X5394Y3668D02*
D03*
X5041Y4021D02*
D03*
X5180Y4161D02*
D03*
X5319Y4300D02*
D03*
X5673Y3946D02*
D03*
X5534Y3807D02*
D03*
D60*
X5478Y4105D02*
D03*
X5236Y3863D02*
D03*
D61*
X4572Y4505D02*
D03*
X4218D02*
D03*
X3345Y4851D02*
D03*
X2991D02*
D03*
X4926Y4505D02*
D03*
X4572D02*
D03*
X5025Y4851D02*
D03*
X4671D02*
D03*
X5275Y2669D02*
D03*
X4921D02*
D03*
D62*
X4579Y730D02*
D03*
X642D02*
D03*
D63*
X3250Y2050D02*
D03*
D64*
X632D02*
D03*
D65*
X5737Y4361D02*
D03*
X5459Y4640D02*
D03*
X1734Y3719D02*
D03*
X1455Y3998D02*
D03*
D66*
X4524Y2686D02*
D03*
Y3080D02*
D03*
X5058Y2259D02*
D03*
Y1865D02*
D03*
D67*
X3740Y4856D02*
D03*
X4134D02*
D03*
D68*
X1800Y3276D02*
D03*
X2050Y3026D02*
D03*
X2731Y4489D02*
D03*
X2481Y4740D02*
D03*
X6103Y3366D02*
D03*
X5853Y3616D02*
D03*
X6302Y3769D02*
D03*
X6552Y3519D02*
D03*
X4783Y3646D02*
D03*
X4533Y3896D02*
D03*
D69*
X1385Y2962D02*
D03*
Y3316D02*
D03*
X5848Y1857D02*
D03*
Y2211D02*
D03*
X5448Y2208D02*
D03*
Y1854D02*
D03*
D70*
X6873Y1286D02*
D03*
Y2956D02*
D03*
D71*
X4270Y2050D02*
D03*
D72*
X659Y2770D02*
D03*
D73*
X3496Y3461D02*
D03*
X3774Y3740D02*
D03*
X3218D02*
D03*
X3496Y4018D02*
D03*
D74*
X4300Y1120D02*
D03*
Y340D02*
D03*
X2648Y1690D02*
D03*
Y2411D02*
D03*
X3909Y1690D02*
D03*
X4218Y4505D02*
D03*
X906Y2411D02*
D03*
X386Y337D02*
D03*
X906D02*
D03*
X6518Y2121D02*
D03*
X906Y1110D02*
D03*
X6518Y1638D02*
D03*
X3909Y2411D02*
D03*
X386D02*
D03*
Y1690D02*
D03*
X906D02*
D03*
X7286Y2848D02*
D03*
X6518Y2603D02*
D03*
X7286Y1392D02*
D03*
X386Y1110D02*
D03*
X4900Y340D02*
D03*
M02*
