G04*
G04 #@! TF.GenerationSoftware,Altium Limited,Altium Designer,23.1.1 (15)*
G04*
G04 Layer_Color=15238730*
%FSLAX24Y24*%
%MOIN*%
G70*
G04*
G04 #@! TF.SameCoordinates,9E248168-9D0A-4965-B1BF-A28D9D39D317*
G04*
G04*
G04 #@! TF.FilePolarity,Negative*
G04*
G01*
G75*
%ADD10C,0.0100*%
%ADD17C,0.0005*%
%ADD70C,0.0430*%
%ADD71O,0.0400X0.0850*%
%ADD72O,0.0850X0.0400*%
%ADD73C,0.0197*%
%ADD81R,0.0276X0.0354*%
D10*
X11393Y-6065D02*
Y-6464D01*
X11593D01*
X11660Y-6398D01*
Y-6331D01*
X11593Y-6265D01*
X11393D01*
X11593D01*
X11660Y-6198D01*
Y-6131D01*
X11593Y-6065D01*
X11393D01*
X11860Y-6464D02*
X11993D01*
X12060Y-6398D01*
Y-6265D01*
X11993Y-6198D01*
X11860D01*
X11793Y-6265D01*
Y-6398D01*
X11860Y-6464D01*
X12260Y-6131D02*
Y-6198D01*
X12193D01*
X12326D01*
X12260D01*
Y-6398D01*
X12326Y-6464D01*
X12593Y-6131D02*
Y-6198D01*
X12526D01*
X12660D01*
X12593D01*
Y-6398D01*
X12660Y-6464D01*
X12926D02*
X13060D01*
X13126Y-6398D01*
Y-6265D01*
X13060Y-6198D01*
X12926D01*
X12860Y-6265D01*
Y-6398D01*
X12926Y-6464D01*
X13260D02*
Y-6198D01*
X13326D01*
X13393Y-6265D01*
Y-6464D01*
Y-6265D01*
X13459Y-6198D01*
X13526Y-6265D01*
Y-6464D01*
X14326Y-6131D02*
X14259Y-6065D01*
X14126D01*
X14059Y-6131D01*
Y-6398D01*
X14126Y-6464D01*
X14259D01*
X14326Y-6398D01*
X14526Y-6464D02*
X14659D01*
X14726Y-6398D01*
Y-6265D01*
X14659Y-6198D01*
X14526D01*
X14459Y-6265D01*
Y-6398D01*
X14526Y-6464D01*
X14859Y-6198D02*
X14992Y-6464D01*
X15126Y-6198D01*
X15459Y-6464D02*
X15326D01*
X15259Y-6398D01*
Y-6265D01*
X15326Y-6198D01*
X15459D01*
X15525Y-6265D01*
Y-6331D01*
X15259D01*
X15659Y-6198D02*
Y-6464D01*
Y-6331D01*
X15725Y-6265D01*
X15792Y-6198D01*
X15859D01*
X16059Y-6464D02*
X16192D01*
X16125D01*
Y-6065D01*
X16059D01*
X16458Y-6198D02*
X16592D01*
X16658Y-6265D01*
Y-6464D01*
X16458D01*
X16392Y-6398D01*
X16458Y-6331D01*
X16658D01*
X16792Y-6198D02*
Y-6398D01*
X16858Y-6464D01*
X17058D01*
Y-6531D01*
X16992Y-6598D01*
X16925D01*
X17058Y-6464D02*
Y-6198D01*
X11354Y-16380D02*
Y-16780D01*
X11554D01*
X11621Y-16713D01*
Y-16646D01*
X11554Y-16580D01*
X11354D01*
X11554D01*
X11621Y-16513D01*
Y-16446D01*
X11554Y-16380D01*
X11354D01*
X11821Y-16780D02*
X11954D01*
X12021Y-16713D01*
Y-16580D01*
X11954Y-16513D01*
X11821D01*
X11754Y-16580D01*
Y-16713D01*
X11821Y-16780D01*
X12220Y-16513D02*
X12354D01*
X12420Y-16580D01*
Y-16780D01*
X12220D01*
X12154Y-16713D01*
X12220Y-16646D01*
X12420D01*
X12554Y-16513D02*
Y-16780D01*
Y-16646D01*
X12620Y-16580D01*
X12687Y-16513D01*
X12754D01*
X13220Y-16380D02*
Y-16780D01*
X13020D01*
X12954Y-16713D01*
Y-16580D01*
X13020Y-16513D01*
X13220D01*
X13953Y-16380D02*
X13820D01*
X13753Y-16446D01*
Y-16713D01*
X13820Y-16780D01*
X13953D01*
X14020Y-16713D01*
Y-16446D01*
X13953Y-16380D01*
X14153Y-16513D02*
Y-16713D01*
X14220Y-16780D01*
X14420D01*
Y-16513D01*
X14620Y-16446D02*
Y-16513D01*
X14553D01*
X14686D01*
X14620D01*
Y-16713D01*
X14686Y-16780D01*
X14886D02*
X15020D01*
X14953D01*
Y-16380D01*
X14886D01*
X15220Y-16780D02*
X15353D01*
X15286D01*
Y-16513D01*
X15220D01*
X15553Y-16780D02*
Y-16513D01*
X15753D01*
X15819Y-16580D01*
Y-16780D01*
X16153D02*
X16019D01*
X15953Y-16713D01*
Y-16580D01*
X16019Y-16513D01*
X16153D01*
X16219Y-16580D01*
Y-16646D01*
X15953D01*
D17*
X0Y3830D02*
G03*
X1114Y4257I100J1406D01*
G01*
X6486D02*
G03*
X7600Y3830I1014J979D01*
G01*
X3450Y8300D02*
G03*
X3300Y8450I-150J0D01*
G01*
X4150Y5550D02*
G03*
X4300Y5400I150J0D01*
G01*
Y8450D02*
G03*
X4150Y8300I0J-150D01*
G01*
X3300Y5400D02*
G03*
X3450Y5550I0J150D01*
G01*
X0Y0D02*
Y3830D01*
X7600Y0D02*
Y1725D01*
Y2515D01*
Y3830D01*
X0Y0D02*
X7600D01*
X2650Y8450D02*
Y9830D01*
X4300Y5400D02*
X5382D01*
X2650Y8450D02*
X3300D01*
X2650Y9830D02*
X4950D01*
Y8450D02*
Y9830D01*
X3450Y5550D02*
Y8300D01*
X4300Y8450D02*
X4950D01*
X5382Y5400D02*
X6486Y4257D01*
X1114D02*
X2218Y5400D01*
X4150Y5550D02*
Y8300D01*
X2218Y5400D02*
X3300D01*
D70*
X6873Y1286D02*
D03*
Y2956D02*
D03*
D71*
X4270Y2050D02*
D03*
D72*
X659Y2770D02*
D03*
D73*
X3496Y3461D02*
D03*
X3774Y3740D02*
D03*
X3218D02*
D03*
X3496Y4018D02*
D03*
D81*
X3300Y1110D02*
D03*
X2800D02*
D03*
X4300D02*
D03*
X3800D02*
D03*
X4800D02*
D03*
M02*
