G04*
G04 #@! TF.GenerationSoftware,Altium Limited,Altium Designer,23.1.1 (15)*
G04*
G04 Layer_Color=32896*
%FSLAX24Y24*%
%MOIN*%
G70*
G04*
G04 #@! TF.SameCoordinates,9E248168-9D0A-4965-B1BF-A28D9D39D317*
G04*
G04*
G04 #@! TF.FilePolarity,Positive*
G04*
G01*
G75*
%ADD10C,0.0100*%
%ADD13C,0.0050*%
%ADD17C,0.0005*%
%ADD82R,0.1020X0.0620*%
D10*
X2200Y1349D02*
X2133Y1416D01*
X2000D01*
X1933Y1349D01*
Y1083D01*
X2000Y1016D01*
X2133D01*
X2200Y1083D01*
Y1349D01*
X1534Y1016D02*
X1800D01*
X1534Y1283D01*
Y1349D01*
X1600Y1416D01*
X1733D01*
X1800Y1349D01*
X11354Y-9075D02*
Y-9475D01*
X11554D01*
X11621Y-9408D01*
Y-9342D01*
X11554Y-9275D01*
X11354D01*
X11554D01*
X11621Y-9209D01*
Y-9142D01*
X11554Y-9075D01*
X11354D01*
X11821Y-9475D02*
X11954D01*
X12021Y-9408D01*
Y-9275D01*
X11954Y-9209D01*
X11821D01*
X11754Y-9275D01*
Y-9408D01*
X11821Y-9475D01*
X12220Y-9142D02*
Y-9209D01*
X12154D01*
X12287D01*
X12220D01*
Y-9408D01*
X12287Y-9475D01*
X12554Y-9142D02*
Y-9209D01*
X12487D01*
X12620D01*
X12554D01*
Y-9408D01*
X12620Y-9475D01*
X12887D02*
X13020D01*
X13087Y-9408D01*
Y-9275D01*
X13020Y-9209D01*
X12887D01*
X12820Y-9275D01*
Y-9408D01*
X12887Y-9475D01*
X13220D02*
Y-9209D01*
X13287D01*
X13353Y-9275D01*
Y-9475D01*
Y-9275D01*
X13420Y-9209D01*
X13487Y-9275D01*
Y-9475D01*
X14220Y-9075D02*
X14087D01*
X14020Y-9142D01*
Y-9408D01*
X14087Y-9475D01*
X14220D01*
X14286Y-9408D01*
Y-9142D01*
X14220Y-9075D01*
X14420Y-9209D02*
X14553Y-9475D01*
X14686Y-9209D01*
X15020Y-9475D02*
X14886D01*
X14820Y-9408D01*
Y-9275D01*
X14886Y-9209D01*
X15020D01*
X15086Y-9275D01*
Y-9342D01*
X14820D01*
X15220Y-9209D02*
Y-9475D01*
Y-9342D01*
X15286Y-9275D01*
X15353Y-9209D01*
X15419D01*
X15619Y-9475D02*
X15753D01*
X15686D01*
Y-9075D01*
X15619D01*
X16019Y-9209D02*
X16153D01*
X16219Y-9275D01*
Y-9475D01*
X16019D01*
X15953Y-9408D01*
X16019Y-9342D01*
X16219D01*
X16352Y-9209D02*
Y-9408D01*
X16419Y-9475D01*
X16619D01*
Y-9542D01*
X16552Y-9608D01*
X16486D01*
X16619Y-9475D02*
Y-9209D01*
X2200Y2124D02*
X2133Y2190D01*
X2000D01*
X1933Y2124D01*
Y1857D01*
X2000Y1791D01*
X2133D01*
X2200Y1857D01*
Y2124D01*
X1800D02*
X1733Y2190D01*
X1600D01*
X1534Y2124D01*
Y2057D01*
X1600Y1990D01*
X1667D01*
X1600D01*
X1534Y1924D01*
Y1857D01*
X1600Y1791D01*
X1733D01*
X1800Y1857D01*
X5393Y600D02*
X5126D01*
Y533D01*
X5393Y267D01*
Y200D01*
X4793D02*
Y600D01*
X4993Y400D01*
X4727D01*
X4593Y533D02*
X4527Y600D01*
X4393D01*
X4327Y533D01*
Y267D01*
X4393Y200D01*
X4527D01*
X4593Y267D01*
Y533D01*
X3994Y200D02*
Y600D01*
X4193Y400D01*
X3927D01*
X3794Y533D02*
X3727Y600D01*
X3594D01*
X3527Y533D01*
Y467D01*
X3594Y400D01*
X3660D01*
X3594D01*
X3527Y333D01*
Y267D01*
X3594Y200D01*
X3727D01*
X3794Y267D01*
X3394Y533D02*
X3327Y600D01*
X3194D01*
X3127Y533D01*
Y467D01*
X3194Y400D01*
X3260D01*
X3194D01*
X3127Y333D01*
Y267D01*
X3194Y200D01*
X3327D01*
X3394Y267D01*
X2994Y600D02*
X2727D01*
Y533D01*
X2994Y267D01*
Y200D01*
X2200Y628D02*
X2133Y694D01*
X2000D01*
X1933Y628D01*
Y361D01*
X2000Y294D01*
X2133D01*
X2200Y361D01*
Y628D01*
X1800Y294D02*
X1667D01*
X1733D01*
Y694D01*
X1800Y628D01*
X11354Y-16380D02*
Y-16780D01*
X11554D01*
X11621Y-16713D01*
Y-16646D01*
X11554Y-16580D01*
X11354D01*
X11554D01*
X11621Y-16513D01*
Y-16446D01*
X11554Y-16380D01*
X11354D01*
X11821Y-16780D02*
X11954D01*
X12021Y-16713D01*
Y-16580D01*
X11954Y-16513D01*
X11821D01*
X11754Y-16580D01*
Y-16713D01*
X11821Y-16780D01*
X12220Y-16513D02*
X12354D01*
X12420Y-16580D01*
Y-16780D01*
X12220D01*
X12154Y-16713D01*
X12220Y-16646D01*
X12420D01*
X12554Y-16513D02*
Y-16780D01*
Y-16646D01*
X12620Y-16580D01*
X12687Y-16513D01*
X12754D01*
X13220Y-16380D02*
Y-16780D01*
X13020D01*
X12954Y-16713D01*
Y-16580D01*
X13020Y-16513D01*
X13220D01*
X13953Y-16380D02*
X13820D01*
X13753Y-16446D01*
Y-16713D01*
X13820Y-16780D01*
X13953D01*
X14020Y-16713D01*
Y-16446D01*
X13953Y-16380D01*
X14153Y-16513D02*
Y-16713D01*
X14220Y-16780D01*
X14420D01*
Y-16513D01*
X14620Y-16446D02*
Y-16513D01*
X14553D01*
X14686D01*
X14620D01*
Y-16713D01*
X14686Y-16780D01*
X14886D02*
X15020D01*
X14953D01*
Y-16380D01*
X14886D01*
X15220Y-16780D02*
X15353D01*
X15286D01*
Y-16513D01*
X15220D01*
X15553Y-16780D02*
Y-16513D01*
X15753D01*
X15819Y-16580D01*
Y-16780D01*
X16153D02*
X16019D01*
X15953Y-16713D01*
Y-16580D01*
X16019Y-16513D01*
X16153D01*
X16219Y-16580D01*
Y-16646D01*
X15953D01*
D13*
X3000Y960D02*
Y1270D01*
X3231Y1736D02*
X3265Y1770D01*
X3331D01*
X3365Y1736D01*
Y1703D01*
X3331Y1670D01*
X3265D01*
X3231Y1637D01*
Y1603D01*
X3265Y1570D01*
X3331D01*
X3365Y1603D01*
X3857Y1570D02*
Y1770D01*
X3757D01*
X3724Y1736D01*
Y1670D01*
X3757Y1637D01*
X3857D01*
X4493Y1766D02*
X4526Y1800D01*
X4593D01*
X4626Y1766D01*
Y1633D01*
X4593Y1600D01*
X4526D01*
X4493Y1633D01*
Y1700D01*
X4560D01*
X4981Y1809D02*
X4914D01*
X4947D01*
Y1609D01*
X4981D01*
X4914D01*
X2846Y1770D02*
Y1570D01*
X2746D01*
X2713Y1603D01*
Y1736D01*
X2746Y1770D01*
X2846D01*
D17*
X0Y3830D02*
G03*
X1114Y4257I100J1406D01*
G01*
X6486D02*
G03*
X7600Y3830I1014J979D01*
G01*
X3450Y8300D02*
G03*
X3300Y8450I-150J0D01*
G01*
X4150Y5550D02*
G03*
X4300Y5400I150J0D01*
G01*
Y8450D02*
G03*
X4150Y8300I0J-150D01*
G01*
X3300Y5400D02*
G03*
X3450Y5550I0J150D01*
G01*
X0Y0D02*
Y3830D01*
X7600Y0D02*
Y1725D01*
Y2515D01*
Y3830D01*
X0Y0D02*
X7600D01*
X2650Y8450D02*
Y9830D01*
X4300Y5400D02*
X5382D01*
X2650Y8450D02*
X3300D01*
X2650Y9830D02*
X4950D01*
Y8450D02*
Y9830D01*
X3450Y5550D02*
Y8300D01*
X4300Y8450D02*
X4950D01*
X5382Y5400D02*
X6486Y4257D01*
X1114D02*
X2218Y5400D01*
X4150Y5550D02*
Y8300D01*
X2218Y5400D02*
X3300D01*
D82*
X715Y1968D02*
D03*
Y1228D02*
D03*
Y498D02*
D03*
M02*
