G04*
G04 #@! TF.GenerationSoftware,Altium Limited,Altium Designer,23.1.1 (15)*
G04*
G04 Layer_Color=39423*
%FSLAX24Y24*%
%MOIN*%
G70*
G04*
G04 #@! TF.SameCoordinates,E02B9306-6A5D-4C65-B62C-121D950AC055*
G04*
G04*
G04 #@! TF.FilePolarity,Positive*
G04*
G01*
G75*
%ADD10C,0.0100*%
%ADD17C,0.0005*%
%ADD86C,0.0020*%
D10*
X11621Y-14720D02*
X11554Y-14654D01*
X11421D01*
X11354Y-14720D01*
Y-14987D01*
X11421Y-15053D01*
X11554D01*
X11621Y-14987D01*
X11754Y-14787D02*
Y-14987D01*
X11821Y-15053D01*
X12021D01*
Y-14787D01*
X12220Y-14720D02*
Y-14787D01*
X12154D01*
X12287D01*
X12220D01*
Y-14987D01*
X12287Y-15053D01*
X12554D02*
X12687D01*
X12754Y-14987D01*
Y-14853D01*
X12687Y-14787D01*
X12554D01*
X12487Y-14853D01*
Y-14987D01*
X12554Y-15053D01*
X12887Y-14787D02*
Y-14987D01*
X12954Y-15053D01*
X13154D01*
Y-14787D01*
X13353Y-14720D02*
Y-14787D01*
X13287D01*
X13420D01*
X13353D01*
Y-14987D01*
X13420Y-15053D01*
X14020D02*
X14153D01*
X14087D01*
Y-14787D01*
X14020D01*
X14353Y-15053D02*
Y-14787D01*
X14553D01*
X14620Y-14853D01*
Y-15053D01*
X15419Y-14720D02*
X15353Y-14654D01*
X15220D01*
X15153Y-14720D01*
Y-14787D01*
X15220Y-14853D01*
X15353D01*
X15419Y-14920D01*
Y-14987D01*
X15353Y-15053D01*
X15220D01*
X15153Y-14987D01*
X15619Y-14720D02*
Y-14787D01*
X15553D01*
X15686D01*
X15619D01*
Y-14987D01*
X15686Y-15053D01*
X15886D02*
X16019D01*
X15953D01*
Y-14787D01*
X15886D01*
X16286Y-15053D02*
Y-14720D01*
Y-14853D01*
X16219D01*
X16352D01*
X16286D01*
Y-14720D01*
X16352Y-14654D01*
X16619Y-15053D02*
Y-14720D01*
Y-14853D01*
X16552D01*
X16686D01*
X16619D01*
Y-14720D01*
X16686Y-14654D01*
X17086Y-15053D02*
X16952D01*
X16886Y-14987D01*
Y-14853D01*
X16952Y-14787D01*
X17086D01*
X17152Y-14853D01*
Y-14920D01*
X16886D01*
X17285Y-15053D02*
Y-14787D01*
X17485D01*
X17552Y-14853D01*
Y-15053D01*
X17885D02*
X17752D01*
X17685Y-14987D01*
Y-14853D01*
X17752Y-14787D01*
X17885D01*
X17952Y-14853D01*
Y-14920D01*
X17685D01*
X18085Y-14787D02*
Y-15053D01*
Y-14920D01*
X18152Y-14853D01*
X18219Y-14787D01*
X18285D01*
X11354Y-16380D02*
Y-16780D01*
X11554D01*
X11621Y-16713D01*
Y-16646D01*
X11554Y-16580D01*
X11354D01*
X11554D01*
X11621Y-16513D01*
Y-16446D01*
X11554Y-16380D01*
X11354D01*
X11821Y-16780D02*
X11954D01*
X12021Y-16713D01*
Y-16580D01*
X11954Y-16513D01*
X11821D01*
X11754Y-16580D01*
Y-16713D01*
X11821Y-16780D01*
X12220Y-16513D02*
X12354D01*
X12420Y-16580D01*
Y-16780D01*
X12220D01*
X12154Y-16713D01*
X12220Y-16646D01*
X12420D01*
X12554Y-16513D02*
Y-16780D01*
Y-16646D01*
X12620Y-16580D01*
X12687Y-16513D01*
X12754D01*
X13220Y-16380D02*
Y-16780D01*
X13020D01*
X12954Y-16713D01*
Y-16580D01*
X13020Y-16513D01*
X13220D01*
X13953Y-16380D02*
X13820D01*
X13753Y-16446D01*
Y-16713D01*
X13820Y-16780D01*
X13953D01*
X14020Y-16713D01*
Y-16446D01*
X13953Y-16380D01*
X14153Y-16513D02*
Y-16713D01*
X14220Y-16780D01*
X14420D01*
Y-16513D01*
X14620Y-16446D02*
Y-16513D01*
X14553D01*
X14686D01*
X14620D01*
Y-16713D01*
X14686Y-16780D01*
X14886D02*
X15020D01*
X14953D01*
Y-16380D01*
X14886D01*
X15220Y-16780D02*
X15353D01*
X15286D01*
Y-16513D01*
X15220D01*
X15553Y-16780D02*
Y-16513D01*
X15753D01*
X15819Y-16580D01*
Y-16780D01*
X16153D02*
X16019D01*
X15953Y-16713D01*
Y-16580D01*
X16019Y-16513D01*
X16153D01*
X16219Y-16580D01*
Y-16646D01*
X15953D01*
D17*
X0Y3830D02*
G03*
X1114Y4257I100J1406D01*
G01*
X6486D02*
G03*
X7600Y3830I1014J979D01*
G01*
X3450Y8300D02*
G03*
X3300Y8450I-150J0D01*
G01*
X4150Y5550D02*
G03*
X4300Y5400I150J0D01*
G01*
Y8450D02*
G03*
X4150Y8300I0J-150D01*
G01*
X3300Y5400D02*
G03*
X3450Y5550I0J150D01*
G01*
X0Y0D02*
Y3830D01*
X7600Y0D02*
Y1725D01*
Y2515D01*
Y3830D01*
X0Y0D02*
X7600D01*
X2650Y8450D02*
Y9830D01*
X4300Y5400D02*
X5382D01*
X2650Y8450D02*
X3300D01*
X2650Y9830D02*
X4950D01*
Y8450D02*
Y9830D01*
X3450Y5550D02*
Y8300D01*
X4300Y8450D02*
X4950D01*
X5382Y5400D02*
X6486Y4257D01*
X1114D02*
X2218Y5400D01*
X4150Y5550D02*
Y8300D01*
X2218Y5400D02*
X3300D01*
D86*
X2800Y1520D02*
G03*
X2800Y720I0J-400D01*
G01*
X4816D02*
G03*
X4816Y1520I0J400D01*
G01*
X2800Y720D02*
X4816D01*
X2800Y1520D02*
X4816D01*
M02*
