G04*
G04 #@! TF.GenerationSoftware,Altium Limited,Altium Designer,23.1.1 (15)*
G04*
G04 Layer_Physical_Order=3*
G04 Layer_Color=255*
%FSLAX24Y24*%
%MOIN*%
G70*
G04*
G04 #@! TF.SameCoordinates,E02B9306-6A5D-4C65-B62C-121D950AC055*
G04*
G04*
G04 #@! TF.FilePolarity,Positive*
G04*
G01*
G75*
%ADD10C,0.0100*%
%ADD17C,0.0005*%
%ADD44R,0.0315X0.0276*%
%ADD75C,0.0080*%
%ADD76O,0.0320X0.0770*%
%ADD77O,0.0770X0.0320*%
%ADD78C,0.0180*%
%ADD79C,0.0150*%
G36*
X4201Y5310D02*
X4300Y5290D01*
Y5293D01*
X5336Y5293D01*
X6134Y4467D01*
X6109Y4421D01*
X6065Y4430D01*
X5991Y4415D01*
X5928Y4373D01*
X5886Y4310D01*
X5871Y4236D01*
X5886Y4162D01*
X5905Y4134D01*
X5923Y4086D01*
X5881Y4023D01*
X5866Y3949D01*
X5881Y3875D01*
X5923Y3812D01*
X5986Y3770D01*
X6060Y3755D01*
X6134Y3770D01*
X6197Y3812D01*
X6239Y3875D01*
X6254Y3949D01*
X6239Y4023D01*
X6220Y4051D01*
X6202Y4099D01*
X6244Y4162D01*
X6259Y4236D01*
X6251Y4274D01*
X6297Y4298D01*
X6374Y4218D01*
X6408Y4182D01*
X6425Y4162D01*
X6443Y4147D01*
X6607Y4007D01*
X6810Y3882D01*
X7030Y3791D01*
X7262Y3735D01*
X7493Y3717D01*
X7493Y2970D01*
X7443Y2955D01*
X7423Y2985D01*
X7360Y3027D01*
X7286Y3042D01*
X7211Y3027D01*
X7193Y3015D01*
X7168Y3021D01*
X7137Y3037D01*
X7113Y3094D01*
X7069Y3152D01*
X7012Y3196D01*
X6945Y3224D01*
X6873Y3233D01*
X6801Y3224D01*
X6734Y3196D01*
X6677Y3152D01*
X6633Y3094D01*
X6605Y3027D01*
X6595Y2956D01*
X6605Y2884D01*
X6633Y2817D01*
X6636Y2813D01*
X6601Y2776D01*
X6592Y2782D01*
X6518Y2797D01*
X6444Y2782D01*
X6381Y2740D01*
X6339Y2677D01*
X6324Y2603D01*
X6339Y2529D01*
X6381Y2466D01*
X6444Y2424D01*
X6518Y2409D01*
X6592Y2424D01*
X6655Y2466D01*
X6697Y2529D01*
X6712Y2603D01*
X6697Y2677D01*
X6692Y2685D01*
X6729Y2720D01*
X6734Y2715D01*
X6801Y2688D01*
X6873Y2678D01*
X6945Y2688D01*
X7012Y2715D01*
X7063Y2755D01*
X7085Y2756D01*
X7124Y2749D01*
X7149Y2711D01*
X7211Y2669D01*
X7286Y2654D01*
X7360Y2669D01*
X7423Y2711D01*
X7443Y2742D01*
X7493Y2727D01*
X7493Y1514D01*
X7443Y1499D01*
X7423Y1529D01*
X7360Y1571D01*
X7286Y1586D01*
X7211Y1571D01*
X7149Y1529D01*
X7124Y1492D01*
X7083Y1485D01*
X7063Y1486D01*
X7012Y1526D01*
X6945Y1554D01*
X6873Y1563D01*
X6801Y1554D01*
X6734Y1526D01*
X6729Y1522D01*
X6692Y1556D01*
X6697Y1564D01*
X6712Y1638D01*
X6697Y1712D01*
X6655Y1775D01*
X6592Y1817D01*
X6518Y1832D01*
X6444Y1817D01*
X6381Y1775D01*
X6339Y1712D01*
X6324Y1638D01*
X6339Y1564D01*
X6381Y1501D01*
X6444Y1459D01*
X6518Y1444D01*
X6592Y1459D01*
X6601Y1465D01*
X6636Y1428D01*
X6633Y1424D01*
X6605Y1357D01*
X6595Y1286D01*
X6605Y1214D01*
X6633Y1147D01*
X6677Y1090D01*
X6734Y1045D01*
X6801Y1018D01*
X6873Y1008D01*
X6945Y1018D01*
X7012Y1045D01*
X7069Y1090D01*
X7113Y1147D01*
X7136Y1203D01*
X7169Y1220D01*
X7193Y1226D01*
X7211Y1213D01*
X7286Y1199D01*
X7360Y1213D01*
X7423Y1255D01*
X7443Y1286D01*
X7493Y1271D01*
X7493Y107D01*
X4959Y107D01*
X4954Y157D01*
X4974Y161D01*
X5037Y203D01*
X5079Y266D01*
X5094Y340D01*
X5079Y414D01*
X5037Y477D01*
X4974Y519D01*
X4900Y534D01*
X4826Y519D01*
X4763Y477D01*
X4721Y414D01*
X4706Y340D01*
X4721Y266D01*
X4763Y203D01*
X4826Y161D01*
X4846Y157D01*
X4841Y107D01*
X4359D01*
X4354Y157D01*
X4374Y161D01*
X4437Y203D01*
X4479Y266D01*
X4494Y340D01*
X4479Y414D01*
X4437Y477D01*
X4374Y519D01*
X4300Y534D01*
X4226Y519D01*
X4163Y477D01*
X4121Y414D01*
X4106Y340D01*
X4121Y266D01*
X4163Y203D01*
X4226Y161D01*
X4246Y157D01*
X4241Y107D01*
X978Y107D01*
X973Y157D01*
X980Y158D01*
X1043Y200D01*
X1085Y263D01*
X1099Y337D01*
X1085Y411D01*
X1043Y474D01*
X980Y516D01*
X906Y531D01*
X832Y516D01*
X769Y474D01*
X727Y411D01*
X712Y337D01*
X727Y263D01*
X769Y200D01*
X832Y158D01*
X838Y157D01*
X833Y107D01*
X458D01*
X453Y157D01*
X460Y158D01*
X523Y200D01*
X565Y263D01*
X580Y337D01*
X565Y411D01*
X523Y474D01*
X460Y516D01*
X386Y531D01*
X312Y516D01*
X249Y474D01*
X207Y411D01*
X192Y337D01*
X207Y263D01*
X249Y200D01*
X312Y158D01*
X318Y157D01*
X313Y107D01*
X107D01*
X107Y3717D01*
X338Y3735D01*
X570Y3791D01*
X790Y3882D01*
X993Y4007D01*
X1157Y4147D01*
X1175Y4162D01*
X1192Y4182D01*
X1226Y4218D01*
X2264Y5293D01*
X3300D01*
Y5290D01*
X3399Y5310D01*
X3400Y5310D01*
X4200D01*
X4201Y5310D01*
D02*
G37*
%LPC*%
G36*
X4218Y4699D02*
X4144Y4684D01*
X4081Y4642D01*
X4039Y4579D01*
X4024Y4505D01*
X4039Y4431D01*
X4081Y4368D01*
X4144Y4326D01*
X4218Y4311D01*
X4292Y4326D01*
X4355Y4368D01*
X4397Y4431D01*
X4411Y4505D01*
X4397Y4579D01*
X4355Y4642D01*
X4292Y4684D01*
X4218Y4699D01*
D02*
G37*
G36*
X3496Y4220D02*
X3419Y4205D01*
X3353Y4161D01*
X3309Y4095D01*
X3294Y4018D01*
X3302Y3976D01*
X3259Y3933D01*
X3218Y3942D01*
X3140Y3926D01*
X3075Y3883D01*
X3031Y3817D01*
X3015Y3740D01*
X3031Y3662D01*
X3075Y3596D01*
X3140Y3553D01*
X3218Y3537D01*
X3259Y3546D01*
X3302Y3503D01*
X3294Y3461D01*
X3309Y3384D01*
X3353Y3318D01*
X3419Y3274D01*
X3496Y3259D01*
X3573Y3274D01*
X3639Y3318D01*
X3683Y3384D01*
X3698Y3461D01*
X3690Y3503D01*
X3733Y3546D01*
X3774Y3537D01*
X3852Y3553D01*
X3917Y3596D01*
X3961Y3662D01*
X3977Y3740D01*
X3961Y3817D01*
X3917Y3883D01*
X3852Y3926D01*
X3774Y3942D01*
X3733Y3933D01*
X3690Y3976D01*
X3698Y4018D01*
X3683Y4095D01*
X3639Y4161D01*
X3573Y4205D01*
X3496Y4220D01*
D02*
G37*
G36*
X2715Y3936D02*
X2641Y3922D01*
X2578Y3880D01*
X2536Y3817D01*
X2521Y3743D01*
X2536Y3669D01*
X2578Y3606D01*
X2641Y3564D01*
X2715Y3549D01*
X2789Y3564D01*
X2852Y3606D01*
X2894Y3669D01*
X2908Y3743D01*
X2894Y3817D01*
X2852Y3880D01*
X2789Y3922D01*
X2715Y3936D01*
D02*
G37*
G36*
X1200Y3866D02*
X1126Y3851D01*
X1063Y3809D01*
X1021Y3746D01*
X1006Y3672D01*
X1021Y3598D01*
X1063Y3535D01*
X1126Y3493D01*
X1200Y3479D01*
X1274Y3493D01*
X1337Y3535D01*
X1379Y3598D01*
X1394Y3672D01*
X1379Y3746D01*
X1337Y3809D01*
X1274Y3851D01*
X1200Y3866D01*
D02*
G37*
G36*
X4356Y3848D02*
X4282Y3833D01*
X4219Y3791D01*
X4177Y3728D01*
X4162Y3654D01*
X4177Y3580D01*
X4219Y3517D01*
X4282Y3475D01*
X4356Y3460D01*
X4430Y3475D01*
X4493Y3517D01*
X4535Y3580D01*
X4550Y3654D01*
X4535Y3728D01*
X4493Y3791D01*
X4430Y3833D01*
X4356Y3848D01*
D02*
G37*
G36*
X5631Y3609D02*
X5557Y3594D01*
X5494Y3552D01*
X5452Y3489D01*
X5438Y3415D01*
X5452Y3341D01*
X5494Y3278D01*
X5557Y3236D01*
X5631Y3221D01*
X5705Y3236D01*
X5768Y3278D01*
X5810Y3341D01*
X5825Y3415D01*
X5810Y3489D01*
X5768Y3552D01*
X5705Y3594D01*
X5631Y3609D01*
D02*
G37*
G36*
X3625Y3024D02*
X3551Y3009D01*
X3488Y2967D01*
X3481Y2956D01*
X3419Y2998D01*
X3345Y3012D01*
X3271Y2998D01*
X3208Y2956D01*
X3166Y2893D01*
X3160Y2864D01*
X3109D01*
X3107Y2873D01*
X3065Y2936D01*
X3002Y2978D01*
X2928Y2993D01*
X2854Y2978D01*
X2791Y2936D01*
X2749Y2873D01*
X2734Y2799D01*
X2749Y2725D01*
X2791Y2662D01*
X2854Y2620D01*
X2928Y2605D01*
X3002Y2620D01*
X3065Y2662D01*
X3107Y2725D01*
X3113Y2754D01*
X3164D01*
X3166Y2745D01*
X3208Y2682D01*
X3271Y2640D01*
X3345Y2625D01*
X3419Y2640D01*
X3482Y2682D01*
X3489Y2693D01*
X3551Y2651D01*
X3625Y2637D01*
X3699Y2651D01*
X3762Y2693D01*
X3804Y2756D01*
X3819Y2830D01*
X3804Y2904D01*
X3762Y2967D01*
X3699Y3009D01*
X3625Y3024D01*
D02*
G37*
G36*
X6034Y3250D02*
X5959Y3236D01*
X5897Y3194D01*
X5855Y3131D01*
X5840Y3057D01*
X5855Y2983D01*
X5897Y2920D01*
X5959Y2878D01*
X6034Y2863D01*
X6108Y2878D01*
X6171Y2920D01*
X6213Y2983D01*
X6227Y3057D01*
X6213Y3131D01*
X6171Y3194D01*
X6108Y3236D01*
X6034Y3250D01*
D02*
G37*
G36*
X1677Y3103D02*
X1602Y3088D01*
X1540Y3046D01*
X1498Y2984D01*
X1483Y2909D01*
X1498Y2835D01*
X1540Y2772D01*
X1602Y2730D01*
X1677Y2716D01*
X1751Y2730D01*
X1814Y2772D01*
X1856Y2835D01*
X1870Y2909D01*
X1856Y2984D01*
X1814Y3046D01*
X1751Y3088D01*
X1677Y3103D01*
D02*
G37*
G36*
X4077Y3089D02*
X4003Y3075D01*
X3940Y3033D01*
X3898Y2970D01*
X3883Y2896D01*
X3898Y2822D01*
X3940Y2759D01*
X4003Y2717D01*
X4077Y2702D01*
X4151Y2717D01*
X4214Y2759D01*
X4256Y2822D01*
X4270Y2896D01*
X4256Y2970D01*
X4214Y3033D01*
X4151Y3075D01*
X4077Y3089D01*
D02*
G37*
G36*
X5929Y2721D02*
X5855Y2706D01*
X5792Y2664D01*
X5785D01*
X5722Y2706D01*
X5648Y2721D01*
X5574Y2706D01*
X5511Y2664D01*
X5469Y2601D01*
X5454Y2527D01*
X5469Y2453D01*
X5511Y2390D01*
X5574Y2348D01*
X5648Y2333D01*
X5722Y2348D01*
X5785Y2390D01*
X5792D01*
X5855Y2348D01*
X5929Y2333D01*
X6003Y2348D01*
X6066Y2390D01*
X6108Y2453D01*
X6123Y2527D01*
X6108Y2601D01*
X6066Y2664D01*
X6003Y2706D01*
X5929Y2721D01*
D02*
G37*
G36*
X6518Y2314D02*
X6444Y2300D01*
X6381Y2258D01*
X6339Y2195D01*
X6324Y2121D01*
X6339Y2047D01*
X6381Y1984D01*
X6444Y1942D01*
X6518Y1927D01*
X6592Y1942D01*
X6655Y1984D01*
X6697Y2047D01*
X6712Y2121D01*
X6697Y2195D01*
X6655Y2258D01*
X6592Y2300D01*
X6518Y2314D01*
D02*
G37*
G36*
X5870Y1749D02*
X5796Y1734D01*
X5733Y1692D01*
X5691Y1629D01*
X5676Y1555D01*
X5691Y1481D01*
X5733Y1418D01*
X5796Y1376D01*
X5870Y1361D01*
X5944Y1376D01*
X6007Y1418D01*
X6049Y1481D01*
X6064Y1555D01*
X6049Y1629D01*
X6007Y1692D01*
X5944Y1734D01*
X5870Y1749D01*
D02*
G37*
G36*
X4300Y1314D02*
X4226Y1299D01*
X4163Y1257D01*
X4121Y1194D01*
X4106Y1120D01*
X4121Y1046D01*
X4163Y983D01*
X4226Y941D01*
X4300Y926D01*
X4374Y941D01*
X4437Y983D01*
X4479Y1046D01*
X4494Y1120D01*
X4479Y1194D01*
X4437Y1257D01*
X4374Y1299D01*
X4300Y1314D01*
D02*
G37*
G36*
X906Y1303D02*
X832Y1289D01*
X769Y1247D01*
X727Y1184D01*
X712Y1110D01*
X727Y1035D01*
X769Y973D01*
X832Y931D01*
X906Y916D01*
X980Y931D01*
X1043Y973D01*
X1085Y1035D01*
X1099Y1110D01*
X1085Y1184D01*
X1043Y1247D01*
X980Y1289D01*
X906Y1303D01*
D02*
G37*
G36*
X386D02*
X312Y1289D01*
X249Y1247D01*
X207Y1184D01*
X192Y1110D01*
X207Y1035D01*
X249Y973D01*
X312Y931D01*
X386Y916D01*
X460Y931D01*
X523Y973D01*
X565Y1035D01*
X580Y1110D01*
X565Y1184D01*
X523Y1247D01*
X460Y1289D01*
X386Y1303D01*
D02*
G37*
%LPD*%
D10*
X4470Y9286D02*
X4587Y9169D01*
X4174Y9292D02*
X4179Y9286D01*
X4470D01*
X4174Y8858D02*
X4219Y8813D01*
X4570D01*
X11354Y-3097D02*
Y-3497D01*
X11621D01*
X11821Y-3230D02*
X11954D01*
X12021Y-3297D01*
Y-3497D01*
X11821D01*
X11754Y-3430D01*
X11821Y-3364D01*
X12021D01*
X12154Y-3230D02*
Y-3430D01*
X12220Y-3497D01*
X12420D01*
Y-3564D01*
X12354Y-3630D01*
X12287D01*
X12420Y-3497D02*
Y-3230D01*
X12754Y-3497D02*
X12620D01*
X12554Y-3430D01*
Y-3297D01*
X12620Y-3230D01*
X12754D01*
X12820Y-3297D01*
Y-3364D01*
X12554D01*
X12954Y-3230D02*
Y-3497D01*
Y-3364D01*
X13020Y-3297D01*
X13087Y-3230D01*
X13154D01*
X13753Y-3164D02*
X13820Y-3097D01*
X13953D01*
X14020Y-3164D01*
Y-3230D01*
X13953Y-3297D01*
X13887D01*
X13953D01*
X14020Y-3364D01*
Y-3430D01*
X13953Y-3497D01*
X13820D01*
X13753Y-3430D01*
X14153Y-3497D02*
X14420Y-3230D01*
X14553Y-3097D02*
X14820D01*
X14686D01*
Y-3497D01*
X15020D02*
X15153D01*
X15220Y-3430D01*
Y-3297D01*
X15153Y-3230D01*
X15020D01*
X14953Y-3297D01*
Y-3430D01*
X15020Y-3497D01*
X15353Y-3630D02*
Y-3230D01*
X15553D01*
X15619Y-3297D01*
Y-3430D01*
X15553Y-3497D01*
X15353D01*
X16153Y-3097D02*
Y-3497D01*
X16419D01*
X16819Y-3097D02*
X16552D01*
Y-3497D01*
X16819D01*
X16552Y-3297D02*
X16686D01*
X16952Y-3097D02*
Y-3497D01*
X17152D01*
X17219Y-3430D01*
Y-3164D01*
X17152Y-3097D01*
X16952D01*
X11354Y-16380D02*
Y-16780D01*
X11554D01*
X11621Y-16713D01*
Y-16646D01*
X11554Y-16580D01*
X11354D01*
X11554D01*
X11621Y-16513D01*
Y-16446D01*
X11554Y-16380D01*
X11354D01*
X11821Y-16780D02*
X11954D01*
X12021Y-16713D01*
Y-16580D01*
X11954Y-16513D01*
X11821D01*
X11754Y-16580D01*
Y-16713D01*
X11821Y-16780D01*
X12220Y-16513D02*
X12354D01*
X12420Y-16580D01*
Y-16780D01*
X12220D01*
X12154Y-16713D01*
X12220Y-16646D01*
X12420D01*
X12554Y-16513D02*
Y-16780D01*
Y-16646D01*
X12620Y-16580D01*
X12687Y-16513D01*
X12754D01*
X13220Y-16380D02*
Y-16780D01*
X13020D01*
X12954Y-16713D01*
Y-16580D01*
X13020Y-16513D01*
X13220D01*
X13953Y-16380D02*
X13820D01*
X13753Y-16446D01*
Y-16713D01*
X13820Y-16780D01*
X13953D01*
X14020Y-16713D01*
Y-16446D01*
X13953Y-16380D01*
X14153Y-16513D02*
Y-16713D01*
X14220Y-16780D01*
X14420D01*
Y-16513D01*
X14620Y-16446D02*
Y-16513D01*
X14553D01*
X14686D01*
X14620D01*
Y-16713D01*
X14686Y-16780D01*
X14886D02*
X15020D01*
X14953D01*
Y-16380D01*
X14886D01*
X15220Y-16780D02*
X15353D01*
X15286D01*
Y-16513D01*
X15220D01*
X15553Y-16780D02*
Y-16513D01*
X15753D01*
X15819Y-16580D01*
Y-16780D01*
X16153D02*
X16019D01*
X15953Y-16713D01*
Y-16580D01*
X16019Y-16513D01*
X16153D01*
X16219Y-16580D01*
Y-16646D01*
X15953D01*
D17*
X0Y3830D02*
G03*
X1114Y4257I100J1406D01*
G01*
X6486D02*
G03*
X7600Y3830I1014J979D01*
G01*
X3450Y8300D02*
G03*
X3300Y8450I-150J0D01*
G01*
X4150Y5550D02*
G03*
X4300Y5400I150J0D01*
G01*
Y8450D02*
G03*
X4150Y8300I0J-150D01*
G01*
X3300Y5400D02*
G03*
X3450Y5550I0J150D01*
G01*
X0Y0D02*
Y3830D01*
X7600Y0D02*
Y1725D01*
Y2515D01*
Y3830D01*
X0Y0D02*
X7600D01*
X2650Y8450D02*
Y9830D01*
X4300Y5400D02*
X5382D01*
X2650Y8450D02*
X3300D01*
X2650Y9830D02*
X4950D01*
Y8450D02*
Y9830D01*
X3450Y5550D02*
Y8300D01*
X4300Y8450D02*
X4950D01*
X5382Y5400D02*
X6486Y4257D01*
X1114D02*
X2218Y5400D01*
X4150Y5550D02*
Y8300D01*
X2218Y5400D02*
X3300D01*
D44*
X3468Y8858D02*
D03*
X4137D02*
D03*
Y9292D02*
D03*
X3468D02*
D03*
D75*
X2991Y9164D02*
X3296Y8858D01*
X3426D01*
D76*
X4270Y2050D02*
D03*
D77*
X659Y2770D02*
D03*
D78*
X2107Y4233D02*
D03*
X2358Y2904D02*
D03*
X3444Y4561D02*
D03*
X5488Y1541D02*
D03*
X2648Y1690D02*
D03*
Y2411D02*
D03*
X3909Y1690D02*
D03*
X6906Y3429D02*
D03*
X5138Y3451D02*
D03*
X4469Y3371D02*
D03*
X906Y2411D02*
D03*
X2991Y9164D02*
D03*
X3909Y2411D02*
D03*
X386D02*
D03*
Y1690D02*
D03*
X906D02*
D03*
X4570Y8813D02*
D03*
X5318Y4911D02*
D03*
X4587Y9169D02*
D03*
D79*
X3015Y8681D02*
D03*
X4590Y9469D02*
D03*
M02*
