G04*
G04 #@! TF.GenerationSoftware,Altium Limited,Altium Designer,23.1.1 (15)*
G04*
G04 Layer_Color=12429013*
%FSLAX24Y24*%
%MOIN*%
G70*
G04*
G04 #@! TF.SameCoordinates,E02B9306-6A5D-4C65-B62C-121D950AC055*
G04*
G04*
G04 #@! TF.FilePolarity,Positive*
G04*
G01*
G75*
%ADD10C,0.0100*%
%ADD14C,0.0060*%
%ADD17C,0.0005*%
%ADD86C,0.0020*%
%ADD87C,0.0027*%
%ADD88C,0.0096*%
%ADD89C,0.0053*%
%ADD90C,0.0084*%
D10*
X11354Y-16380D02*
Y-16780D01*
X11554D01*
X11621Y-16713D01*
Y-16646D01*
X11554Y-16580D01*
X11354D01*
X11554D01*
X11621Y-16513D01*
Y-16446D01*
X11554Y-16380D01*
X11354D01*
X11821Y-16780D02*
X11954D01*
X12021Y-16713D01*
Y-16580D01*
X11954Y-16513D01*
X11821D01*
X11754Y-16580D01*
Y-16713D01*
X11821Y-16780D01*
X12220Y-16513D02*
X12354D01*
X12420Y-16580D01*
Y-16780D01*
X12220D01*
X12154Y-16713D01*
X12220Y-16646D01*
X12420D01*
X12554Y-16513D02*
Y-16780D01*
Y-16646D01*
X12620Y-16580D01*
X12687Y-16513D01*
X12754D01*
X13220Y-16380D02*
Y-16780D01*
X13020D01*
X12954Y-16713D01*
Y-16580D01*
X13020Y-16513D01*
X13220D01*
X13953Y-16380D02*
X13820D01*
X13753Y-16446D01*
Y-16713D01*
X13820Y-16780D01*
X13953D01*
X14020Y-16713D01*
Y-16446D01*
X13953Y-16380D01*
X14153Y-16513D02*
Y-16713D01*
X14220Y-16780D01*
X14420D01*
Y-16513D01*
X14620Y-16446D02*
Y-16513D01*
X14553D01*
X14686D01*
X14620D01*
Y-16713D01*
X14686Y-16780D01*
X14886D02*
X15020D01*
X14953D01*
Y-16380D01*
X14886D01*
X15220Y-16780D02*
X15353D01*
X15286D01*
Y-16513D01*
X15220D01*
X15553Y-16780D02*
Y-16513D01*
X15753D01*
X15819Y-16580D01*
Y-16780D01*
X16153D02*
X16019D01*
X15953Y-16713D01*
Y-16580D01*
X16019Y-16513D01*
X16153D01*
X16219Y-16580D01*
Y-16646D01*
X15953D01*
X23676Y-18583D02*
Y-19182D01*
Y-18882D01*
X24076D01*
Y-18583D01*
Y-19182D01*
X24376D02*
X24576D01*
X24676Y-19082D01*
Y-18882D01*
X24576Y-18783D01*
X24376D01*
X24276Y-18882D01*
Y-19082D01*
X24376Y-19182D01*
X24876D02*
X25076D01*
X24976D01*
Y-18583D01*
X24876D01*
X25676Y-19182D02*
X25476D01*
X25376Y-19082D01*
Y-18882D01*
X25476Y-18783D01*
X25676D01*
X25776Y-18882D01*
Y-18982D01*
X25376D01*
X26675Y-18683D02*
Y-18783D01*
X26575D01*
X26775D01*
X26675D01*
Y-19082D01*
X26775Y-19182D01*
X27175D02*
X27375D01*
X27475Y-19082D01*
Y-18882D01*
X27375Y-18783D01*
X27175D01*
X27075Y-18882D01*
Y-19082D01*
X27175Y-19182D01*
X27675D02*
X27875D01*
X27775D01*
Y-18583D01*
X27675D01*
X28475Y-19182D02*
X28275D01*
X28175Y-19082D01*
Y-18882D01*
X28275Y-18783D01*
X28475D01*
X28575Y-18882D01*
Y-18982D01*
X28175D01*
X28775Y-18783D02*
Y-19182D01*
Y-18982D01*
X28875Y-18882D01*
X28975Y-18783D01*
X29075D01*
X29474D02*
X29674D01*
X29774Y-18882D01*
Y-19182D01*
X29474D01*
X29374Y-19082D01*
X29474Y-18982D01*
X29774D01*
X29974Y-19182D02*
Y-18783D01*
X30274D01*
X30374Y-18882D01*
Y-19182D01*
X30974Y-18783D02*
X30674D01*
X30574Y-18882D01*
Y-19082D01*
X30674Y-19182D01*
X30974D01*
X31474D02*
X31274D01*
X31174Y-19082D01*
Y-18882D01*
X31274Y-18783D01*
X31474D01*
X31574Y-18882D01*
Y-18982D01*
X31174D01*
X31774Y-18783D02*
X31874D01*
Y-18882D01*
X31774D01*
Y-18783D01*
Y-19082D02*
X31874D01*
Y-19182D01*
X31774D01*
Y-19082D01*
X32873Y-18882D02*
X33273D01*
X33073Y-18683D02*
Y-19082D01*
X33473Y-19182D02*
X33873Y-18783D01*
X34073Y-18882D02*
X34473D01*
X34673Y-19182D02*
Y-19082D01*
X34773D01*
Y-19182D01*
X34673D01*
X35173Y-18683D02*
X35273Y-18583D01*
X35472D01*
X35572Y-18683D01*
Y-19082D01*
X35472Y-19182D01*
X35273D01*
X35173Y-19082D01*
Y-18683D01*
X35772Y-18583D02*
X36172D01*
Y-18683D01*
X35772Y-19082D01*
Y-19182D01*
X36772Y-18583D02*
X36572Y-18683D01*
X36372Y-18882D01*
Y-19082D01*
X36472Y-19182D01*
X36672D01*
X36772Y-19082D01*
Y-18982D01*
X36672Y-18882D01*
X36372D01*
X37772Y-19182D02*
X37572Y-18982D01*
Y-18783D01*
X37772Y-18583D01*
X38471D02*
Y-19182D01*
X38172D01*
X38072Y-19082D01*
Y-18882D01*
X38172Y-18783D01*
X38471D01*
X38671D02*
Y-19182D01*
Y-18982D01*
X38771Y-18882D01*
X38871Y-18783D01*
X38971D01*
X39271Y-19182D02*
X39471D01*
X39371D01*
Y-18783D01*
X39271D01*
X39771Y-19182D02*
X39971D01*
X39871D01*
Y-18583D01*
X39771D01*
X40271Y-19182D02*
X40471D01*
X40371D01*
Y-18583D01*
X40271D01*
X41371Y-19382D02*
Y-18783D01*
X41670D01*
X41770Y-18882D01*
Y-19082D01*
X41670Y-19182D01*
X41371D01*
X42070D02*
X42270D01*
X42370Y-19082D01*
Y-18882D01*
X42270Y-18783D01*
X42070D01*
X41970Y-18882D01*
Y-19082D01*
X42070Y-19182D01*
X42570D02*
X42870D01*
X42970Y-19082D01*
X42870Y-18982D01*
X42670D01*
X42570Y-18882D01*
X42670Y-18783D01*
X42970D01*
X43170Y-19182D02*
X43370D01*
X43270D01*
Y-18783D01*
X43170D01*
X43770Y-18683D02*
Y-18783D01*
X43670D01*
X43870D01*
X43770D01*
Y-19082D01*
X43870Y-19182D01*
X44170D02*
X44370D01*
X44270D01*
Y-18783D01*
X44170D01*
X44769Y-19182D02*
X44969D01*
X45069Y-19082D01*
Y-18882D01*
X44969Y-18783D01*
X44769D01*
X44669Y-18882D01*
Y-19082D01*
X44769Y-19182D01*
X45269D02*
Y-18783D01*
X45569D01*
X45669Y-18882D01*
Y-19182D01*
X45869D02*
X46069Y-18982D01*
Y-18783D01*
X45869Y-18583D01*
X46369Y-18882D02*
Y-18783D01*
X46469D01*
Y-18882D01*
X46369D01*
Y-19082D02*
X46469D01*
Y-19182D01*
X46369Y-19282D01*
X46469Y-19182D02*
X46369D01*
Y-19082D01*
X47868Y-18583D02*
Y-19182D01*
X47569D01*
X47469Y-19082D01*
Y-18882D01*
X47569Y-18783D01*
X47868D01*
X48068Y-19182D02*
X48268D01*
X48168D01*
Y-18783D01*
X48068D01*
X48668D02*
X48868D01*
X48968Y-18882D01*
Y-19182D01*
X48668D01*
X48568Y-19082D01*
X48668Y-18982D01*
X48968D01*
X49168Y-19182D02*
Y-18783D01*
X49268D01*
X49368Y-18882D01*
Y-19182D01*
Y-18882D01*
X49468Y-18783D01*
X49568Y-18882D01*
Y-19182D01*
X50068D02*
X49868D01*
X49768Y-19082D01*
Y-18882D01*
X49868Y-18783D01*
X50068D01*
X50168Y-18882D01*
Y-18982D01*
X49768D01*
X50468Y-18683D02*
Y-18783D01*
X50368D01*
X50568D01*
X50468D01*
Y-19082D01*
X50568Y-19182D01*
X51167D02*
X50967D01*
X50867Y-19082D01*
Y-18882D01*
X50967Y-18783D01*
X51167D01*
X51267Y-18882D01*
Y-18982D01*
X50867D01*
X51467Y-18783D02*
Y-19182D01*
Y-18982D01*
X51567Y-18882D01*
X51667Y-18783D01*
X51767D01*
X52667Y-18882D02*
X53067D01*
X52867Y-18683D02*
Y-19082D01*
X53267Y-19182D02*
X53667Y-18783D01*
X53867Y-18882D02*
X54266D01*
X54466Y-19182D02*
Y-19082D01*
X54566D01*
Y-19182D01*
X54466D01*
X54966Y-18683D02*
X55066Y-18583D01*
X55266D01*
X55366Y-18683D01*
Y-19082D01*
X55266Y-19182D01*
X55066D01*
X54966Y-19082D01*
Y-18683D01*
X55566Y-18583D02*
X55966D01*
Y-18683D01*
X55566Y-19082D01*
Y-19182D01*
X56566Y-18583D02*
X56366Y-18683D01*
X56166Y-18882D01*
Y-19082D01*
X56266Y-19182D01*
X56466D01*
X56566Y-19082D01*
Y-18982D01*
X56466Y-18882D01*
X56166D01*
X57565Y-19182D02*
X57365Y-18982D01*
Y-18783D01*
X57565Y-18583D01*
X57865Y-19182D02*
Y-18583D01*
X58165D01*
X58265Y-18683D01*
Y-18882D01*
X58165Y-18982D01*
X57865D01*
X58465Y-18583D02*
X58865D01*
X58665D01*
Y-19182D01*
X59065Y-18583D02*
Y-19182D01*
Y-18882D01*
X59465D01*
Y-18583D01*
Y-19182D01*
X59665D02*
X59865Y-18982D01*
Y-18783D01*
X59665Y-18583D01*
X60164Y-19182D02*
Y-19082D01*
X60264D01*
Y-19182D01*
X60164D01*
X11354Y-10935D02*
Y-11335D01*
X11554D01*
X11621Y-11268D01*
Y-11001D01*
X11554Y-10935D01*
X11354D01*
X11754Y-11068D02*
Y-11335D01*
Y-11201D01*
X11821Y-11135D01*
X11887Y-11068D01*
X11954D01*
X12154Y-11335D02*
X12287D01*
X12220D01*
Y-11068D01*
X12154D01*
X12487Y-11335D02*
X12620D01*
X12554D01*
Y-10935D01*
X12487D01*
X12820Y-11335D02*
X12954D01*
X12887D01*
Y-10935D01*
X12820D01*
X13154D02*
Y-11335D01*
X13353D01*
X13420Y-11268D01*
Y-11001D01*
X13353Y-10935D01*
X13154D01*
X13553Y-11068D02*
Y-11335D01*
Y-11201D01*
X13620Y-11135D01*
X13687Y-11068D01*
X13753D01*
X14020D02*
X14153D01*
X14220Y-11135D01*
Y-11335D01*
X14020D01*
X13953Y-11268D01*
X14020Y-11201D01*
X14220D01*
X14353Y-11068D02*
Y-11268D01*
X14420Y-11335D01*
X14486Y-11268D01*
X14553Y-11335D01*
X14620Y-11268D01*
Y-11068D01*
X14753Y-11335D02*
X14886D01*
X14820D01*
Y-11068D01*
X14753D01*
X15086Y-11335D02*
Y-11068D01*
X15286D01*
X15353Y-11135D01*
Y-11335D01*
X15619Y-11468D02*
X15686D01*
X15753Y-11401D01*
Y-11068D01*
X15553D01*
X15486Y-11135D01*
Y-11268D01*
X15553Y-11335D01*
X15753D01*
D14*
X29873Y-21999D02*
Y-21599D01*
X29673Y-21799D01*
X29939D01*
X30273Y-21999D02*
Y-21599D01*
X30073Y-21799D01*
X30339D01*
X34279Y-21665D02*
X34346Y-21599D01*
X34479D01*
X34546Y-21665D01*
Y-21732D01*
X34479Y-21799D01*
X34546Y-21865D01*
Y-21932D01*
X34479Y-21999D01*
X34346D01*
X34279Y-21932D01*
Y-21865D01*
X34346Y-21799D01*
X34279Y-21732D01*
Y-21665D01*
X34346Y-21799D02*
X34479D01*
X34679Y-21999D02*
Y-21732D01*
X34746D01*
X34813Y-21799D01*
Y-21999D01*
Y-21799D01*
X34879Y-21732D01*
X34946Y-21799D01*
Y-21999D01*
X35079D02*
X35212D01*
X35146D01*
Y-21732D01*
X35079D01*
X35412Y-21999D02*
X35546D01*
X35479D01*
Y-21599D01*
X35412D01*
X36279Y-21999D02*
X36146Y-21865D01*
Y-21732D01*
X36279Y-21599D01*
X36479Y-21665D02*
X36545Y-21599D01*
X36679D01*
X36745Y-21665D01*
Y-21932D01*
X36679Y-21999D01*
X36545D01*
X36479Y-21932D01*
Y-21665D01*
X36879Y-21999D02*
Y-21932D01*
X36945D01*
Y-21999D01*
X36879D01*
X37478D02*
X37212D01*
X37478Y-21732D01*
Y-21665D01*
X37412Y-21599D01*
X37278D01*
X37212Y-21665D01*
X37612D02*
X37678Y-21599D01*
X37812D01*
X37878Y-21665D01*
Y-21932D01*
X37812Y-21999D01*
X37678D01*
X37612Y-21932D01*
Y-21665D01*
X38012D02*
X38078Y-21599D01*
X38212D01*
X38278Y-21665D01*
Y-21732D01*
X38212Y-21799D01*
X38145D01*
X38212D01*
X38278Y-21865D01*
Y-21932D01*
X38212Y-21999D01*
X38078D01*
X38012Y-21932D01*
X38678Y-21999D02*
X38411D01*
X38678Y-21732D01*
Y-21665D01*
X38611Y-21599D01*
X38478D01*
X38411Y-21665D01*
X38811Y-21999D02*
Y-21732D01*
X38878D01*
X38945Y-21799D01*
Y-21999D01*
Y-21799D01*
X39011Y-21732D01*
X39078Y-21799D01*
Y-21999D01*
X39211D02*
Y-21732D01*
X39278D01*
X39344Y-21799D01*
Y-21999D01*
Y-21799D01*
X39411Y-21732D01*
X39478Y-21799D01*
Y-21999D01*
X39611D02*
X39744Y-21865D01*
Y-21732D01*
X39611Y-21599D01*
X58816Y-21999D02*
Y-21599D01*
X59016D01*
X59083Y-21665D01*
Y-21799D01*
X59016Y-21865D01*
X58816D01*
X59216Y-21599D02*
X59483D01*
X59349D01*
Y-21999D01*
X59616Y-21599D02*
Y-21999D01*
Y-21799D01*
X59883D01*
Y-21599D01*
Y-21999D01*
X62143D02*
Y-21599D01*
X62343D01*
X62410Y-21665D01*
Y-21799D01*
X62343Y-21865D01*
X62143D01*
X62277D02*
X62410Y-21999D01*
X62610D02*
X62743D01*
X62810Y-21932D01*
Y-21799D01*
X62743Y-21732D01*
X62610D01*
X62543Y-21799D01*
Y-21932D01*
X62610Y-21999D01*
X62943Y-21732D02*
Y-21932D01*
X63010Y-21999D01*
X63210D01*
Y-21732D01*
X63343Y-21999D02*
Y-21732D01*
X63543D01*
X63610Y-21799D01*
Y-21999D01*
X64010Y-21599D02*
Y-21999D01*
X63810D01*
X63743Y-21932D01*
Y-21799D01*
X63810Y-21732D01*
X64010D01*
X29873Y-22799D02*
Y-22399D01*
X29673Y-22599D01*
X29939D01*
X34279Y-22799D02*
X34413D01*
X34346D01*
Y-22399D01*
X34279Y-22465D01*
X34613Y-22799D02*
X34746D01*
X34679D01*
Y-22399D01*
X34613Y-22465D01*
X34946Y-22799D02*
Y-22732D01*
X35013D01*
Y-22799D01*
X34946D01*
X35279Y-22465D02*
X35346Y-22399D01*
X35479D01*
X35546Y-22465D01*
Y-22532D01*
X35479Y-22599D01*
X35546Y-22665D01*
Y-22732D01*
X35479Y-22799D01*
X35346D01*
X35279Y-22732D01*
Y-22665D01*
X35346Y-22599D01*
X35279Y-22532D01*
Y-22465D01*
X35346Y-22599D02*
X35479D01*
X35679Y-22799D02*
X35812D01*
X35746D01*
Y-22399D01*
X35679Y-22465D01*
X36012Y-22799D02*
X36146D01*
X36079D01*
Y-22399D01*
X36012Y-22465D01*
X36345Y-22799D02*
Y-22532D01*
X36412D01*
X36479Y-22599D01*
Y-22799D01*
Y-22599D01*
X36545Y-22532D01*
X36612Y-22599D01*
Y-22799D01*
X36745D02*
X36879D01*
X36812D01*
Y-22532D01*
X36745D01*
X37079Y-22799D02*
X37212D01*
X37145D01*
Y-22399D01*
X37079D01*
X37945Y-22799D02*
X37812Y-22665D01*
Y-22532D01*
X37945Y-22399D01*
X38145Y-22465D02*
X38212Y-22399D01*
X38345D01*
X38411Y-22465D01*
Y-22732D01*
X38345Y-22799D01*
X38212D01*
X38145Y-22732D01*
Y-22465D01*
X38545Y-22799D02*
Y-22732D01*
X38611D01*
Y-22799D01*
X38545D01*
X38878Y-22465D02*
X38945Y-22399D01*
X39078D01*
X39145Y-22465D01*
Y-22532D01*
X39078Y-22599D01*
X39011D01*
X39078D01*
X39145Y-22665D01*
Y-22732D01*
X39078Y-22799D01*
X38945D01*
X38878Y-22732D01*
X39278Y-22799D02*
Y-22532D01*
X39344D01*
X39411Y-22599D01*
Y-22799D01*
Y-22599D01*
X39478Y-22532D01*
X39544Y-22599D01*
Y-22799D01*
X39678D02*
Y-22532D01*
X39744D01*
X39811Y-22599D01*
Y-22799D01*
Y-22599D01*
X39878Y-22532D01*
X39944Y-22599D01*
Y-22799D01*
X40078D02*
X40211Y-22665D01*
Y-22532D01*
X40078Y-22399D01*
X58816Y-22799D02*
Y-22399D01*
X59016D01*
X59083Y-22465D01*
Y-22599D01*
X59016Y-22665D01*
X58816D01*
X59216Y-22399D02*
X59483D01*
X59349D01*
Y-22799D01*
X59616Y-22399D02*
Y-22799D01*
Y-22599D01*
X59883D01*
Y-22399D01*
Y-22799D01*
X62143D02*
Y-22399D01*
X62343D01*
X62410Y-22465D01*
Y-22599D01*
X62343Y-22665D01*
X62143D01*
X62277D02*
X62410Y-22799D01*
X62610D02*
X62743D01*
X62810Y-22732D01*
Y-22599D01*
X62743Y-22532D01*
X62610D01*
X62543Y-22599D01*
Y-22732D01*
X62610Y-22799D01*
X62943Y-22532D02*
Y-22732D01*
X63010Y-22799D01*
X63210D01*
Y-22532D01*
X63343Y-22799D02*
Y-22532D01*
X63543D01*
X63610Y-22599D01*
Y-22799D01*
X64010Y-22399D02*
Y-22799D01*
X63810D01*
X63743Y-22732D01*
Y-22599D01*
X63810Y-22532D01*
X64010D01*
X29939Y-23599D02*
X29673D01*
X29939Y-23332D01*
Y-23265D01*
X29873Y-23199D01*
X29739D01*
X29673Y-23265D01*
X34279D02*
X34346Y-23199D01*
X34479D01*
X34546Y-23265D01*
Y-23332D01*
X34479Y-23399D01*
X34413D01*
X34479D01*
X34546Y-23465D01*
Y-23532D01*
X34479Y-23599D01*
X34346D01*
X34279Y-23532D01*
X34946Y-23199D02*
X34679D01*
Y-23399D01*
X34813Y-23332D01*
X34879D01*
X34946Y-23399D01*
Y-23532D01*
X34879Y-23599D01*
X34746D01*
X34679Y-23532D01*
X35079Y-23599D02*
Y-23332D01*
X35146D01*
X35212Y-23399D01*
Y-23599D01*
Y-23399D01*
X35279Y-23332D01*
X35346Y-23399D01*
Y-23599D01*
X35479D02*
X35612D01*
X35546D01*
Y-23332D01*
X35479D01*
X35812Y-23599D02*
X35946D01*
X35879D01*
Y-23199D01*
X35812D01*
X36679Y-23599D02*
X36545Y-23465D01*
Y-23332D01*
X36679Y-23199D01*
X36879Y-23265D02*
X36945Y-23199D01*
X37079D01*
X37145Y-23265D01*
Y-23532D01*
X37079Y-23599D01*
X36945D01*
X36879Y-23532D01*
Y-23265D01*
X37278Y-23599D02*
Y-23532D01*
X37345D01*
Y-23599D01*
X37278D01*
X37612Y-23265D02*
X37678Y-23199D01*
X37812D01*
X37878Y-23265D01*
Y-23332D01*
X37812Y-23399D01*
X37878Y-23465D01*
Y-23532D01*
X37812Y-23599D01*
X37678D01*
X37612Y-23532D01*
Y-23465D01*
X37678Y-23399D01*
X37612Y-23332D01*
Y-23265D01*
X37678Y-23399D02*
X37812D01*
X38012Y-23265D02*
X38078Y-23199D01*
X38212D01*
X38278Y-23265D01*
Y-23332D01*
X38212Y-23399D01*
X38278Y-23465D01*
Y-23532D01*
X38212Y-23599D01*
X38078D01*
X38012Y-23532D01*
Y-23465D01*
X38078Y-23399D01*
X38012Y-23332D01*
Y-23265D01*
X38078Y-23399D02*
X38212D01*
X38411Y-23532D02*
X38478Y-23599D01*
X38611D01*
X38678Y-23532D01*
Y-23265D01*
X38611Y-23199D01*
X38478D01*
X38411Y-23265D01*
Y-23332D01*
X38478Y-23399D01*
X38678D01*
X38811Y-23599D02*
Y-23332D01*
X38878D01*
X38945Y-23399D01*
Y-23599D01*
Y-23399D01*
X39011Y-23332D01*
X39078Y-23399D01*
Y-23599D01*
X39211D02*
Y-23332D01*
X39278D01*
X39344Y-23399D01*
Y-23599D01*
Y-23399D01*
X39411Y-23332D01*
X39478Y-23399D01*
Y-23599D01*
X39611D02*
X39744Y-23465D01*
Y-23332D01*
X39611Y-23199D01*
X58816Y-23599D02*
Y-23199D01*
X59083Y-23599D01*
Y-23199D01*
X59216Y-23599D02*
Y-23199D01*
X59416D01*
X59483Y-23265D01*
Y-23399D01*
X59416Y-23465D01*
X59216D01*
X59616Y-23199D02*
X59883D01*
X59749D01*
Y-23599D01*
X60016Y-23199D02*
Y-23599D01*
Y-23399D01*
X60282D01*
Y-23199D01*
Y-23599D01*
X62143D02*
Y-23199D01*
X62343D01*
X62410Y-23265D01*
Y-23399D01*
X62343Y-23465D01*
X62143D01*
X62277D02*
X62410Y-23599D01*
X62610D02*
X62743D01*
X62810Y-23532D01*
Y-23399D01*
X62743Y-23332D01*
X62610D01*
X62543Y-23399D01*
Y-23532D01*
X62610Y-23599D01*
X62943Y-23332D02*
Y-23532D01*
X63010Y-23599D01*
X63210D01*
Y-23332D01*
X63343Y-23599D02*
Y-23332D01*
X63543D01*
X63610Y-23399D01*
Y-23599D01*
X64010Y-23199D02*
Y-23599D01*
X63810D01*
X63743Y-23532D01*
Y-23399D01*
X63810Y-23332D01*
X64010D01*
X29939Y-24399D02*
X29673D01*
X29939Y-24132D01*
Y-24065D01*
X29873Y-23999D01*
X29739D01*
X29673Y-24065D01*
X34279Y-24399D02*
X34413D01*
X34346D01*
Y-23999D01*
X34279Y-24065D01*
X34613Y-23999D02*
X34879D01*
Y-24065D01*
X34613Y-24332D01*
Y-24399D01*
X35013D02*
Y-24132D01*
X35079D01*
X35146Y-24199D01*
Y-24399D01*
Y-24199D01*
X35212Y-24132D01*
X35279Y-24199D01*
Y-24399D01*
X35412D02*
X35546D01*
X35479D01*
Y-24132D01*
X35412D01*
X35746Y-24399D02*
X35879D01*
X35812D01*
Y-23999D01*
X35746D01*
X36612Y-24399D02*
X36479Y-24265D01*
Y-24132D01*
X36612Y-23999D01*
X36812Y-24065D02*
X36879Y-23999D01*
X37012D01*
X37079Y-24065D01*
Y-24332D01*
X37012Y-24399D01*
X36879D01*
X36812Y-24332D01*
Y-24065D01*
X37212Y-24399D02*
Y-24332D01*
X37278D01*
Y-24399D01*
X37212D01*
X37745D02*
Y-23999D01*
X37545Y-24199D01*
X37812D01*
X37945Y-24065D02*
X38012Y-23999D01*
X38145D01*
X38212Y-24065D01*
Y-24132D01*
X38145Y-24199D01*
X38078D01*
X38145D01*
X38212Y-24265D01*
Y-24332D01*
X38145Y-24399D01*
X38012D01*
X37945Y-24332D01*
X38345Y-24399D02*
X38478D01*
X38411D01*
Y-23999D01*
X38345Y-24065D01*
X38678D02*
X38745Y-23999D01*
X38878D01*
X38945Y-24065D01*
Y-24132D01*
X38878Y-24199D01*
X38945Y-24265D01*
Y-24332D01*
X38878Y-24399D01*
X38745D01*
X38678Y-24332D01*
Y-24265D01*
X38745Y-24199D01*
X38678Y-24132D01*
Y-24065D01*
X38745Y-24199D02*
X38878D01*
X39078Y-24399D02*
Y-24132D01*
X39145D01*
X39211Y-24199D01*
Y-24399D01*
Y-24199D01*
X39278Y-24132D01*
X39344Y-24199D01*
Y-24399D01*
X39478D02*
Y-24132D01*
X39544D01*
X39611Y-24199D01*
Y-24399D01*
Y-24199D01*
X39678Y-24132D01*
X39744Y-24199D01*
Y-24399D01*
X39878D02*
X40011Y-24265D01*
Y-24132D01*
X39878Y-23999D01*
X43471D02*
X43338Y-24065D01*
X43205Y-24199D01*
Y-24332D01*
X43271Y-24399D01*
X43405D01*
X43471Y-24332D01*
Y-24265D01*
X43405Y-24199D01*
X43205D01*
X43871Y-24399D02*
X43605D01*
X43871Y-24132D01*
Y-24065D01*
X43805Y-23999D01*
X43671D01*
X43605Y-24065D01*
X44005Y-24399D02*
Y-24132D01*
X44071D01*
X44138Y-24199D01*
Y-24399D01*
Y-24199D01*
X44205Y-24132D01*
X44271Y-24199D01*
Y-24399D01*
X44404D02*
X44538D01*
X44471D01*
Y-24132D01*
X44404D01*
X44738Y-24399D02*
X44871D01*
X44804D01*
Y-23999D01*
X44738D01*
X45604Y-24399D02*
X45471Y-24265D01*
Y-24132D01*
X45604Y-23999D01*
X45804Y-24399D02*
X45937D01*
X45871D01*
Y-23999D01*
X45804Y-24065D01*
X46137Y-24399D02*
Y-24332D01*
X46204D01*
Y-24399D01*
X46137D01*
X46737Y-23999D02*
X46470D01*
Y-24199D01*
X46604Y-24132D01*
X46670D01*
X46737Y-24199D01*
Y-24332D01*
X46670Y-24399D01*
X46537D01*
X46470Y-24332D01*
X46870Y-23999D02*
X47137D01*
Y-24065D01*
X46870Y-24332D01*
Y-24399D01*
X47470D02*
Y-23999D01*
X47270Y-24199D01*
X47537D01*
X47670Y-24065D02*
X47737Y-23999D01*
X47870D01*
X47937Y-24065D01*
Y-24132D01*
X47870Y-24199D01*
X47937Y-24265D01*
Y-24332D01*
X47870Y-24399D01*
X47737D01*
X47670Y-24332D01*
Y-24265D01*
X47737Y-24199D01*
X47670Y-24132D01*
Y-24065D01*
X47737Y-24199D02*
X47870D01*
X48070Y-24399D02*
Y-24132D01*
X48137D01*
X48203Y-24199D01*
Y-24399D01*
Y-24199D01*
X48270Y-24132D01*
X48337Y-24199D01*
Y-24399D01*
X48470D02*
Y-24132D01*
X48536D01*
X48603Y-24199D01*
Y-24399D01*
Y-24199D01*
X48670Y-24132D01*
X48736Y-24199D01*
Y-24399D01*
X48870D02*
X49003Y-24265D01*
Y-24132D01*
X48870Y-23999D01*
X50971Y-24399D02*
Y-23999D01*
X50771Y-24199D01*
X51037D01*
X51437Y-23999D02*
X51171D01*
Y-24199D01*
X51304Y-24132D01*
X51370D01*
X51437Y-24199D01*
Y-24332D01*
X51370Y-24399D01*
X51237D01*
X51171Y-24332D01*
X51570Y-24399D02*
Y-24132D01*
X51637D01*
X51704Y-24199D01*
Y-24399D01*
Y-24199D01*
X51770Y-24132D01*
X51837Y-24199D01*
Y-24399D01*
X51970D02*
X52104D01*
X52037D01*
Y-24132D01*
X51970D01*
X52303Y-24399D02*
X52437D01*
X52370D01*
Y-23999D01*
X52303D01*
X53170Y-24399D02*
X53037Y-24265D01*
Y-24132D01*
X53170Y-23999D01*
X53370Y-24399D02*
X53503D01*
X53436D01*
Y-23999D01*
X53370Y-24065D01*
X53703Y-24399D02*
Y-24332D01*
X53770D01*
Y-24399D01*
X53703D01*
X54036D02*
X54170D01*
X54103D01*
Y-23999D01*
X54036Y-24065D01*
X54569Y-24399D02*
Y-23999D01*
X54369Y-24199D01*
X54636D01*
X54769Y-24065D02*
X54836Y-23999D01*
X54969D01*
X55036Y-24065D01*
Y-24132D01*
X54969Y-24199D01*
X54903D01*
X54969D01*
X55036Y-24265D01*
Y-24332D01*
X54969Y-24399D01*
X54836D01*
X54769Y-24332D01*
X55169Y-24399D02*
Y-24132D01*
X55236D01*
X55303Y-24199D01*
Y-24399D01*
Y-24199D01*
X55369Y-24132D01*
X55436Y-24199D01*
Y-24399D01*
X55569D02*
Y-24132D01*
X55636D01*
X55702Y-24199D01*
Y-24399D01*
Y-24199D01*
X55769Y-24132D01*
X55836Y-24199D01*
Y-24399D01*
X55969D02*
X56102Y-24265D01*
Y-24132D01*
X55969Y-23999D01*
X58816Y-24399D02*
Y-23999D01*
X59016D01*
X59083Y-24065D01*
Y-24199D01*
X59016Y-24265D01*
X58816D01*
X59216Y-23999D02*
X59483D01*
X59349D01*
Y-24399D01*
X59616Y-23999D02*
Y-24399D01*
Y-24199D01*
X59883D01*
Y-23999D01*
Y-24399D01*
X62410Y-24065D02*
X62343Y-23999D01*
X62210D01*
X62143Y-24065D01*
Y-24132D01*
X62210Y-24199D01*
X62343D01*
X62410Y-24265D01*
Y-24332D01*
X62343Y-24399D01*
X62210D01*
X62143Y-24332D01*
X62543Y-24399D02*
X62677D01*
X62610D01*
Y-23999D01*
X62543D01*
X62943Y-24399D02*
X63076D01*
X63143Y-24332D01*
Y-24199D01*
X63076Y-24132D01*
X62943D01*
X62877Y-24199D01*
Y-24332D01*
X62943Y-24399D01*
X63343Y-24065D02*
Y-24132D01*
X63276D01*
X63410D01*
X63343D01*
Y-24332D01*
X63410Y-24399D01*
X29939Y-24799D02*
X29673D01*
Y-24999D01*
X29806Y-24932D01*
X29873D01*
X29939Y-24999D01*
Y-25132D01*
X29873Y-25199D01*
X29739D01*
X29673Y-25132D01*
X30339Y-25199D02*
X30073D01*
X30339Y-24932D01*
Y-24865D01*
X30273Y-24799D01*
X30139D01*
X30073Y-24865D01*
X31035Y-24799D02*
X31302D01*
X31168D01*
Y-25199D01*
X31502D02*
X31635D01*
X31702Y-25132D01*
Y-24999D01*
X31635Y-24932D01*
X31502D01*
X31435Y-24999D01*
Y-25132D01*
X31502Y-25199D01*
X31902Y-24865D02*
Y-24932D01*
X31835D01*
X31968D01*
X31902D01*
Y-25132D01*
X31968Y-25199D01*
X32235Y-24932D02*
X32368D01*
X32435Y-24999D01*
Y-25199D01*
X32235D01*
X32168Y-25132D01*
X32235Y-25065D01*
X32435D01*
X32568Y-25199D02*
X32701D01*
X32635D01*
Y-24799D01*
X32568D01*
X40120Y-25865D02*
X40387D01*
X40120Y-25732D02*
X40387D01*
X41186Y-25665D02*
X41120Y-25599D01*
X40986D01*
X40920Y-25665D01*
Y-25932D01*
X40986Y-25999D01*
X41120D01*
X41186Y-25932D01*
X41386Y-25732D02*
X41520D01*
X41586Y-25799D01*
Y-25999D01*
X41386D01*
X41320Y-25932D01*
X41386Y-25865D01*
X41586D01*
X41720Y-25999D02*
X41853D01*
X41786D01*
Y-25599D01*
X41720D01*
X42319Y-25732D02*
X42119D01*
X42053Y-25799D01*
Y-25932D01*
X42119Y-25999D01*
X42319D01*
X42453Y-25732D02*
Y-25932D01*
X42519Y-25999D01*
X42719D01*
Y-25732D01*
X42853Y-25999D02*
X42986D01*
X42919D01*
Y-25599D01*
X42853D01*
X43252Y-25732D02*
X43386D01*
X43452Y-25799D01*
Y-25999D01*
X43252D01*
X43186Y-25932D01*
X43252Y-25865D01*
X43452D01*
X43652Y-25665D02*
Y-25732D01*
X43586D01*
X43719D01*
X43652D01*
Y-25932D01*
X43719Y-25999D01*
X44119D02*
X43985D01*
X43919Y-25932D01*
Y-25799D01*
X43985Y-25732D01*
X44119D01*
X44185Y-25799D01*
Y-25865D01*
X43919D01*
X44585Y-25599D02*
Y-25999D01*
X44385D01*
X44319Y-25932D01*
Y-25799D01*
X44385Y-25732D01*
X44585D01*
X45185Y-25999D02*
Y-25665D01*
Y-25799D01*
X45118D01*
X45252D01*
X45185D01*
Y-25665D01*
X45252Y-25599D01*
X45452Y-25732D02*
Y-25999D01*
Y-25865D01*
X45518Y-25799D01*
X45585Y-25732D01*
X45652D01*
X45918Y-25999D02*
X46051D01*
X46118Y-25932D01*
Y-25799D01*
X46051Y-25732D01*
X45918D01*
X45852Y-25799D01*
Y-25932D01*
X45918Y-25999D01*
X46251D02*
Y-25732D01*
X46318D01*
X46385Y-25799D01*
Y-25999D01*
Y-25799D01*
X46451Y-25732D01*
X46518Y-25799D01*
Y-25999D01*
X47118Y-25665D02*
Y-25732D01*
X47051D01*
X47184D01*
X47118D01*
Y-25932D01*
X47184Y-25999D01*
X47451D02*
X47584D01*
X47651Y-25932D01*
Y-25799D01*
X47584Y-25732D01*
X47451D01*
X47384Y-25799D01*
Y-25932D01*
X47451Y-25999D01*
X47851D02*
X47984D01*
X48051Y-25932D01*
Y-25799D01*
X47984Y-25732D01*
X47851D01*
X47784Y-25799D01*
Y-25932D01*
X47851Y-25999D01*
X48184D02*
X48317D01*
X48251D01*
Y-25599D01*
X48184D01*
X48917Y-25999D02*
X49117D01*
X49184Y-25932D01*
X49117Y-25865D01*
X48984D01*
X48917Y-25799D01*
X48984Y-25732D01*
X49184D01*
X49384Y-25665D02*
Y-25732D01*
X49317D01*
X49450D01*
X49384D01*
Y-25932D01*
X49450Y-25999D01*
X49717Y-25732D02*
X49850D01*
X49917Y-25799D01*
Y-25999D01*
X49717D01*
X49650Y-25932D01*
X49717Y-25865D01*
X49917D01*
X50050Y-25732D02*
Y-25999D01*
Y-25865D01*
X50117Y-25799D01*
X50183Y-25732D01*
X50250D01*
X50517Y-25665D02*
Y-25732D01*
X50450D01*
X50583D01*
X50517D01*
Y-25932D01*
X50583Y-25999D01*
X51450Y-25732D02*
X51250D01*
X51183Y-25799D01*
Y-25932D01*
X51250Y-25999D01*
X51450D01*
X51783D02*
X51650D01*
X51583Y-25932D01*
Y-25799D01*
X51650Y-25732D01*
X51783D01*
X51850Y-25799D01*
Y-25865D01*
X51583D01*
X51983Y-25999D02*
Y-25732D01*
X52183D01*
X52249Y-25799D01*
Y-25999D01*
X52449Y-25665D02*
Y-25732D01*
X52383D01*
X52516D01*
X52449D01*
Y-25932D01*
X52516Y-25999D01*
X52716Y-25732D02*
Y-25999D01*
Y-25865D01*
X52783Y-25799D01*
X52849Y-25732D01*
X52916D01*
X53316Y-25999D02*
X53183D01*
X53116Y-25932D01*
Y-25799D01*
X53183Y-25732D01*
X53316D01*
X53382Y-25799D01*
Y-25865D01*
X53116D01*
X53916Y-26132D02*
Y-25732D01*
X54116D01*
X54182Y-25799D01*
Y-25932D01*
X54116Y-25999D01*
X53916D01*
X54382D02*
X54515D01*
X54582Y-25932D01*
Y-25799D01*
X54515Y-25732D01*
X54382D01*
X54315Y-25799D01*
Y-25932D01*
X54382Y-25999D01*
X54715D02*
X54915D01*
X54982Y-25932D01*
X54915Y-25865D01*
X54782D01*
X54715Y-25799D01*
X54782Y-25732D01*
X54982D01*
X55115Y-25999D02*
X55248D01*
X55182D01*
Y-25732D01*
X55115D01*
X55515Y-25665D02*
Y-25732D01*
X55448D01*
X55582D01*
X55515D01*
Y-25932D01*
X55582Y-25999D01*
X55782D02*
X55915D01*
X55848D01*
Y-25732D01*
X55782D01*
X56182Y-25999D02*
X56315D01*
X56381Y-25932D01*
Y-25799D01*
X56315Y-25732D01*
X56182D01*
X56115Y-25799D01*
Y-25932D01*
X56182Y-25999D01*
X56515D02*
Y-25732D01*
X56715D01*
X56781Y-25799D01*
Y-25999D01*
X57381Y-25665D02*
Y-25732D01*
X57315D01*
X57448D01*
X57381D01*
Y-25932D01*
X57448Y-25999D01*
X57714D02*
X57848D01*
X57914Y-25932D01*
Y-25799D01*
X57848Y-25732D01*
X57714D01*
X57648Y-25799D01*
Y-25932D01*
X57714Y-25999D01*
X58514Y-25665D02*
Y-25732D01*
X58447D01*
X58581D01*
X58514D01*
Y-25932D01*
X58581Y-25999D01*
X58847D02*
X58981D01*
X59047Y-25932D01*
Y-25799D01*
X58981Y-25732D01*
X58847D01*
X58781Y-25799D01*
Y-25932D01*
X58847Y-25999D01*
X59247D02*
X59380D01*
X59447Y-25932D01*
Y-25799D01*
X59380Y-25732D01*
X59247D01*
X59181Y-25799D01*
Y-25932D01*
X59247Y-25999D01*
X59580D02*
X59714D01*
X59647D01*
Y-25599D01*
X59580D01*
X60513Y-25999D02*
X60380D01*
X60314Y-25932D01*
Y-25799D01*
X60380Y-25732D01*
X60513D01*
X60580Y-25799D01*
Y-25865D01*
X60314D01*
X60713Y-25999D02*
Y-25732D01*
X60913D01*
X60980Y-25799D01*
Y-25999D01*
X61380Y-25599D02*
Y-25999D01*
X61180D01*
X61113Y-25932D01*
Y-25799D01*
X61180Y-25732D01*
X61380D01*
X62180D02*
X61980D01*
X61913Y-25799D01*
Y-25932D01*
X61980Y-25999D01*
X62180D01*
X62513D02*
X62380D01*
X62313Y-25932D01*
Y-25799D01*
X62380Y-25732D01*
X62513D01*
X62579Y-25799D01*
Y-25865D01*
X62313D01*
X62713Y-25999D02*
Y-25732D01*
X62913D01*
X62979Y-25799D01*
Y-25999D01*
X63179Y-25665D02*
Y-25732D01*
X63113D01*
X63246D01*
X63179D01*
Y-25932D01*
X63246Y-25999D01*
X63446Y-25732D02*
Y-25999D01*
Y-25865D01*
X63513Y-25799D01*
X63579Y-25732D01*
X63646D01*
X64046Y-25999D02*
X63912D01*
X63846Y-25932D01*
Y-25799D01*
X63912Y-25732D01*
X64046D01*
X64112Y-25799D01*
Y-25865D01*
X63846D01*
X64645Y-26132D02*
Y-25732D01*
X64845D01*
X64912Y-25799D01*
Y-25932D01*
X64845Y-25999D01*
X64645D01*
X65112D02*
X65245D01*
X65312Y-25932D01*
Y-25799D01*
X65245Y-25732D01*
X65112D01*
X65045Y-25799D01*
Y-25932D01*
X65112Y-25999D01*
X65445D02*
X65645D01*
X65712Y-25932D01*
X65645Y-25865D01*
X65512D01*
X65445Y-25799D01*
X65512Y-25732D01*
X65712D01*
X65845Y-25999D02*
X65978D01*
X65912D01*
Y-25732D01*
X65845D01*
X66245Y-25665D02*
Y-25732D01*
X66178D01*
X66312D01*
X66245D01*
Y-25932D01*
X66312Y-25999D01*
X66512D02*
X66645D01*
X66578D01*
Y-25732D01*
X66512D01*
X66911Y-25999D02*
X67045D01*
X67111Y-25932D01*
Y-25799D01*
X67045Y-25732D01*
X66911D01*
X66845Y-25799D01*
Y-25932D01*
X66911Y-25999D01*
X67245D02*
Y-25732D01*
X67445D01*
X67511Y-25799D01*
Y-25999D01*
X67645D02*
Y-25932D01*
X67711D01*
Y-25999D01*
X67645D01*
X40120Y-26665D02*
X40387D01*
X40120Y-26532D02*
X40387D01*
X40920Y-26799D02*
Y-26399D01*
X41120D01*
X41186Y-26465D01*
Y-26599D01*
X41120Y-26665D01*
X40920D01*
X41053D02*
X41186Y-26799D01*
X41386D02*
X41520D01*
X41586Y-26732D01*
Y-26599D01*
X41520Y-26532D01*
X41386D01*
X41320Y-26599D01*
Y-26732D01*
X41386Y-26799D01*
X41720Y-26532D02*
Y-26732D01*
X41786Y-26799D01*
X41986D01*
Y-26532D01*
X42186Y-26465D02*
Y-26532D01*
X42119D01*
X42253D01*
X42186D01*
Y-26732D01*
X42253Y-26799D01*
X42853D02*
Y-26399D01*
X43052D01*
X43119Y-26465D01*
Y-26599D01*
X43052Y-26665D01*
X42853D01*
X43319Y-26532D02*
X43452D01*
X43519Y-26599D01*
Y-26799D01*
X43319D01*
X43252Y-26732D01*
X43319Y-26665D01*
X43519D01*
X43719Y-26465D02*
Y-26532D01*
X43652D01*
X43786D01*
X43719D01*
Y-26732D01*
X43786Y-26799D01*
X43985Y-26399D02*
Y-26799D01*
Y-26599D01*
X44052Y-26532D01*
X44185D01*
X44252Y-26599D01*
Y-26799D01*
X44785Y-26399D02*
Y-26799D01*
X45052D01*
X45385D02*
X45252D01*
X45185Y-26732D01*
Y-26599D01*
X45252Y-26532D01*
X45385D01*
X45452Y-26599D01*
Y-26665D01*
X45185D01*
X45585Y-26799D02*
Y-26532D01*
X45785D01*
X45852Y-26599D01*
Y-26799D01*
X46118Y-26932D02*
X46185D01*
X46251Y-26865D01*
Y-26532D01*
X46051D01*
X45985Y-26599D01*
Y-26732D01*
X46051Y-26799D01*
X46251D01*
X46451Y-26465D02*
Y-26532D01*
X46385D01*
X46518D01*
X46451D01*
Y-26732D01*
X46518Y-26799D01*
X46718Y-26399D02*
Y-26799D01*
Y-26599D01*
X46785Y-26532D01*
X46918D01*
X46985Y-26599D01*
Y-26799D01*
X47518Y-26599D02*
X47784D01*
X47651Y-26465D02*
Y-26732D01*
X48317Y-26399D02*
X48584D01*
X48451D01*
Y-26799D01*
X48784D02*
X48917D01*
X48984Y-26732D01*
Y-26599D01*
X48917Y-26532D01*
X48784D01*
X48717Y-26599D01*
Y-26732D01*
X48784Y-26799D01*
X49184D02*
X49317D01*
X49384Y-26732D01*
Y-26599D01*
X49317Y-26532D01*
X49184D01*
X49117Y-26599D01*
Y-26732D01*
X49184Y-26799D01*
X49517D02*
X49650D01*
X49584D01*
Y-26399D01*
X49517D01*
X50517Y-26465D02*
X50450Y-26399D01*
X50317D01*
X50250Y-26465D01*
Y-26532D01*
X50317Y-26599D01*
X50450D01*
X50517Y-26665D01*
Y-26732D01*
X50450Y-26799D01*
X50317D01*
X50250Y-26732D01*
X50650Y-26799D02*
X50783D01*
X50717D01*
Y-26532D01*
X50650D01*
X50983D02*
X51250D01*
X50983Y-26799D01*
X51250D01*
X51583D02*
X51450D01*
X51383Y-26732D01*
Y-26599D01*
X51450Y-26532D01*
X51583D01*
X51650Y-26599D01*
Y-26665D01*
X51383D01*
X52183D02*
X52449D01*
X52183Y-26532D02*
X52449D01*
X53249Y-26465D02*
X53183Y-26399D01*
X53049D01*
X52983Y-26465D01*
Y-26532D01*
X53049Y-26599D01*
X53183D01*
X53249Y-26665D01*
Y-26732D01*
X53183Y-26799D01*
X53049D01*
X52983Y-26732D01*
X53382Y-26799D02*
X53516D01*
X53449D01*
Y-26399D01*
X53382D01*
X53782Y-26799D02*
X53916D01*
X53982Y-26732D01*
Y-26599D01*
X53916Y-26532D01*
X53782D01*
X53716Y-26599D01*
Y-26732D01*
X53782Y-26799D01*
X54182Y-26465D02*
Y-26532D01*
X54116D01*
X54249D01*
X54182D01*
Y-26732D01*
X54249Y-26799D01*
X54849D02*
X54982D01*
X54915D01*
Y-26399D01*
X54849D01*
X55382Y-26799D02*
X55248D01*
X55182Y-26732D01*
Y-26599D01*
X55248Y-26532D01*
X55382D01*
X55448Y-26599D01*
Y-26665D01*
X55182D01*
X55582Y-26799D02*
Y-26532D01*
X55782D01*
X55848Y-26599D01*
Y-26799D01*
X56115Y-26932D02*
X56182D01*
X56248Y-26865D01*
Y-26532D01*
X56048D01*
X55982Y-26599D01*
Y-26732D01*
X56048Y-26799D01*
X56248D01*
X56448Y-26465D02*
Y-26532D01*
X56381D01*
X56515D01*
X56448D01*
Y-26732D01*
X56515Y-26799D01*
X56715Y-26399D02*
Y-26799D01*
Y-26599D01*
X56781Y-26532D01*
X56915D01*
X56981Y-26599D01*
Y-26799D01*
X57581Y-26532D02*
X57714D01*
X57781Y-26599D01*
Y-26799D01*
X57581D01*
X57514Y-26732D01*
X57581Y-26665D01*
X57781D01*
X57914Y-26799D02*
X58114D01*
X58181Y-26732D01*
X58114Y-26665D01*
X57981D01*
X57914Y-26599D01*
X57981Y-26532D01*
X58181D01*
X58981Y-26399D02*
Y-26799D01*
X58781D01*
X58714Y-26732D01*
Y-26599D01*
X58781Y-26532D01*
X58981D01*
X59314Y-26799D02*
X59181D01*
X59114Y-26732D01*
Y-26599D01*
X59181Y-26532D01*
X59314D01*
X59380Y-26599D01*
Y-26665D01*
X59114D01*
X59580Y-26799D02*
Y-26465D01*
Y-26599D01*
X59514D01*
X59647D01*
X59580D01*
Y-26465D01*
X59647Y-26399D01*
X59847Y-26799D02*
X59980D01*
X59914D01*
Y-26532D01*
X59847D01*
X60180Y-26799D02*
Y-26532D01*
X60380D01*
X60447Y-26599D01*
Y-26799D01*
X60780D02*
X60647D01*
X60580Y-26732D01*
Y-26599D01*
X60647Y-26532D01*
X60780D01*
X60847Y-26599D01*
Y-26665D01*
X60580D01*
X61247Y-26399D02*
Y-26799D01*
X61047D01*
X60980Y-26732D01*
Y-26599D01*
X61047Y-26532D01*
X61247D01*
X61780Y-26799D02*
X61913D01*
X61846D01*
Y-26532D01*
X61780D01*
X62113Y-26799D02*
Y-26532D01*
X62313D01*
X62380Y-26599D01*
Y-26799D01*
X62979Y-26465D02*
Y-26532D01*
X62913D01*
X63046D01*
X62979D01*
Y-26732D01*
X63046Y-26799D01*
X63246Y-26399D02*
Y-26799D01*
Y-26599D01*
X63313Y-26532D01*
X63446D01*
X63513Y-26599D01*
Y-26799D01*
X63846D02*
X63712D01*
X63646Y-26732D01*
Y-26599D01*
X63712Y-26532D01*
X63846D01*
X63912Y-26599D01*
Y-26665D01*
X63646D01*
X64446Y-26799D02*
Y-26399D01*
X64645D01*
X64712Y-26465D01*
Y-26599D01*
X64645Y-26665D01*
X64446D01*
X65112Y-26465D02*
X65045Y-26399D01*
X64912D01*
X64845Y-26465D01*
Y-26732D01*
X64912Y-26799D01*
X65045D01*
X65112Y-26732D01*
X65245Y-26399D02*
Y-26799D01*
X65445D01*
X65512Y-26732D01*
Y-26665D01*
X65445Y-26599D01*
X65245D01*
X65445D01*
X65512Y-26532D01*
Y-26465D01*
X65445Y-26399D01*
X65245D01*
X66045Y-26799D02*
X66178D01*
X66112D01*
Y-26399D01*
X66045D01*
X66445Y-26532D02*
X66578D01*
X66645Y-26599D01*
Y-26799D01*
X66445D01*
X66378Y-26732D01*
X66445Y-26665D01*
X66645D01*
X66778Y-26532D02*
Y-26732D01*
X66845Y-26799D01*
X67045D01*
Y-26865D01*
X66978Y-26932D01*
X66911D01*
X67045Y-26799D02*
Y-26532D01*
X67245Y-26799D02*
X67378D01*
X67445Y-26732D01*
Y-26599D01*
X67378Y-26532D01*
X67245D01*
X67178Y-26599D01*
Y-26732D01*
X67245Y-26799D01*
X67578Y-26532D02*
Y-26732D01*
X67645Y-26799D01*
X67844D01*
Y-26532D01*
X68044Y-26465D02*
Y-26532D01*
X67978D01*
X68111D01*
X68044D01*
Y-26732D01*
X68111Y-26799D01*
D17*
X0Y3830D02*
G03*
X1114Y4257I100J1406D01*
G01*
X6486D02*
G03*
X7600Y3830I1014J979D01*
G01*
X3450Y8300D02*
G03*
X3300Y8450I-150J0D01*
G01*
X4150Y5550D02*
G03*
X4300Y5400I150J0D01*
G01*
Y8450D02*
G03*
X4150Y8300I0J-150D01*
G01*
X3300Y5400D02*
G03*
X3450Y5550I0J150D01*
G01*
X0Y0D02*
Y3830D01*
X7600Y0D02*
Y1725D01*
Y2515D01*
Y3830D01*
X0Y0D02*
X7600D01*
X2650Y8450D02*
Y9830D01*
X4300Y5400D02*
X5382D01*
X2650Y8450D02*
X3300D01*
X2650Y9830D02*
X4950D01*
Y8450D02*
Y9830D01*
X3450Y5550D02*
Y8300D01*
X4300Y8450D02*
X4950D01*
X5382Y5400D02*
X6486Y4257D01*
X1114D02*
X2218Y5400D01*
X4150Y5550D02*
Y8300D01*
X2218Y5400D02*
X3300D01*
D86*
X6873Y1206D02*
X6793Y1366D01*
X6953D01*
X6873Y1206D01*
Y2876D02*
X6793Y3036D01*
X6953D01*
X6873Y2876D01*
X4270Y1970D02*
X4310Y2010D01*
X4350D01*
X4310Y2050D01*
X4350Y2090D01*
X4310D01*
X4270Y2130D01*
X4230Y2090D01*
X4190D01*
X4230Y2050D01*
X4190Y2010D01*
X4230D01*
X4270Y1970D01*
X659Y2690D02*
X699Y2730D01*
X739D01*
X699Y2770D01*
X739Y2810D01*
X699D01*
X659Y2850D01*
X619Y2810D01*
X579D01*
X619Y2770D01*
X579Y2730D01*
X619D01*
X659Y2690D01*
X3416Y3381D02*
Y3541D01*
X3576D01*
Y3381D01*
X3416D01*
X3694Y3659D02*
Y3819D01*
X3854D01*
Y3659D01*
X3694D01*
X3138D02*
Y3819D01*
X3298D01*
Y3659D01*
X3138D01*
X3416Y3938D02*
Y4098D01*
X3576D01*
Y3938D01*
X3416D01*
X26346Y-22759D02*
Y-22439D01*
X26666D01*
Y-22759D01*
X26346D01*
X26506Y-23559D02*
X26346Y-23239D01*
X26666D01*
X26506Y-23559D01*
Y-24359D02*
X26586Y-24279D01*
X26666D01*
X26586Y-24199D01*
X26666Y-24119D01*
X26586D01*
X26506Y-24039D01*
X26426Y-24119D01*
X26346D01*
X26426Y-24199D01*
X26346Y-24279D01*
X26426D01*
X26506Y-24359D01*
D87*
X3008Y2799D02*
G03*
X3008Y2799I-80J0D01*
G01*
X2187Y4233D02*
G03*
X2187Y4233I-80J0D01*
G01*
X1280Y3672D02*
G03*
X1280Y3672I-80J0D01*
G01*
X1757Y2909D02*
G03*
X1757Y2909I-80J0D01*
G01*
X2438Y2904D02*
G03*
X2438Y2904I-80J0D01*
G01*
X2795Y3743D02*
G03*
X2795Y3743I-80J0D01*
G01*
X3524Y4561D02*
G03*
X3524Y4561I-80J0D01*
G01*
X4436Y3654D02*
G03*
X4436Y3654I-80J0D01*
G01*
X5568Y1541D02*
G03*
X5568Y1541I-80J0D01*
G01*
X6009Y2527D02*
G03*
X6009Y2527I-80J0D01*
G01*
X5950Y1555D02*
G03*
X5950Y1555I-80J0D01*
G01*
X4380Y1120D02*
G03*
X4380Y1120I-80J0D01*
G01*
Y340D02*
G03*
X4380Y340I-80J0D01*
G01*
X3425Y2819D02*
G03*
X3425Y2819I-80J0D01*
G01*
X2728Y1690D02*
G03*
X2728Y1690I-80J0D01*
G01*
Y2411D02*
G03*
X2728Y2411I-80J0D01*
G01*
X3989Y1690D02*
G03*
X3989Y1690I-80J0D01*
G01*
X3705Y2830D02*
G03*
X3705Y2830I-80J0D01*
G01*
X4157Y2896D02*
G03*
X4157Y2896I-80J0D01*
G01*
X4298Y4505D02*
G03*
X4298Y4505I-80J0D01*
G01*
X6140Y3949D02*
G03*
X6140Y3949I-80J0D01*
G01*
X6145Y4236D02*
G03*
X6145Y4236I-80J0D01*
G01*
X6986Y3429D02*
G03*
X6986Y3429I-80J0D01*
G01*
X5218Y3451D02*
G03*
X5218Y3451I-80J0D01*
G01*
X4549Y3371D02*
G03*
X4549Y3371I-80J0D01*
G01*
X6114Y3057D02*
G03*
X6114Y3057I-80J0D01*
G01*
X5711Y3415D02*
G03*
X5711Y3415I-80J0D01*
G01*
X986Y2411D02*
G03*
X986Y2411I-80J0D01*
G01*
X466Y337D02*
G03*
X466Y337I-80J0D01*
G01*
X986D02*
G03*
X986Y337I-80J0D01*
G01*
X6598Y2121D02*
G03*
X6598Y2121I-80J0D01*
G01*
X986Y1110D02*
G03*
X986Y1110I-80J0D01*
G01*
X6598Y1638D02*
G03*
X6598Y1638I-80J0D01*
G01*
X3989Y2411D02*
G03*
X3989Y2411I-80J0D01*
G01*
X466D02*
G03*
X466Y2411I-80J0D01*
G01*
Y1690D02*
G03*
X466Y1690I-80J0D01*
G01*
X5728Y2527D02*
G03*
X5728Y2527I-80J0D01*
G01*
X986Y1690D02*
G03*
X986Y1690I-80J0D01*
G01*
X7366Y2848D02*
G03*
X7366Y2848I-80J0D01*
G01*
X6598Y2603D02*
G03*
X6598Y2603I-80J0D01*
G01*
X5398Y4911D02*
G03*
X5398Y4911I-80J0D01*
G01*
X7366Y1392D02*
G03*
X7366Y1392I-80J0D01*
G01*
X466Y1110D02*
G03*
X466Y1110I-80J0D01*
G01*
X4980Y340D02*
G03*
X4980Y340I-80J0D01*
G01*
D88*
X26665Y-20639D02*
X26585Y-20559D01*
X26425D01*
X26346Y-20639D01*
Y-20719D01*
X26425Y-20799D01*
X26585D01*
X26665Y-20879D01*
Y-20959D01*
X26585Y-21039D01*
X26425D01*
X26346Y-20959D01*
X26825Y-20719D02*
Y-20959D01*
X26905Y-21039D01*
X27145D01*
Y-21119D01*
X27065Y-21198D01*
X26985D01*
X27145Y-21039D02*
Y-20719D01*
X27305Y-21039D02*
Y-20719D01*
X27385D01*
X27465Y-20799D01*
Y-21039D01*
Y-20799D01*
X27545Y-20719D01*
X27625Y-20799D01*
Y-21039D01*
X27785Y-20559D02*
Y-21039D01*
X28025D01*
X28105Y-20959D01*
Y-20879D01*
Y-20799D01*
X28025Y-20719D01*
X27785D01*
X28345Y-21039D02*
X28505D01*
X28585Y-20959D01*
Y-20799D01*
X28505Y-20719D01*
X28345D01*
X28265Y-20799D01*
Y-20959D01*
X28345Y-21039D01*
X28745D02*
X28905D01*
X28825D01*
Y-20559D01*
X28745D01*
X29673D02*
Y-21039D01*
Y-20799D01*
X29993D01*
Y-20559D01*
Y-21039D01*
X30153D02*
X30312D01*
X30233D01*
Y-20719D01*
X30153D01*
X30632Y-20639D02*
Y-20719D01*
X30552D01*
X30712D01*
X30632D01*
Y-20959D01*
X30712Y-21039D01*
X31752Y-20639D02*
X31672Y-20559D01*
X31512D01*
X31432Y-20639D01*
Y-20959D01*
X31512Y-21039D01*
X31672D01*
X31752Y-20959D01*
X31992Y-21039D02*
X32152D01*
X32232Y-20959D01*
Y-20799D01*
X32152Y-20719D01*
X31992D01*
X31912Y-20799D01*
Y-20959D01*
X31992Y-21039D01*
X32392Y-20719D02*
Y-20959D01*
X32472Y-21039D01*
X32712D01*
Y-20719D01*
X32872Y-21039D02*
Y-20719D01*
X33112D01*
X33192Y-20799D01*
Y-21039D01*
X33431Y-20639D02*
Y-20719D01*
X33352D01*
X33511D01*
X33431D01*
Y-20959D01*
X33511Y-21039D01*
X34599Y-20559D02*
X34279D01*
Y-20799D01*
X34439D01*
X34279D01*
Y-21039D01*
X34759D02*
X34919D01*
X34839D01*
Y-20719D01*
X34759D01*
X35159Y-21039D02*
Y-20719D01*
X35399D01*
X35479Y-20799D01*
Y-21039D01*
X35639D02*
X35799D01*
X35719D01*
Y-20719D01*
X35639D01*
X36039Y-21039D02*
X36279D01*
X36359Y-20959D01*
X36279Y-20879D01*
X36119D01*
X36039Y-20799D01*
X36119Y-20719D01*
X36359D01*
X36519Y-20559D02*
Y-21039D01*
Y-20799D01*
X36599Y-20719D01*
X36759D01*
X36839Y-20799D01*
Y-21039D01*
X37239D02*
X37079D01*
X36999Y-20959D01*
Y-20799D01*
X37079Y-20719D01*
X37239D01*
X37318Y-20799D01*
Y-20879D01*
X36999D01*
X37798Y-20559D02*
Y-21039D01*
X37558D01*
X37478Y-20959D01*
Y-20799D01*
X37558Y-20719D01*
X37798D01*
X38438Y-20559D02*
Y-21039D01*
Y-20799D01*
X38758D01*
Y-20559D01*
Y-21039D01*
X38998D02*
X39158D01*
X39238Y-20959D01*
Y-20799D01*
X39158Y-20719D01*
X38998D01*
X38918Y-20799D01*
Y-20959D01*
X38998Y-21039D01*
X39398D02*
X39558D01*
X39478D01*
Y-20559D01*
X39398D01*
X40038Y-21039D02*
X39878D01*
X39798Y-20959D01*
Y-20799D01*
X39878Y-20719D01*
X40038D01*
X40118Y-20799D01*
Y-20879D01*
X39798D01*
X41077Y-20639D02*
X40997Y-20559D01*
X40837D01*
X40757Y-20639D01*
Y-20719D01*
X40837Y-20799D01*
X40997D01*
X41077Y-20879D01*
Y-20959D01*
X40997Y-21039D01*
X40837D01*
X40757Y-20959D01*
X41237Y-21039D02*
X41397D01*
X41317D01*
Y-20719D01*
X41237D01*
X41637D02*
X41957D01*
X41637Y-21039D01*
X41957D01*
X42357D02*
X42197D01*
X42117Y-20959D01*
Y-20799D01*
X42197Y-20719D01*
X42357D01*
X42437Y-20799D01*
Y-20879D01*
X42117D01*
X43205Y-21039D02*
Y-20559D01*
X43445D01*
X43525Y-20639D01*
Y-20799D01*
X43445Y-20879D01*
X43205D01*
X43685Y-20559D02*
Y-21039D01*
Y-20799D01*
X43765Y-20719D01*
X43925D01*
X44005Y-20799D01*
Y-21039D01*
X44165Y-20719D02*
Y-20959D01*
X44244Y-21039D01*
X44484D01*
Y-21119D01*
X44404Y-21198D01*
X44324D01*
X44484Y-21039D02*
Y-20719D01*
X44644Y-21039D02*
X44884D01*
X44964Y-20959D01*
X44884Y-20879D01*
X44724D01*
X44644Y-20799D01*
X44724Y-20719D01*
X44964D01*
X45124Y-21039D02*
X45284D01*
X45204D01*
Y-20719D01*
X45124D01*
X45844D02*
X45604D01*
X45524Y-20799D01*
Y-20959D01*
X45604Y-21039D01*
X45844D01*
X46084Y-20719D02*
X46244D01*
X46324Y-20799D01*
Y-21039D01*
X46084D01*
X46004Y-20959D01*
X46084Y-20879D01*
X46324D01*
X46484Y-21039D02*
X46644D01*
X46564D01*
Y-20559D01*
X46484D01*
X47363D02*
Y-21039D01*
X47683D01*
X48083D02*
X47923D01*
X47843Y-20959D01*
Y-20799D01*
X47923Y-20719D01*
X48083D01*
X48163Y-20799D01*
Y-20879D01*
X47843D01*
X48323Y-21039D02*
Y-20719D01*
X48563D01*
X48643Y-20799D01*
Y-21039D01*
X48963Y-21198D02*
X49043D01*
X49123Y-21119D01*
Y-20719D01*
X48883D01*
X48803Y-20799D01*
Y-20959D01*
X48883Y-21039D01*
X49123D01*
X49363Y-20639D02*
Y-20719D01*
X49283D01*
X49443D01*
X49363D01*
Y-20959D01*
X49443Y-21039D01*
X49683Y-20559D02*
Y-21039D01*
Y-20799D01*
X49763Y-20719D01*
X49923D01*
X50003Y-20799D01*
Y-21039D01*
X50771D02*
Y-20559D01*
X51011D01*
X51091Y-20639D01*
Y-20799D01*
X51011Y-20879D01*
X50771D01*
X50931D02*
X51091Y-21039D01*
X51330D02*
X51490D01*
X51570Y-20959D01*
Y-20799D01*
X51490Y-20719D01*
X51330D01*
X51250Y-20799D01*
Y-20959D01*
X51330Y-21039D01*
X51730Y-20719D02*
Y-20959D01*
X51810Y-21039D01*
X52050D01*
Y-20719D01*
X52290Y-20639D02*
Y-20719D01*
X52210D01*
X52370D01*
X52290D01*
Y-20959D01*
X52370Y-21039D01*
X53090D02*
Y-20559D01*
X53330D01*
X53410Y-20639D01*
Y-20799D01*
X53330Y-20879D01*
X53090D01*
X53650Y-20719D02*
X53810D01*
X53890Y-20799D01*
Y-21039D01*
X53650D01*
X53570Y-20959D01*
X53650Y-20879D01*
X53890D01*
X54130Y-20639D02*
Y-20719D01*
X54050D01*
X54210D01*
X54130D01*
Y-20959D01*
X54210Y-21039D01*
X54449Y-20559D02*
Y-21039D01*
Y-20799D01*
X54529Y-20719D01*
X54689D01*
X54769Y-20799D01*
Y-21039D01*
X55409Y-20559D02*
Y-21039D01*
X55729D01*
X56129D02*
X55969D01*
X55889Y-20959D01*
Y-20799D01*
X55969Y-20719D01*
X56129D01*
X56209Y-20799D01*
Y-20879D01*
X55889D01*
X56369Y-21039D02*
Y-20719D01*
X56609D01*
X56689Y-20799D01*
Y-21039D01*
X57009Y-21198D02*
X57089D01*
X57169Y-21119D01*
Y-20719D01*
X56929D01*
X56849Y-20799D01*
Y-20959D01*
X56929Y-21039D01*
X57169D01*
X57408Y-20639D02*
Y-20719D01*
X57329D01*
X57488D01*
X57408D01*
Y-20959D01*
X57488Y-21039D01*
X57728Y-20559D02*
Y-21039D01*
Y-20799D01*
X57808Y-20719D01*
X57968D01*
X58048Y-20799D01*
Y-21039D01*
X58816D02*
Y-20559D01*
X59056D01*
X59136Y-20639D01*
Y-20799D01*
X59056Y-20879D01*
X58816D01*
X59296Y-21039D02*
X59456D01*
X59376D01*
Y-20559D01*
X59296D01*
X59776Y-20719D02*
X59936D01*
X60016Y-20799D01*
Y-21039D01*
X59776D01*
X59696Y-20959D01*
X59776Y-20879D01*
X60016D01*
X60256Y-20639D02*
Y-20719D01*
X60176D01*
X60336D01*
X60256D01*
Y-20959D01*
X60336Y-21039D01*
X60816D02*
X60656D01*
X60576Y-20959D01*
Y-20799D01*
X60656Y-20719D01*
X60816D01*
X60896Y-20799D01*
Y-20879D01*
X60576D01*
X61375Y-20559D02*
Y-21039D01*
X61136D01*
X61056Y-20959D01*
Y-20799D01*
X61136Y-20719D01*
X61375D01*
X62143Y-20559D02*
Y-21039D01*
Y-20799D01*
X62463D01*
Y-20559D01*
Y-21039D01*
X62703D02*
X62863D01*
X62943Y-20959D01*
Y-20799D01*
X62863Y-20719D01*
X62703D01*
X62623Y-20799D01*
Y-20959D01*
X62703Y-21039D01*
X63103D02*
X63263D01*
X63183D01*
Y-20559D01*
X63103D01*
X63743Y-21039D02*
X63583D01*
X63503Y-20959D01*
Y-20799D01*
X63583Y-20719D01*
X63743D01*
X63823Y-20799D01*
Y-20879D01*
X63503D01*
X64463Y-20559D02*
X64783D01*
X64623D01*
Y-21039D01*
X64943Y-20719D02*
Y-20959D01*
X65023Y-21039D01*
X65262D01*
Y-21119D01*
X65182Y-21198D01*
X65103D01*
X65262Y-21039D02*
Y-20719D01*
X65422Y-21198D02*
Y-20719D01*
X65662D01*
X65742Y-20799D01*
Y-20959D01*
X65662Y-21039D01*
X65422D01*
X66142D02*
X65982D01*
X65902Y-20959D01*
Y-20799D01*
X65982Y-20719D01*
X66142D01*
X66222Y-20799D01*
Y-20879D01*
X65902D01*
X25770Y-20319D02*
X66990D01*
X25770Y-21399D02*
X66990D01*
X25770Y-20319D02*
Y-25399D01*
X66990Y-20319D02*
Y-25399D01*
X29385Y-20319D02*
Y-25399D01*
X33991Y-20319D02*
Y-25399D01*
X42917Y-20319D02*
Y-25399D01*
X50483Y-20319D02*
Y-25399D01*
X58528Y-20319D02*
Y-25399D01*
X61855Y-20319D02*
Y-25399D01*
X25770Y-24599D02*
X66990D01*
X25770Y-25399D02*
X66990D01*
D89*
X26666Y-21799D02*
G03*
X26666Y-21799I-160J0D01*
G01*
D90*
X26612Y-25665D02*
X26545Y-25599D01*
X26412D01*
X26346Y-25665D01*
Y-25732D01*
X26412Y-25799D01*
X26545D01*
X26612Y-25865D01*
Y-25932D01*
X26545Y-25999D01*
X26412D01*
X26346Y-25932D01*
X26745Y-25999D02*
X26879D01*
X26812D01*
Y-25599D01*
X26745D01*
X27145Y-25999D02*
X27279D01*
X27345Y-25932D01*
Y-25799D01*
X27279Y-25732D01*
X27145D01*
X27079Y-25799D01*
Y-25932D01*
X27145Y-25999D01*
X27545Y-25665D02*
Y-25732D01*
X27478D01*
X27612D01*
X27545D01*
Y-25932D01*
X27612Y-25999D01*
X28478Y-25599D02*
Y-25999D01*
X28278D01*
X28212Y-25932D01*
Y-25799D01*
X28278Y-25732D01*
X28478D01*
X28811Y-25999D02*
X28678D01*
X28611Y-25932D01*
Y-25799D01*
X28678Y-25732D01*
X28811D01*
X28878Y-25799D01*
Y-25865D01*
X28611D01*
X29078Y-25999D02*
Y-25665D01*
Y-25799D01*
X29011D01*
X29145D01*
X29078D01*
Y-25665D01*
X29145Y-25599D01*
X29345Y-25999D02*
X29478D01*
X29411D01*
Y-25732D01*
X29345D01*
X29678Y-25999D02*
Y-25732D01*
X29878D01*
X29944Y-25799D01*
Y-25999D01*
X30078D02*
X30211D01*
X30144D01*
Y-25732D01*
X30078D01*
X30478Y-25665D02*
Y-25732D01*
X30411D01*
X30544D01*
X30478D01*
Y-25932D01*
X30544Y-25999D01*
X30744D02*
X30877D01*
X30811D01*
Y-25732D01*
X30744D01*
X31144Y-25999D02*
X31277D01*
X31344Y-25932D01*
Y-25799D01*
X31277Y-25732D01*
X31144D01*
X31077Y-25799D01*
Y-25932D01*
X31144Y-25999D01*
X31477D02*
Y-25732D01*
X31677D01*
X31744Y-25799D01*
Y-25999D01*
X31877D02*
X32077D01*
X32144Y-25932D01*
X32077Y-25865D01*
X31944D01*
X31877Y-25799D01*
X31944Y-25732D01*
X32144D01*
X32677D02*
X32743D01*
Y-25799D01*
X32677D01*
Y-25732D01*
Y-25932D02*
X32743D01*
Y-25999D01*
X32677D01*
Y-25932D01*
X33487Y-25999D02*
Y-25599D01*
X33687D01*
X33754Y-25665D01*
Y-25799D01*
X33687Y-25865D01*
X33487D01*
X33621D02*
X33754Y-25999D01*
X33954D02*
X34087D01*
X34154Y-25932D01*
Y-25799D01*
X34087Y-25732D01*
X33954D01*
X33887Y-25799D01*
Y-25932D01*
X33954Y-25999D01*
X34287Y-25732D02*
Y-25932D01*
X34354Y-25999D01*
X34554D01*
Y-25732D01*
X34754Y-25665D02*
Y-25732D01*
X34687D01*
X34820D01*
X34754D01*
Y-25932D01*
X34820Y-25999D01*
X35420D02*
Y-25599D01*
X35620D01*
X35687Y-25665D01*
Y-25799D01*
X35620Y-25865D01*
X35420D01*
X35887Y-25732D02*
X36020D01*
X36087Y-25799D01*
Y-25999D01*
X35887D01*
X35820Y-25932D01*
X35887Y-25865D01*
X36087D01*
X36287Y-25665D02*
Y-25732D01*
X36220D01*
X36353D01*
X36287D01*
Y-25932D01*
X36353Y-25999D01*
X36553Y-25599D02*
Y-25999D01*
Y-25799D01*
X36620Y-25732D01*
X36753D01*
X36820Y-25799D01*
Y-25999D01*
X37353Y-25599D02*
Y-25999D01*
X37619D01*
X37953D02*
X37819D01*
X37753Y-25932D01*
Y-25799D01*
X37819Y-25732D01*
X37953D01*
X38019Y-25799D01*
Y-25865D01*
X37753D01*
X38153Y-25999D02*
Y-25732D01*
X38353D01*
X38419Y-25799D01*
Y-25999D01*
X38686Y-26132D02*
X38752D01*
X38819Y-26065D01*
Y-25732D01*
X38619D01*
X38552Y-25799D01*
Y-25932D01*
X38619Y-25999D01*
X38819D01*
X39019Y-25665D02*
Y-25732D01*
X38952D01*
X39086D01*
X39019D01*
Y-25932D01*
X39086Y-25999D01*
X39286Y-25599D02*
Y-25999D01*
Y-25799D01*
X39352Y-25732D01*
X39486D01*
X39552Y-25799D01*
Y-25999D01*
X33487Y-26799D02*
Y-26399D01*
X33687D01*
X33754Y-26465D01*
Y-26599D01*
X33687Y-26665D01*
X33487D01*
X33887Y-26399D02*
Y-26799D01*
Y-26599D01*
X33954Y-26532D01*
X34087D01*
X34154Y-26599D01*
Y-26799D01*
X34287Y-26532D02*
Y-26732D01*
X34354Y-26799D01*
X34554D01*
Y-26865D01*
X34487Y-26932D01*
X34420D01*
X34554Y-26799D02*
Y-26532D01*
X34687Y-26799D02*
X34887D01*
X34954Y-26732D01*
X34887Y-26665D01*
X34754D01*
X34687Y-26599D01*
X34754Y-26532D01*
X34954D01*
X35087Y-26799D02*
X35220D01*
X35154D01*
Y-26532D01*
X35087D01*
X35687D02*
X35487D01*
X35420Y-26599D01*
Y-26732D01*
X35487Y-26799D01*
X35687D01*
X35887Y-26532D02*
X36020D01*
X36087Y-26599D01*
Y-26799D01*
X35887D01*
X35820Y-26732D01*
X35887Y-26665D01*
X36087D01*
X36220Y-26799D02*
X36353D01*
X36287D01*
Y-26399D01*
X36220D01*
X36953D02*
Y-26799D01*
X37220D01*
X37553D02*
X37420D01*
X37353Y-26732D01*
Y-26599D01*
X37420Y-26532D01*
X37553D01*
X37619Y-26599D01*
Y-26665D01*
X37353D01*
X37753Y-26799D02*
Y-26532D01*
X37953D01*
X38019Y-26599D01*
Y-26799D01*
X38286Y-26932D02*
X38353D01*
X38419Y-26865D01*
Y-26532D01*
X38219D01*
X38153Y-26599D01*
Y-26732D01*
X38219Y-26799D01*
X38419D01*
X38619Y-26465D02*
Y-26532D01*
X38552D01*
X38686D01*
X38619D01*
Y-26732D01*
X38686Y-26799D01*
X38886Y-26399D02*
Y-26799D01*
Y-26599D01*
X38952Y-26532D01*
X39086D01*
X39152Y-26599D01*
Y-26799D01*
M02*
