G04*
G04 #@! TF.GenerationSoftware,Altium Limited,Altium Designer,23.1.1 (15)*
G04*
G04 Layer_Color=65535*
%FSLAX24Y24*%
%MOIN*%
G70*
G04*
G04 #@! TF.SameCoordinates,E02B9306-6A5D-4C65-B62C-121D950AC055*
G04*
G04*
G04 #@! TF.FilePolarity,Positive*
G04*
G01*
G75*
%ADD10C,0.0100*%
%ADD11C,0.0098*%
%ADD12C,0.0040*%
%ADD13C,0.0050*%
%ADD14C,0.0060*%
%ADD15C,0.0079*%
%ADD16C,0.0070*%
%ADD17C,0.0005*%
G36*
X24930Y-31259D02*
X24967D01*
X25008Y-31264D01*
X25055Y-31273D01*
X25110Y-31277D01*
X25170Y-31287D01*
X25291Y-31315D01*
X25411Y-31347D01*
X25471Y-31365D01*
X25522Y-31389D01*
X25573Y-31416D01*
X25615Y-31444D01*
X25619D01*
X25624Y-31453D01*
X25647Y-31472D01*
X25680Y-31514D01*
X25721Y-31565D01*
X25758Y-31629D01*
X25791Y-31708D01*
X25809Y-31805D01*
X25814Y-31856D01*
Y-31912D01*
Y-31916D01*
Y-31935D01*
X25809Y-31967D01*
Y-32004D01*
X25800Y-32046D01*
X25795Y-32097D01*
X25772Y-32213D01*
Y-32222D01*
X25767Y-32240D01*
X25758Y-32273D01*
X25749Y-32314D01*
X25735Y-32370D01*
X25721Y-32430D01*
X25703Y-32500D01*
X25684Y-32574D01*
X24782Y-32569D01*
Y-32564D01*
X24786Y-32560D01*
X24795Y-32532D01*
X24809Y-32490D01*
X24828Y-32435D01*
X24851Y-32379D01*
X24869Y-32319D01*
X24893Y-32259D01*
X24911Y-32203D01*
X24916Y-32199D01*
X24920Y-32180D01*
X24930Y-32157D01*
X24939Y-32129D01*
X24957Y-32064D01*
X24967Y-32032D01*
X24971Y-32004D01*
Y-32000D01*
Y-31995D01*
Y-31967D01*
X24967Y-31939D01*
X24962Y-31926D01*
X24953Y-31916D01*
X24948Y-31912D01*
X24930Y-31907D01*
X24902Y-31898D01*
X24860Y-31893D01*
X24828D01*
X24805Y-31898D01*
X24782Y-31907D01*
X24754Y-31916D01*
X24726Y-31939D01*
X24703Y-31967D01*
X24698Y-31972D01*
X24694Y-31981D01*
X24684Y-32004D01*
X24670Y-32032D01*
X24652Y-32069D01*
X24638Y-32111D01*
X24620Y-32166D01*
X24601Y-32226D01*
Y-32231D01*
X24596Y-32236D01*
X24587Y-32268D01*
X24578Y-32310D01*
X24564Y-32351D01*
Y-32361D01*
X24559Y-32384D01*
X24555Y-32412D01*
X24550Y-32444D01*
Y-32449D01*
X24555Y-32467D01*
X24559Y-32495D01*
X24569Y-32523D01*
X24573Y-32527D01*
X24587Y-32546D01*
X24610Y-32569D01*
X24647Y-32597D01*
X24638D01*
X24846Y-32726D01*
X24851Y-32731D01*
X24865Y-32740D01*
X24888Y-32754D01*
X24920Y-32773D01*
X24990Y-32814D01*
X25064Y-32865D01*
X25069Y-32870D01*
X25082Y-32875D01*
X25101Y-32888D01*
X25124Y-32907D01*
X25184Y-32958D01*
X25249Y-33018D01*
X25254Y-33023D01*
X25263Y-33037D01*
X25277Y-33055D01*
X25295Y-33078D01*
X25318Y-33111D01*
X25337Y-33148D01*
X25356Y-33185D01*
X25369Y-33226D01*
Y-33231D01*
X25374Y-33245D01*
X25383Y-33268D01*
X25388Y-33296D01*
X25397Y-33333D01*
X25402Y-33374D01*
X25406Y-33421D01*
Y-33472D01*
Y-33481D01*
Y-33509D01*
X25402Y-33550D01*
X25397Y-33606D01*
X25393Y-33671D01*
X25383Y-33745D01*
X25365Y-33833D01*
X25346Y-33921D01*
Y-33925D01*
X25342Y-33939D01*
X25332Y-33967D01*
X25318Y-33995D01*
X25305Y-34036D01*
X25286Y-34078D01*
X25240Y-34180D01*
X25175Y-34286D01*
X25096Y-34393D01*
X25055Y-34444D01*
X25004Y-34490D01*
X24953Y-34532D01*
X24897Y-34569D01*
X24893D01*
X24883Y-34578D01*
X24865Y-34583D01*
X24842Y-34596D01*
X24814Y-34610D01*
X24777Y-34624D01*
X24731Y-34638D01*
X24684Y-34652D01*
X24629Y-34671D01*
X24569Y-34684D01*
X24504Y-34698D01*
X24434Y-34712D01*
X24360Y-34726D01*
X24282Y-34731D01*
X24106Y-34740D01*
X24059D01*
X24032Y-34735D01*
X23990D01*
X23948Y-34731D01*
X23897Y-34726D01*
X23846Y-34717D01*
X23731Y-34694D01*
X23620Y-34666D01*
X23509Y-34620D01*
X23458Y-34592D01*
X23411Y-34559D01*
X23407D01*
X23402Y-34550D01*
X23374Y-34527D01*
X23342Y-34485D01*
X23300Y-34434D01*
X23259Y-34370D01*
X23222Y-34291D01*
X23194Y-34198D01*
X23189Y-34152D01*
X23185Y-34101D01*
Y-34097D01*
Y-34083D01*
Y-34060D01*
X23189Y-34032D01*
X23198Y-33967D01*
X23212Y-33898D01*
X23328Y-33361D01*
X24249D01*
X24161Y-33685D01*
Y-33689D01*
X24157Y-33703D01*
X24152Y-33722D01*
X24147Y-33740D01*
Y-33749D01*
X24138Y-33768D01*
X24133Y-33800D01*
X24124Y-33837D01*
X24110Y-33884D01*
X24101Y-33930D01*
X24092Y-33976D01*
X24083Y-34018D01*
Y-34022D01*
Y-34032D01*
Y-34050D01*
X24087Y-34069D01*
X24092Y-34087D01*
X24110Y-34106D01*
X24129Y-34115D01*
X24161Y-34120D01*
X24198D01*
X24221Y-34115D01*
X24277Y-34110D01*
X24337Y-34097D01*
X24342D01*
X24351Y-34092D01*
X24365Y-34078D01*
X24383Y-34064D01*
X24402Y-34046D01*
X24425Y-34013D01*
X24448Y-33976D01*
X24467Y-33930D01*
Y-33925D01*
X24476Y-33911D01*
X24481Y-33893D01*
X24490Y-33870D01*
X24513Y-33810D01*
X24536Y-33745D01*
Y-33740D01*
X24541Y-33731D01*
X24545Y-33712D01*
X24550Y-33689D01*
X24559Y-33638D01*
X24564Y-33583D01*
Y-33578D01*
Y-33564D01*
X24559Y-33550D01*
X24555Y-33527D01*
X24545Y-33499D01*
X24527Y-33476D01*
X24508Y-33449D01*
X24481Y-33425D01*
X24476Y-33421D01*
X24457Y-33407D01*
X24425Y-33388D01*
X24388Y-33365D01*
X24342Y-33333D01*
X24291Y-33300D01*
X24180Y-33222D01*
X24175Y-33217D01*
X24157Y-33203D01*
X24129Y-33180D01*
X24092Y-33152D01*
X24050Y-33120D01*
X24004Y-33087D01*
X23916Y-33013D01*
X23911Y-33009D01*
X23897Y-32999D01*
X23874Y-32976D01*
X23851Y-32953D01*
X23819Y-32916D01*
X23791Y-32879D01*
X23758Y-32833D01*
X23731Y-32782D01*
X23726Y-32777D01*
X23721Y-32754D01*
X23708Y-32726D01*
X23698Y-32685D01*
X23684Y-32638D01*
X23671Y-32583D01*
X23666Y-32518D01*
X23661Y-32449D01*
Y-32444D01*
Y-32435D01*
Y-32421D01*
Y-32402D01*
X23666Y-32356D01*
X23671Y-32310D01*
Y-32305D01*
X23675Y-32301D01*
X23680Y-32273D01*
X23689Y-32231D01*
X23698Y-32180D01*
Y-32176D01*
X23703Y-32162D01*
X23712Y-32138D01*
X23721Y-32111D01*
X23731Y-32074D01*
X23749Y-32037D01*
X23768Y-31990D01*
X23791Y-31939D01*
X23846Y-31833D01*
X23916Y-31722D01*
X24004Y-31611D01*
X24055Y-31560D01*
X24110Y-31509D01*
X24115Y-31504D01*
X24124Y-31500D01*
X24143Y-31486D01*
X24166Y-31467D01*
X24194Y-31449D01*
X24231Y-31426D01*
X24272Y-31402D01*
X24323Y-31379D01*
X24374Y-31356D01*
X24434Y-31333D01*
X24495Y-31310D01*
X24564Y-31291D01*
X24638Y-31277D01*
X24712Y-31264D01*
X24795Y-31254D01*
X24902D01*
X24930Y-31259D01*
D02*
G37*
G36*
X28563D02*
X28591D01*
X28624Y-31264D01*
X28665Y-31268D01*
X28758Y-31282D01*
X28860Y-31310D01*
X28962Y-31342D01*
X29063Y-31393D01*
X29110Y-31421D01*
X29151Y-31453D01*
X29156D01*
X29161Y-31463D01*
X29184Y-31486D01*
X29221Y-31527D01*
X29262Y-31583D01*
X29299Y-31652D01*
X29336Y-31740D01*
X29360Y-31842D01*
X29369Y-31893D01*
Y-31953D01*
Y-31963D01*
Y-31981D01*
Y-32018D01*
X29364Y-32060D01*
X29360Y-32111D01*
X29350Y-32166D01*
X29323Y-32282D01*
X29207Y-32634D01*
X28337D01*
X28448Y-32287D01*
Y-32282D01*
X28452Y-32268D01*
Y-32263D01*
X28457Y-32259D01*
X28462Y-32245D01*
Y-32240D01*
X28466Y-32236D01*
X28471Y-32208D01*
X28480Y-32171D01*
X28489Y-32125D01*
Y-32120D01*
X28494Y-32115D01*
X28499Y-32088D01*
X28503Y-32055D01*
X28508Y-32027D01*
Y-32018D01*
X28503Y-32000D01*
X28499Y-31976D01*
X28480Y-31949D01*
X28475Y-31944D01*
X28457Y-31930D01*
X28429Y-31921D01*
X28406Y-31916D01*
X28378Y-31912D01*
X28374D01*
X28355Y-31907D01*
X28327D01*
X28300Y-31912D01*
X28263Y-31916D01*
X28225Y-31930D01*
X28193Y-31949D01*
X28161Y-31981D01*
X28156Y-31986D01*
X28147Y-32000D01*
X28138Y-32018D01*
X28119Y-32041D01*
X28101Y-32074D01*
X28082Y-32115D01*
X28063Y-32157D01*
X28050Y-32203D01*
X27587Y-33745D01*
Y-33749D01*
Y-33754D01*
X27577Y-33782D01*
X27568Y-33819D01*
X27559Y-33865D01*
Y-33870D01*
Y-33874D01*
X27554Y-33898D01*
X27550Y-33930D01*
X27545Y-33958D01*
Y-33962D01*
Y-33972D01*
X27550Y-33985D01*
Y-34004D01*
X27568Y-34046D01*
X27577Y-34064D01*
X27596Y-34078D01*
X27601D01*
X27605Y-34083D01*
X27633Y-34097D01*
X27670Y-34110D01*
X27726Y-34120D01*
X27735D01*
X27753Y-34124D01*
X27814D01*
X27832Y-34120D01*
X27851D01*
X27874Y-34115D01*
X27878D01*
X27892Y-34110D01*
X27911Y-34106D01*
X27929Y-34101D01*
X28105Y-33509D01*
X27804Y-33513D01*
X28013Y-32833D01*
X29179D01*
X28674Y-34536D01*
X28670Y-34541D01*
X28656Y-34546D01*
X28628Y-34559D01*
X28596Y-34573D01*
X28559Y-34592D01*
X28512Y-34610D01*
X28462Y-34629D01*
X28406Y-34647D01*
X28401D01*
X28383Y-34652D01*
X28355Y-34661D01*
X28318Y-34671D01*
X28276Y-34684D01*
X28221Y-34698D01*
X28165Y-34708D01*
X28101Y-34721D01*
X28091D01*
X28073Y-34726D01*
X28036Y-34731D01*
X27989Y-34735D01*
X27929Y-34745D01*
X27864Y-34749D01*
X27790Y-34754D01*
X27577D01*
X27550Y-34749D01*
X27508Y-34745D01*
X27462Y-34740D01*
X27443D01*
X27420Y-34735D01*
X27392Y-34731D01*
X27355Y-34726D01*
X27314Y-34717D01*
X27221Y-34698D01*
X27119Y-34666D01*
X27022Y-34629D01*
X26929Y-34578D01*
X26888Y-34546D01*
X26851Y-34513D01*
X26841Y-34504D01*
X26823Y-34476D01*
X26795Y-34434D01*
X26767Y-34379D01*
X26735Y-34305D01*
X26707Y-34217D01*
X26689Y-34115D01*
X26679Y-33999D01*
Y-33990D01*
Y-33967D01*
X26684Y-33925D01*
Y-33870D01*
X26693Y-33805D01*
X26703Y-33726D01*
X26712Y-33638D01*
X26730Y-33546D01*
Y-33541D01*
X26735Y-33536D01*
X26740Y-33509D01*
X26749Y-33467D01*
X26763Y-33411D01*
X26781Y-33347D01*
X26800Y-33273D01*
X26823Y-33194D01*
X26846Y-33111D01*
Y-33106D01*
X26851Y-33101D01*
X26855Y-33074D01*
X26869Y-33027D01*
X26888Y-32972D01*
X26906Y-32907D01*
X26925Y-32837D01*
X26966Y-32694D01*
Y-32689D01*
X26971Y-32685D01*
X26976Y-32657D01*
X26990Y-32611D01*
X27008Y-32555D01*
X27027Y-32490D01*
X27050Y-32416D01*
X27101Y-32263D01*
Y-32259D01*
X27105Y-32250D01*
X27110Y-32231D01*
X27119Y-32213D01*
X27128Y-32185D01*
X27142Y-32152D01*
X27175Y-32083D01*
X27207Y-32000D01*
X27249Y-31912D01*
X27295Y-31828D01*
X27341Y-31750D01*
Y-31745D01*
X27346Y-31740D01*
X27364Y-31717D01*
X27392Y-31680D01*
X27429Y-31634D01*
X27476Y-31588D01*
X27527Y-31537D01*
X27582Y-31486D01*
X27642Y-31440D01*
X27651Y-31435D01*
X27675Y-31421D01*
X27707Y-31402D01*
X27753Y-31375D01*
X27814Y-31352D01*
X27878Y-31324D01*
X27948Y-31305D01*
X28026Y-31287D01*
X28036D01*
X28050Y-31282D01*
X28063D01*
X28110Y-31273D01*
X28170Y-31268D01*
X28244Y-31264D01*
X28327Y-31259D01*
X28420Y-31254D01*
X28540D01*
X28563Y-31259D01*
D02*
G37*
G36*
X30378Y-32754D02*
X30410D01*
X30457Y-32759D01*
X30503Y-32768D01*
X30559Y-32773D01*
X30614Y-32782D01*
X30734Y-32810D01*
X30850Y-32847D01*
X30906Y-32865D01*
X30957Y-32893D01*
X31003Y-32921D01*
X31045Y-32953D01*
X31049D01*
X31054Y-32962D01*
X31077Y-32986D01*
X31109Y-33027D01*
X31146Y-33078D01*
X31179Y-33148D01*
X31211Y-33231D01*
X31234Y-33324D01*
X31244Y-33374D01*
Y-33430D01*
Y-33435D01*
Y-33453D01*
Y-33481D01*
X31239Y-33518D01*
X31234Y-33560D01*
X31230Y-33611D01*
X31211Y-33717D01*
Y-33722D01*
X31207Y-33745D01*
X31202Y-33773D01*
X31193Y-33814D01*
X31179Y-33865D01*
X31165Y-33925D01*
X31146Y-33990D01*
X31128Y-34060D01*
X30221D01*
X30309Y-33768D01*
X30313Y-33759D01*
X30318Y-33740D01*
X30327Y-33708D01*
X30341Y-33666D01*
X30369Y-33573D01*
X30378Y-33532D01*
X30387Y-33490D01*
Y-33486D01*
Y-33476D01*
Y-33458D01*
X30383Y-33439D01*
X30378Y-33421D01*
X30364Y-33402D01*
X30341Y-33388D01*
X30309Y-33379D01*
X30290D01*
X30272Y-33384D01*
X30248Y-33388D01*
X30225Y-33398D01*
X30197Y-33411D01*
X30170Y-33430D01*
X30142Y-33458D01*
X30137Y-33462D01*
X30133Y-33472D01*
X30119Y-33490D01*
X30105Y-33518D01*
X30086Y-33555D01*
X30068Y-33601D01*
X30049Y-33657D01*
X30026Y-33722D01*
Y-33726D01*
X30022Y-33731D01*
X30017Y-33763D01*
X30003Y-33805D01*
X29994Y-33847D01*
Y-33856D01*
X29989Y-33879D01*
X29985Y-33907D01*
X29980Y-33935D01*
Y-33939D01*
Y-33948D01*
X29985Y-33962D01*
X29994Y-33981D01*
X30003Y-34004D01*
X30022Y-34027D01*
X30049Y-34055D01*
X30082Y-34078D01*
X30258Y-34194D01*
X30262Y-34198D01*
X30281Y-34208D01*
X30304Y-34226D01*
X30336Y-34245D01*
X30373Y-34268D01*
X30415Y-34296D01*
X30494Y-34351D01*
X30498Y-34356D01*
X30512Y-34365D01*
X30531Y-34379D01*
X30559Y-34397D01*
X30619Y-34448D01*
X30683Y-34509D01*
X30693Y-34518D01*
X30711Y-34541D01*
X30739Y-34583D01*
X30771Y-34638D01*
X30799Y-34708D01*
X30827Y-34786D01*
X30845Y-34879D01*
X30855Y-34976D01*
Y-34981D01*
Y-34995D01*
Y-35013D01*
Y-35041D01*
X30850Y-35073D01*
X30845Y-35106D01*
X30836Y-35184D01*
Y-35189D01*
X30832Y-35203D01*
Y-35226D01*
X30827Y-35254D01*
X30818Y-35286D01*
X30808Y-35328D01*
X30785Y-35416D01*
Y-35420D01*
X30781Y-35434D01*
X30771Y-35462D01*
X30758Y-35490D01*
X30744Y-35532D01*
X30725Y-35573D01*
X30679Y-35675D01*
X30619Y-35782D01*
X30540Y-35888D01*
X30494Y-35939D01*
X30447Y-35985D01*
X30392Y-36027D01*
X30336Y-36064D01*
X30332D01*
X30322Y-36073D01*
X30304Y-36078D01*
X30281Y-36092D01*
X30248Y-36106D01*
X30211Y-36119D01*
X30170Y-36133D01*
X30119Y-36152D01*
X30068Y-36170D01*
X30008Y-36184D01*
X29943Y-36198D01*
X29873Y-36212D01*
X29721Y-36231D01*
X29549Y-36240D01*
X29503D01*
X29471Y-36235D01*
X29434D01*
X29387Y-36231D01*
X29341Y-36226D01*
X29286Y-36217D01*
X29174Y-36193D01*
X29054Y-36161D01*
X28943Y-36115D01*
X28892Y-36087D01*
X28846Y-36055D01*
X28841Y-36050D01*
X28837Y-36045D01*
X28809Y-36022D01*
X28772Y-35981D01*
X28730Y-35925D01*
X28688Y-35856D01*
X28651Y-35772D01*
X28624Y-35680D01*
X28619Y-35629D01*
X28614Y-35578D01*
Y-35573D01*
Y-35559D01*
Y-35536D01*
X28619Y-35508D01*
X28624Y-35444D01*
X28637Y-35374D01*
X28776Y-34865D01*
X29684D01*
X29605Y-35166D01*
X29577Y-35258D01*
Y-35263D01*
X29573Y-35286D01*
X29563Y-35314D01*
X29554Y-35351D01*
X29535Y-35434D01*
X29526Y-35476D01*
X29522Y-35513D01*
Y-35518D01*
Y-35527D01*
X29526Y-35559D01*
X29531Y-35578D01*
X29545Y-35596D01*
X29563Y-35606D01*
X29591Y-35610D01*
X29633D01*
X29656Y-35606D01*
X29716Y-35601D01*
X29776Y-35592D01*
X29781D01*
X29790Y-35587D01*
X29804Y-35578D01*
X29822Y-35564D01*
X29841Y-35545D01*
X29864Y-35518D01*
X29883Y-35481D01*
X29906Y-35434D01*
Y-35430D01*
X29910Y-35416D01*
X29920Y-35393D01*
X29924Y-35365D01*
X29943Y-35300D01*
X29966Y-35231D01*
Y-35226D01*
X29971Y-35217D01*
X29975Y-35198D01*
X29980Y-35175D01*
X29989Y-35129D01*
X29994Y-35078D01*
Y-35073D01*
Y-35059D01*
X29989Y-35041D01*
X29985Y-35018D01*
X29975Y-34990D01*
X29966Y-34962D01*
X29947Y-34934D01*
X29924Y-34907D01*
X29920Y-34902D01*
X29906Y-34893D01*
X29887Y-34879D01*
X29860Y-34860D01*
X29822Y-34842D01*
X29785Y-34814D01*
X29693Y-34759D01*
X29688Y-34754D01*
X29674Y-34745D01*
X29647Y-34731D01*
X29619Y-34712D01*
X29549Y-34666D01*
X29475Y-34615D01*
X29480D01*
X29364Y-34536D01*
X29360Y-34532D01*
X29355Y-34527D01*
X29341Y-34513D01*
X29323Y-34495D01*
X29281Y-34448D01*
X29235Y-34384D01*
X29188Y-34305D01*
X29147Y-34208D01*
X29114Y-34097D01*
X29110Y-34041D01*
X29105Y-33976D01*
Y-33972D01*
Y-33948D01*
X29110Y-33921D01*
Y-33884D01*
X29114Y-33842D01*
X29124Y-33791D01*
X29147Y-33685D01*
X29151Y-33675D01*
X29156Y-33652D01*
X29170Y-33615D01*
X29188Y-33564D01*
X29211Y-33509D01*
X29239Y-33449D01*
X29272Y-33384D01*
X29309Y-33319D01*
X29313Y-33310D01*
X29327Y-33291D01*
X29350Y-33259D01*
X29383Y-33217D01*
X29420Y-33171D01*
X29466Y-33120D01*
X29512Y-33069D01*
X29568Y-33018D01*
X29577Y-33013D01*
X29596Y-32995D01*
X29628Y-32972D01*
X29670Y-32944D01*
X29721Y-32912D01*
X29776Y-32879D01*
X29841Y-32847D01*
X29910Y-32819D01*
X29920Y-32814D01*
X29943Y-32805D01*
X29985Y-32796D01*
X30035Y-32782D01*
X30096Y-32768D01*
X30170Y-32759D01*
X30244Y-32750D01*
X30350D01*
X30378Y-32754D01*
D02*
G37*
G36*
X27202Y-31277D02*
X26179Y-34721D01*
X25226D01*
X26267Y-31273D01*
X27202Y-31277D01*
D02*
G37*
G36*
X35599Y-35189D02*
Y-35194D01*
X35595Y-35198D01*
X35590Y-35212D01*
X35586Y-35226D01*
X35572Y-35272D01*
X35553Y-35328D01*
X35525Y-35397D01*
X35493Y-35467D01*
X35419Y-35619D01*
X35414Y-35629D01*
X35400Y-35652D01*
X35377Y-35689D01*
X35345Y-35735D01*
X35303Y-35791D01*
X35257Y-35846D01*
X35201Y-35902D01*
X35141Y-35957D01*
X35132Y-35962D01*
X35109Y-35981D01*
X35076Y-36004D01*
X35025Y-36036D01*
X34965Y-36069D01*
X34896Y-36106D01*
X34817Y-36138D01*
X34729Y-36170D01*
X34725D01*
X34720Y-36175D01*
X34706D01*
X34688Y-36180D01*
X34664Y-36189D01*
X34637Y-36193D01*
X34572Y-36207D01*
X34489Y-36221D01*
X34391Y-36231D01*
X34285Y-36240D01*
X34146D01*
X34127Y-36235D01*
X34095D01*
X34063Y-36231D01*
X34021Y-36226D01*
X33933Y-36212D01*
X33831Y-36184D01*
X33725Y-36152D01*
X33623Y-36106D01*
X33535Y-36045D01*
X33526Y-36036D01*
X33503Y-36013D01*
X33466Y-35971D01*
X33428Y-35911D01*
X33387Y-35837D01*
X33350Y-35744D01*
X33327Y-35633D01*
X33322Y-35573D01*
X33317Y-35508D01*
Y-35499D01*
Y-35481D01*
X33322Y-35448D01*
X33327Y-35402D01*
X33331Y-35346D01*
X33341Y-35286D01*
X33354Y-35217D01*
X33373Y-35143D01*
X34063Y-32814D01*
X34970D01*
X34220Y-35277D01*
Y-35282D01*
X34215Y-35291D01*
X34211Y-35309D01*
Y-35328D01*
X34206Y-35388D01*
X34211Y-35453D01*
Y-35457D01*
X34215Y-35467D01*
X34225Y-35481D01*
X34239Y-35495D01*
X34257Y-35513D01*
X34280Y-35527D01*
X34313Y-35536D01*
X34350Y-35541D01*
X34354D01*
X34373Y-35536D01*
X34401Y-35532D01*
X34428Y-35522D01*
X34461Y-35508D01*
X34498Y-35485D01*
X34526Y-35457D01*
X34553Y-35420D01*
X34558Y-35416D01*
X34563Y-35402D01*
X34576Y-35379D01*
X34590Y-35351D01*
X34618Y-35286D01*
X34651Y-35221D01*
Y-35231D01*
X35428Y-32814D01*
X36317D01*
X35599Y-35189D01*
D02*
G37*
G36*
X39414Y-32819D02*
X39451D01*
X39492Y-32824D01*
X39590Y-32837D01*
X39701Y-32856D01*
X39812Y-32888D01*
X39918Y-32930D01*
X39965Y-32958D01*
X40011Y-32990D01*
X40016D01*
X40020Y-32999D01*
X40048Y-33023D01*
X40085Y-33064D01*
X40127Y-33120D01*
X40168Y-33194D01*
X40205Y-33286D01*
X40233Y-33393D01*
X40238Y-33449D01*
X40242Y-33513D01*
Y-33518D01*
Y-33536D01*
Y-33564D01*
X40238Y-33601D01*
Y-33643D01*
X40233Y-33689D01*
X40215Y-33786D01*
Y-33791D01*
X40210Y-33800D01*
X40205Y-33819D01*
X40201Y-33833D01*
Y-33837D01*
X40196Y-33847D01*
X40191Y-33865D01*
X40187Y-33888D01*
X40178Y-33916D01*
X40168Y-33944D01*
X40145Y-34018D01*
Y-34022D01*
X40141Y-34036D01*
X40131Y-34055D01*
X40122Y-34078D01*
X40094Y-34138D01*
X40057Y-34208D01*
X40053Y-34212D01*
X40048Y-34222D01*
X40034Y-34240D01*
X40016Y-34263D01*
X39969Y-34319D01*
X39904Y-34384D01*
X39900Y-34388D01*
X39886Y-34397D01*
X39867Y-34411D01*
X39840Y-34430D01*
X39807Y-34448D01*
X39766Y-34467D01*
X39719Y-34485D01*
X39668Y-34504D01*
X39673Y-34509D01*
X39687Y-34518D01*
X39705Y-34532D01*
X39724Y-34555D01*
X39752Y-34583D01*
X39775Y-34615D01*
X39798Y-34657D01*
X39821Y-34698D01*
Y-34703D01*
X39830Y-34721D01*
X39835Y-34745D01*
X39844Y-34777D01*
X39849Y-34819D01*
Y-34865D01*
Y-34921D01*
X39840Y-34976D01*
Y-34981D01*
X39835Y-34995D01*
X39830Y-35013D01*
X39826Y-35036D01*
X39817Y-35069D01*
X39807Y-35110D01*
X39798Y-35152D01*
X39784Y-35198D01*
Y-35203D01*
X39779Y-35221D01*
X39775Y-35245D01*
X39766Y-35277D01*
X39756Y-35314D01*
X39747Y-35360D01*
X39724Y-35453D01*
Y-35457D01*
X39719Y-35476D01*
X39715Y-35499D01*
X39705Y-35532D01*
X39701Y-35569D01*
X39692Y-35606D01*
X39673Y-35694D01*
Y-35698D01*
X39668Y-35712D01*
Y-35735D01*
X39664Y-35763D01*
X39654Y-35828D01*
X39645Y-35893D01*
Y-35897D01*
Y-35916D01*
X39641Y-35944D01*
Y-35976D01*
Y-35985D01*
X39645Y-36004D01*
Y-36036D01*
Y-36069D01*
Y-36078D01*
Y-36101D01*
X39650Y-36133D01*
X39654Y-36175D01*
X38743D01*
Y-36170D01*
Y-36166D01*
X38738Y-36143D01*
X38733Y-36101D01*
Y-36055D01*
Y-36050D01*
Y-36041D01*
Y-36027D01*
X38738Y-36008D01*
Y-35962D01*
Y-35907D01*
Y-35902D01*
Y-35893D01*
Y-35879D01*
X38743Y-35860D01*
X38747Y-35814D01*
X38752Y-35763D01*
Y-35758D01*
X38756Y-35754D01*
X38761Y-35726D01*
X38766Y-35694D01*
X38770Y-35666D01*
Y-35661D01*
X38775Y-35652D01*
X38780Y-35638D01*
X38784Y-35615D01*
X38789Y-35587D01*
X38798Y-35555D01*
X38817Y-35485D01*
X38835Y-35397D01*
X38858Y-35309D01*
X38886Y-35217D01*
X38914Y-35124D01*
Y-35120D01*
X38918Y-35101D01*
X38928Y-35083D01*
X38937Y-35055D01*
X38942Y-35050D01*
X38946Y-35032D01*
X38951Y-35008D01*
X38956Y-34981D01*
Y-34976D01*
X38960Y-34962D01*
X38969Y-34944D01*
X38974Y-34916D01*
X38988Y-34865D01*
X38993Y-34842D01*
Y-34823D01*
Y-34819D01*
Y-34814D01*
X38988Y-34805D01*
X38979Y-34796D01*
X38960Y-34786D01*
X38942Y-34777D01*
X38909Y-34768D01*
X38669D01*
Y-34772D01*
X38664Y-34782D01*
X38659Y-34800D01*
X38650Y-34828D01*
X38641Y-34860D01*
X38631Y-34897D01*
X38618Y-34939D01*
X38604Y-34985D01*
X38571Y-35092D01*
X38534Y-35212D01*
X38493Y-35342D01*
X38446Y-35481D01*
Y-35485D01*
X38442Y-35499D01*
X38432Y-35518D01*
X38428Y-35541D01*
X38414Y-35573D01*
X38405Y-35615D01*
X38391Y-35657D01*
X38372Y-35703D01*
X38340Y-35809D01*
X38303Y-35930D01*
X38261Y-36050D01*
X38224Y-36175D01*
X37359D01*
X38382Y-32814D01*
X39381D01*
X39414Y-32819D01*
D02*
G37*
G36*
X38007Y-33532D02*
X37178D01*
Y-33536D01*
X37169Y-33560D01*
X37159Y-33587D01*
X37150Y-33624D01*
X37136Y-33671D01*
X37118Y-33722D01*
X37085Y-33828D01*
Y-33833D01*
X37076Y-33851D01*
X37072Y-33879D01*
X37058Y-33916D01*
X37044Y-33962D01*
X37030Y-34009D01*
X36993Y-34120D01*
X37821D01*
X37590Y-34837D01*
X36771D01*
X36766Y-34846D01*
X36761Y-34865D01*
X36752Y-34897D01*
X36738Y-34939D01*
X36720Y-34985D01*
X36706Y-35036D01*
X36669Y-35147D01*
Y-35152D01*
X36660Y-35170D01*
X36655Y-35198D01*
X36641Y-35235D01*
X36627Y-35282D01*
X36609Y-35333D01*
X36590Y-35393D01*
X36572Y-35453D01*
X37419D01*
X37173Y-36175D01*
X35461D01*
X36502Y-32814D01*
X38224D01*
X38007Y-33532D01*
D02*
G37*
G36*
X33165Y-36175D02*
X32359D01*
X32373Y-35457D01*
X31799D01*
X31794Y-35467D01*
X31781Y-35490D01*
X31762Y-35522D01*
X31739Y-35569D01*
X31711Y-35624D01*
X31679Y-35684D01*
X31646Y-35749D01*
X31614Y-35819D01*
X31609Y-35828D01*
X31600Y-35851D01*
X31582Y-35888D01*
X31558Y-35934D01*
X31531Y-35985D01*
X31498Y-36045D01*
X31429Y-36175D01*
X30582D01*
X32248Y-32814D01*
X33345D01*
X33165Y-36175D01*
D02*
G37*
%LPC*%
G36*
X24879Y-31310D02*
X24800D01*
X24749Y-31315D01*
X24684Y-31319D01*
X24620Y-31333D01*
X24545Y-31347D01*
X24476Y-31365D01*
X24467Y-31370D01*
X24444Y-31375D01*
X24411Y-31389D01*
X24365Y-31412D01*
X24314Y-31435D01*
X24258Y-31467D01*
X24203Y-31504D01*
X24147Y-31546D01*
X24143Y-31551D01*
X24124Y-31569D01*
X24096Y-31592D01*
X24064Y-31625D01*
X24022Y-31671D01*
X23985Y-31717D01*
X23944Y-31773D01*
X23902Y-31833D01*
X23897Y-31842D01*
X23888Y-31861D01*
X23870Y-31893D01*
X23846Y-31939D01*
X23823Y-31990D01*
X23796Y-32055D01*
X23772Y-32120D01*
X23749Y-32194D01*
Y-32199D01*
X23745Y-32203D01*
Y-32217D01*
X23740Y-32236D01*
X23735Y-32287D01*
X23726Y-32347D01*
X23721Y-32421D01*
Y-32500D01*
X23731Y-32578D01*
X23745Y-32657D01*
X23749Y-32666D01*
X23754Y-32689D01*
X23772Y-32726D01*
X23791Y-32773D01*
X23819Y-32824D01*
X23856Y-32875D01*
X23897Y-32925D01*
X23948Y-32972D01*
X23953Y-32976D01*
X23967Y-32990D01*
X23995Y-33009D01*
X24027Y-33032D01*
X24064Y-33064D01*
X24110Y-33097D01*
X24157Y-33134D01*
X24212Y-33175D01*
X24217Y-33180D01*
X24240Y-33194D01*
X24268Y-33212D01*
X24305Y-33240D01*
X24351Y-33273D01*
X24402Y-33305D01*
X24508Y-33374D01*
X24513Y-33379D01*
X24527Y-33388D01*
X24550Y-33407D01*
X24569Y-33435D01*
X24592Y-33467D01*
X24610Y-33509D01*
X24615Y-33555D01*
Y-33611D01*
Y-33620D01*
X24610Y-33638D01*
X24606Y-33671D01*
X24596Y-33712D01*
X24582Y-33763D01*
X24564Y-33823D01*
X24545Y-33884D01*
X24518Y-33953D01*
X24513Y-33958D01*
X24504Y-33981D01*
X24490Y-34004D01*
X24471Y-34036D01*
X24448Y-34073D01*
X24420Y-34101D01*
X24393Y-34129D01*
X24360Y-34147D01*
X24356D01*
X24346Y-34152D01*
X24328Y-34157D01*
X24305Y-34161D01*
X24277Y-34166D01*
X24240Y-34171D01*
X24161Y-34175D01*
X24147D01*
X24115Y-34171D01*
X24078Y-34161D01*
X24064Y-34152D01*
X24050Y-34138D01*
X24046Y-34129D01*
X24036Y-34110D01*
X24027Y-34078D01*
X24022Y-34032D01*
Y-34027D01*
Y-34018D01*
Y-34004D01*
X24027Y-33985D01*
X24032Y-33935D01*
X24046Y-33870D01*
Y-33865D01*
X24050Y-33851D01*
X24055Y-33833D01*
X24064Y-33810D01*
X24073Y-33777D01*
X24083Y-33745D01*
X24106Y-33666D01*
X24175Y-33411D01*
X23374D01*
X23268Y-33907D01*
Y-33916D01*
X23259Y-33935D01*
X23254Y-33967D01*
X23245Y-34004D01*
X23240Y-34050D01*
X23235Y-34106D01*
X23240Y-34157D01*
X23245Y-34212D01*
Y-34217D01*
X23249Y-34235D01*
X23259Y-34263D01*
X23272Y-34296D01*
X23291Y-34333D01*
X23314Y-34374D01*
X23342Y-34416D01*
X23379Y-34458D01*
X23384Y-34462D01*
X23397Y-34476D01*
X23421Y-34495D01*
X23453Y-34518D01*
X23495Y-34546D01*
X23546Y-34573D01*
X23601Y-34601D01*
X23666Y-34624D01*
X23675Y-34629D01*
X23698Y-34634D01*
X23735Y-34643D01*
X23791Y-34652D01*
X23851Y-34666D01*
X23930Y-34675D01*
X24013Y-34680D01*
X24106Y-34684D01*
X24152D01*
X24180Y-34680D01*
X24221D01*
X24268Y-34675D01*
X24319Y-34671D01*
X24370Y-34661D01*
X24490Y-34643D01*
X24615Y-34615D01*
X24740Y-34573D01*
X24856Y-34518D01*
X24860D01*
X24869Y-34509D01*
X24883Y-34499D01*
X24906Y-34485D01*
X24930Y-34467D01*
X24957Y-34444D01*
X24990Y-34411D01*
X25022Y-34379D01*
X25055Y-34342D01*
X25092Y-34296D01*
X25129Y-34245D01*
X25166Y-34189D01*
X25198Y-34129D01*
X25231Y-34060D01*
X25263Y-33985D01*
X25291Y-33907D01*
Y-33902D01*
X25295Y-33893D01*
Y-33879D01*
X25305Y-33856D01*
X25309Y-33833D01*
X25314Y-33800D01*
X25328Y-33731D01*
X25337Y-33652D01*
X25351Y-33569D01*
X25356Y-33486D01*
Y-33402D01*
Y-33398D01*
Y-33393D01*
X25351Y-33365D01*
X25346Y-33328D01*
X25332Y-33282D01*
X25314Y-33226D01*
X25291Y-33166D01*
X25254Y-33106D01*
X25207Y-33050D01*
X25203Y-33046D01*
X25189Y-33032D01*
X25170Y-33013D01*
X25138Y-32986D01*
X25106Y-32958D01*
X25059Y-32925D01*
X25013Y-32888D01*
X24957Y-32856D01*
X24953Y-32851D01*
X24930Y-32842D01*
X24897Y-32824D01*
X24856Y-32796D01*
X24805Y-32763D01*
X24744Y-32731D01*
X24680Y-32689D01*
X24610Y-32643D01*
X24606Y-32638D01*
X24592Y-32629D01*
X24573Y-32611D01*
X24550Y-32588D01*
X24532Y-32560D01*
X24513Y-32527D01*
X24499Y-32495D01*
X24495Y-32458D01*
Y-32453D01*
Y-32439D01*
X24499Y-32416D01*
X24504Y-32388D01*
X24513Y-32351D01*
X24522Y-32310D01*
X24532Y-32263D01*
X24545Y-32213D01*
Y-32208D01*
X24550Y-32203D01*
X24555Y-32180D01*
X24569Y-32143D01*
X24582Y-32101D01*
X24620Y-32004D01*
X24647Y-31958D01*
X24670Y-31921D01*
X24675Y-31916D01*
X24684Y-31907D01*
X24698Y-31889D01*
X24721Y-31875D01*
X24749Y-31856D01*
X24786Y-31847D01*
X24823Y-31838D01*
X24883D01*
X24902Y-31842D01*
X24925Y-31847D01*
X24971Y-31861D01*
X24994Y-31870D01*
X25008Y-31884D01*
X25013Y-31893D01*
X25027Y-31916D01*
X25036Y-31953D01*
Y-31976D01*
X25031Y-32004D01*
Y-32009D01*
X25027Y-32018D01*
Y-32037D01*
X25018Y-32060D01*
X25008Y-32088D01*
X24999Y-32125D01*
X24985Y-32166D01*
X24967Y-32213D01*
Y-32217D01*
X24957Y-32236D01*
X24948Y-32263D01*
X24934Y-32296D01*
X24920Y-32342D01*
X24902Y-32393D01*
X24883Y-32449D01*
X24860Y-32513D01*
X25647Y-32518D01*
Y-32513D01*
X25652Y-32504D01*
X25656Y-32490D01*
X25661Y-32472D01*
X25675Y-32421D01*
X25689Y-32356D01*
X25707Y-32277D01*
X25726Y-32199D01*
X25740Y-32115D01*
X25754Y-32032D01*
Y-32027D01*
Y-32023D01*
X25758Y-31995D01*
Y-31953D01*
Y-31902D01*
X25754Y-31847D01*
X25749Y-31782D01*
X25735Y-31717D01*
X25712Y-31657D01*
X25707Y-31648D01*
X25698Y-31629D01*
X25680Y-31602D01*
X25656Y-31569D01*
X25619Y-31527D01*
X25573Y-31486D01*
X25518Y-31449D01*
X25448Y-31412D01*
X25439Y-31407D01*
X25411Y-31398D01*
X25365Y-31384D01*
X25305Y-31365D01*
X25221Y-31347D01*
X25124Y-31333D01*
X25008Y-31319D01*
X24879Y-31310D01*
D02*
G37*
G36*
X28522D02*
X28364D01*
X28290Y-31315D01*
X28212Y-31319D01*
X28128Y-31328D01*
X28050Y-31342D01*
X28040D01*
X28013Y-31352D01*
X27976Y-31361D01*
X27925Y-31375D01*
X27869Y-31393D01*
X27804Y-31416D01*
X27744Y-31449D01*
X27679Y-31486D01*
X27670Y-31490D01*
X27651Y-31504D01*
X27624Y-31527D01*
X27582Y-31560D01*
X27540Y-31602D01*
X27489Y-31652D01*
X27439Y-31713D01*
X27392Y-31782D01*
X27388Y-31791D01*
X27369Y-31814D01*
X27346Y-31856D01*
X27318Y-31916D01*
X27281Y-31986D01*
X27240Y-32074D01*
X27198Y-32171D01*
X27156Y-32282D01*
X27152Y-32291D01*
X27142Y-32319D01*
X27128Y-32361D01*
X27115Y-32416D01*
X27091Y-32481D01*
X27068Y-32555D01*
X27045Y-32634D01*
X27017Y-32717D01*
Y-32726D01*
X27008Y-32750D01*
X26999Y-32787D01*
X26985Y-32837D01*
X26966Y-32902D01*
X26948Y-32972D01*
X26925Y-33046D01*
X26902Y-33129D01*
Y-33134D01*
X26897Y-33138D01*
X26892Y-33166D01*
X26878Y-33208D01*
X26865Y-33263D01*
X26846Y-33333D01*
X26828Y-33402D01*
X26786Y-33555D01*
Y-33560D01*
Y-33564D01*
X26781Y-33578D01*
X26777Y-33597D01*
X26767Y-33648D01*
X26758Y-33708D01*
X26749Y-33777D01*
X26740Y-33856D01*
X26735Y-33930D01*
X26730Y-34009D01*
Y-34018D01*
Y-34041D01*
X26735Y-34078D01*
X26740Y-34124D01*
X26749Y-34180D01*
X26763Y-34235D01*
X26781Y-34291D01*
X26804Y-34347D01*
X26809Y-34351D01*
X26818Y-34370D01*
X26837Y-34393D01*
X26865Y-34425D01*
X26897Y-34462D01*
X26939Y-34499D01*
X26985Y-34536D01*
X27040Y-34573D01*
X27050Y-34578D01*
X27068Y-34587D01*
X27105Y-34601D01*
X27156Y-34620D01*
X27216Y-34638D01*
X27290Y-34657D01*
X27374Y-34671D01*
X27471Y-34684D01*
X27499D01*
X27517Y-34689D01*
X27564Y-34694D01*
X27628D01*
X27702Y-34698D01*
X27786Y-34694D01*
X27864D01*
X27948Y-34684D01*
X27957D01*
X27985Y-34680D01*
X28022Y-34675D01*
X28073Y-34666D01*
X28133Y-34657D01*
X28193Y-34643D01*
X28253Y-34629D01*
X28313Y-34615D01*
X28323D01*
X28341Y-34606D01*
X28378Y-34596D01*
X28420Y-34583D01*
X28466Y-34564D01*
X28517Y-34546D01*
X28624Y-34499D01*
X29105Y-32884D01*
X28050D01*
X27878Y-33458D01*
X28179Y-33453D01*
X27976Y-34124D01*
X27971Y-34129D01*
X27957Y-34138D01*
X27938Y-34147D01*
X27915Y-34161D01*
X27911D01*
X27892Y-34171D01*
X27864Y-34175D01*
X27832Y-34185D01*
X27763D01*
X27716Y-34175D01*
X27712D01*
X27707Y-34171D01*
X27675Y-34166D01*
X27638Y-34157D01*
X27596Y-34143D01*
X27587Y-34138D01*
X27568Y-34124D01*
X27540Y-34106D01*
X27517Y-34073D01*
Y-34069D01*
X27513Y-34064D01*
X27503Y-34036D01*
X27494Y-33999D01*
X27489Y-33944D01*
Y-33939D01*
Y-33930D01*
X27494Y-33911D01*
Y-33884D01*
X27499Y-33856D01*
X27508Y-33819D01*
X27517Y-33777D01*
X27531Y-33731D01*
X27999Y-32189D01*
Y-32185D01*
X28008Y-32166D01*
X28017Y-32138D01*
X28026Y-32101D01*
X28045Y-32060D01*
X28063Y-32018D01*
X28119Y-31935D01*
X28124Y-31930D01*
X28138Y-31916D01*
X28156Y-31902D01*
X28184Y-31884D01*
X28225Y-31870D01*
X28272Y-31856D01*
X28323Y-31851D01*
X28387Y-31856D01*
X28401D01*
X28420Y-31861D01*
X28438Y-31865D01*
X28480Y-31879D01*
X28503Y-31889D01*
X28517Y-31902D01*
X28522Y-31912D01*
X28540Y-31930D01*
X28554Y-31963D01*
X28559Y-32009D01*
Y-32014D01*
Y-32018D01*
Y-32032D01*
Y-32051D01*
X28554Y-32097D01*
X28540Y-32152D01*
Y-32157D01*
X28536Y-32166D01*
Y-32180D01*
X28531Y-32199D01*
X28517Y-32250D01*
X28503Y-32301D01*
X28415Y-32578D01*
X29165D01*
X29267Y-32259D01*
Y-32254D01*
X29272Y-32240D01*
X29276Y-32217D01*
X29286Y-32189D01*
X29290Y-32152D01*
X29299Y-32111D01*
X29304Y-32064D01*
X29309Y-32014D01*
Y-31902D01*
X29304Y-31847D01*
X29295Y-31791D01*
X29281Y-31736D01*
X29262Y-31680D01*
X29235Y-31629D01*
X29202Y-31578D01*
Y-31574D01*
X29193Y-31569D01*
X29179Y-31555D01*
X29165Y-31537D01*
X29142Y-31518D01*
X29114Y-31495D01*
X29082Y-31472D01*
X29045Y-31449D01*
X28999Y-31426D01*
X28952Y-31402D01*
X28897Y-31379D01*
X28832Y-31356D01*
X28767Y-31338D01*
X28688Y-31324D01*
X28610Y-31315D01*
X28522Y-31310D01*
D02*
G37*
G36*
X30327Y-32805D02*
X30285D01*
X30253Y-32810D01*
X30216D01*
X30170Y-32814D01*
X30123Y-32824D01*
X30068Y-32833D01*
X29952Y-32861D01*
X29827Y-32902D01*
X29767Y-32935D01*
X29707Y-32967D01*
X29647Y-33004D01*
X29591Y-33050D01*
X29586Y-33055D01*
X29577Y-33060D01*
X29563Y-33078D01*
X29545Y-33097D01*
X29522Y-33120D01*
X29494Y-33152D01*
X29466Y-33185D01*
X29434Y-33226D01*
X29369Y-33319D01*
X29304Y-33430D01*
X29248Y-33560D01*
X29202Y-33698D01*
Y-33703D01*
X29198Y-33708D01*
Y-33722D01*
X29193Y-33740D01*
X29184Y-33786D01*
X29174Y-33847D01*
X29165Y-33916D01*
Y-33995D01*
Y-34073D01*
X29179Y-34152D01*
X29184Y-34161D01*
X29188Y-34185D01*
X29202Y-34222D01*
X29221Y-34268D01*
X29248Y-34323D01*
X29286Y-34379D01*
X29327Y-34434D01*
X29383Y-34485D01*
X29387Y-34490D01*
X29406Y-34499D01*
X29429Y-34518D01*
X29466Y-34536D01*
X29503Y-34564D01*
X29549Y-34596D01*
X29656Y-34666D01*
X29665Y-34671D01*
X29684Y-34684D01*
X29711Y-34703D01*
X29748Y-34726D01*
X29795Y-34754D01*
X29846Y-34791D01*
X29952Y-34860D01*
X29957Y-34865D01*
X29971Y-34879D01*
X29985Y-34902D01*
X30008Y-34930D01*
X30022Y-34967D01*
X30040Y-35008D01*
X30045Y-35055D01*
Y-35106D01*
Y-35110D01*
X30040Y-35129D01*
X30035Y-35161D01*
X30026Y-35203D01*
X30012Y-35254D01*
X29998Y-35314D01*
X29975Y-35379D01*
X29952Y-35457D01*
X29947Y-35462D01*
X29943Y-35481D01*
X29929Y-35508D01*
X29910Y-35536D01*
X29892Y-35569D01*
X29864Y-35596D01*
X29836Y-35624D01*
X29804Y-35638D01*
X29799D01*
X29790Y-35643D01*
X29772Y-35647D01*
X29748Y-35652D01*
X29716Y-35657D01*
X29679Y-35661D01*
X29637Y-35666D01*
X29577D01*
X29549Y-35661D01*
X29512Y-35652D01*
X29498Y-35643D01*
X29485Y-35629D01*
X29480Y-35619D01*
X29475Y-35601D01*
X29466Y-35569D01*
X29461Y-35527D01*
Y-35522D01*
Y-35513D01*
X29466Y-35499D01*
Y-35481D01*
X29475Y-35430D01*
X29489Y-35365D01*
Y-35360D01*
X29494Y-35346D01*
X29498Y-35328D01*
X29508Y-35305D01*
X29512Y-35272D01*
X29526Y-35240D01*
X29549Y-35157D01*
X29610Y-34921D01*
X28818D01*
X28693Y-35388D01*
Y-35393D01*
X28688Y-35402D01*
X28684Y-35420D01*
Y-35444D01*
X28679Y-35471D01*
X28674Y-35504D01*
Y-35582D01*
X28684Y-35670D01*
X28693Y-35721D01*
X28707Y-35768D01*
X28725Y-35814D01*
X28749Y-35860D01*
X28781Y-35907D01*
X28818Y-35953D01*
X28823Y-35957D01*
X28827Y-35962D01*
X28841Y-35976D01*
X28860Y-35990D01*
X28883Y-36008D01*
X28915Y-36027D01*
X28948Y-36045D01*
X28989Y-36069D01*
X29040Y-36092D01*
X29091Y-36110D01*
X29151Y-36129D01*
X29221Y-36147D01*
X29290Y-36161D01*
X29369Y-36175D01*
X29457Y-36180D01*
X29549Y-36184D01*
X29591D01*
X29623Y-36180D01*
X29665D01*
X29707Y-36175D01*
X29758Y-36170D01*
X29813Y-36161D01*
X29929Y-36143D01*
X30054Y-36115D01*
X30179Y-36073D01*
X30299Y-36018D01*
X30304D01*
X30313Y-36008D01*
X30327Y-35999D01*
X30350Y-35985D01*
X30373Y-35962D01*
X30401Y-35939D01*
X30434Y-35911D01*
X30466Y-35874D01*
X30503Y-35837D01*
X30535Y-35791D01*
X30572Y-35740D01*
X30609Y-35684D01*
X30642Y-35624D01*
X30674Y-35555D01*
X30702Y-35481D01*
X30730Y-35402D01*
Y-35397D01*
X30734Y-35388D01*
X30739Y-35374D01*
X30744Y-35356D01*
X30753Y-35300D01*
X30767Y-35231D01*
X30781Y-35157D01*
X30790Y-35073D01*
X30795Y-34990D01*
Y-34911D01*
Y-34907D01*
Y-34902D01*
X30790Y-34874D01*
X30785Y-34837D01*
X30771Y-34786D01*
X30753Y-34731D01*
X30725Y-34671D01*
X30688Y-34606D01*
X30642Y-34546D01*
X30637Y-34541D01*
X30623Y-34527D01*
X30605Y-34509D01*
X30577Y-34481D01*
X30540Y-34448D01*
X30498Y-34416D01*
X30452Y-34384D01*
X30396Y-34347D01*
X30392Y-34342D01*
X30369Y-34328D01*
X30341Y-34309D01*
X30299Y-34286D01*
X30248Y-34254D01*
X30188Y-34217D01*
X30123Y-34175D01*
X30054Y-34129D01*
X30049Y-34124D01*
X30035Y-34115D01*
X30012Y-34101D01*
X29989Y-34078D01*
X29966Y-34055D01*
X29947Y-34027D01*
X29934Y-33995D01*
X29929Y-33962D01*
Y-33958D01*
Y-33944D01*
X29934Y-33925D01*
X29938Y-33898D01*
X29943Y-33860D01*
X29947Y-33819D01*
X29957Y-33768D01*
X29971Y-33712D01*
Y-33708D01*
X29975Y-33703D01*
X29980Y-33675D01*
X29994Y-33638D01*
X30012Y-33597D01*
X30054Y-33499D01*
X30077Y-33453D01*
X30105Y-33416D01*
X30109Y-33411D01*
X30119Y-33402D01*
X30137Y-33388D01*
X30160Y-33370D01*
X30188Y-33356D01*
X30221Y-33342D01*
X30262Y-33333D01*
X30309Y-33328D01*
X30313D01*
X30327Y-33333D01*
X30341D01*
X30364Y-33342D01*
X30406Y-33356D01*
X30424Y-33370D01*
X30438Y-33384D01*
X30443Y-33393D01*
X30452Y-33416D01*
X30457Y-33453D01*
X30452Y-33504D01*
Y-33509D01*
X30447Y-33518D01*
Y-33536D01*
X30438Y-33560D01*
X30429Y-33587D01*
X30420Y-33624D01*
X30406Y-33666D01*
X30387Y-33712D01*
Y-33717D01*
X30378Y-33735D01*
X30369Y-33759D01*
X30359Y-33796D01*
X30346Y-33837D01*
X30327Y-33888D01*
X30313Y-33944D01*
X30295Y-34004D01*
X31086D01*
Y-33999D01*
X31091Y-33995D01*
Y-33981D01*
X31095Y-33962D01*
X31109Y-33921D01*
X31123Y-33860D01*
X31142Y-33796D01*
X31156Y-33722D01*
X31183Y-33564D01*
Y-33560D01*
Y-33555D01*
X31188Y-33527D01*
Y-33490D01*
X31193Y-33439D01*
X31188Y-33384D01*
X31183Y-33319D01*
X31170Y-33254D01*
X31146Y-33194D01*
X31142Y-33185D01*
X31133Y-33166D01*
X31114Y-33138D01*
X31091Y-33101D01*
X31054Y-33060D01*
X31012Y-33013D01*
X30952Y-32972D01*
X30887Y-32930D01*
X30878Y-32925D01*
X30850Y-32912D01*
X30808Y-32898D01*
X30748Y-32875D01*
X30665Y-32856D01*
X30572Y-32833D01*
X30457Y-32819D01*
X30327Y-32805D01*
D02*
G37*
G36*
X27128Y-31333D02*
X26309D01*
X25305Y-34671D01*
X26138D01*
X27128Y-31333D01*
D02*
G37*
G36*
X36243Y-32865D02*
X35470D01*
X34706Y-35245D01*
X34701Y-35254D01*
X34697Y-35277D01*
X34683Y-35309D01*
X34664Y-35351D01*
Y-35356D01*
X34660Y-35360D01*
X34646Y-35383D01*
X34627Y-35420D01*
X34600Y-35457D01*
X34595Y-35467D01*
X34572Y-35490D01*
X34544Y-35518D01*
X34502Y-35550D01*
X34498D01*
X34493Y-35555D01*
X34479Y-35564D01*
X34461Y-35573D01*
X34414Y-35587D01*
X34354Y-35596D01*
X34331D01*
X34303Y-35592D01*
X34271Y-35582D01*
X34239Y-35569D01*
X34206Y-35545D01*
X34178Y-35518D01*
X34160Y-35481D01*
Y-35476D01*
X34155Y-35462D01*
X34151Y-35439D01*
Y-35411D01*
X34146Y-35379D01*
X34151Y-35342D01*
X34155Y-35300D01*
X34164Y-35263D01*
X34896Y-32865D01*
X34104D01*
X33424Y-35152D01*
Y-35157D01*
X33419Y-35175D01*
X33415Y-35198D01*
X33405Y-35235D01*
X33401Y-35277D01*
X33391Y-35323D01*
X33387Y-35379D01*
X33382Y-35434D01*
Y-35555D01*
X33387Y-35619D01*
X33396Y-35684D01*
X33410Y-35744D01*
X33428Y-35805D01*
X33456Y-35860D01*
X33489Y-35911D01*
X33493Y-35916D01*
X33498Y-35920D01*
X33512Y-35934D01*
X33530Y-35953D01*
X33549Y-35971D01*
X33577Y-35994D01*
X33609Y-36018D01*
X33651Y-36041D01*
X33692Y-36064D01*
X33743Y-36087D01*
X33799Y-36110D01*
X33859Y-36133D01*
X33928Y-36152D01*
X33998Y-36166D01*
X34081Y-36175D01*
X34164Y-36180D01*
X34248D01*
X34285Y-36175D01*
X34364Y-36170D01*
X34451Y-36166D01*
X34549Y-36152D01*
X34646Y-36133D01*
X34738Y-36106D01*
X34743D01*
X34748Y-36101D01*
X34762Y-36096D01*
X34780Y-36092D01*
X34822Y-36073D01*
X34877Y-36050D01*
X34942Y-36018D01*
X35007Y-35981D01*
X35076Y-35934D01*
X35137Y-35883D01*
X35146Y-35879D01*
X35164Y-35856D01*
X35192Y-35828D01*
X35229Y-35786D01*
X35266Y-35740D01*
X35308Y-35684D01*
X35350Y-35624D01*
X35387Y-35555D01*
X35391Y-35545D01*
X35405Y-35522D01*
X35419Y-35485D01*
X35442Y-35439D01*
X35470Y-35379D01*
X35493Y-35314D01*
X35521Y-35245D01*
X35544Y-35170D01*
X36243Y-32865D01*
D02*
G37*
G36*
X39340D02*
X38423D01*
X37433Y-36119D01*
X38182D01*
X38627Y-34712D01*
X38905D01*
X38932Y-34717D01*
X38983Y-34731D01*
X39006Y-34745D01*
X39025Y-34759D01*
X39030Y-34768D01*
X39034Y-34786D01*
X39039Y-34809D01*
Y-34842D01*
Y-34883D01*
X39025Y-34944D01*
X39006Y-35013D01*
Y-35018D01*
X38997Y-35036D01*
X38993Y-35069D01*
X38979Y-35106D01*
X38965Y-35147D01*
X38951Y-35198D01*
X38918Y-35314D01*
Y-35319D01*
X38909Y-35342D01*
X38905Y-35374D01*
X38891Y-35416D01*
X38877Y-35471D01*
X38863Y-35532D01*
X38844Y-35601D01*
X38826Y-35680D01*
Y-35684D01*
X38821Y-35703D01*
X38817Y-35731D01*
X38807Y-35768D01*
Y-35772D01*
Y-35777D01*
X38803Y-35805D01*
X38798Y-35842D01*
X38789Y-35893D01*
Y-35897D01*
Y-35902D01*
Y-35934D01*
X38784Y-35976D01*
Y-36022D01*
Y-36027D01*
Y-36031D01*
Y-36055D01*
X38789Y-36087D01*
X38793Y-36119D01*
X39594D01*
Y-36036D01*
Y-36031D01*
Y-36013D01*
Y-35985D01*
X39590Y-35953D01*
Y-35948D01*
Y-35944D01*
Y-35925D01*
Y-35897D01*
X39594Y-35869D01*
Y-35865D01*
Y-35856D01*
X39599Y-35842D01*
Y-35819D01*
X39604Y-35791D01*
X39608Y-35758D01*
X39613Y-35721D01*
X39617Y-35680D01*
Y-35675D01*
X39622Y-35661D01*
X39627Y-35638D01*
X39631Y-35606D01*
X39641Y-35569D01*
X39650Y-35527D01*
X39668Y-35439D01*
Y-35434D01*
X39673Y-35416D01*
X39682Y-35393D01*
X39687Y-35360D01*
X39701Y-35319D01*
X39710Y-35277D01*
X39733Y-35184D01*
Y-35180D01*
X39738Y-35161D01*
X39742Y-35138D01*
X39752Y-35106D01*
X39770Y-35036D01*
X39784Y-34962D01*
Y-34953D01*
X39789Y-34930D01*
Y-34897D01*
Y-34856D01*
X39784Y-34805D01*
X39775Y-34754D01*
X39756Y-34703D01*
X39729Y-34657D01*
X39724Y-34652D01*
X39715Y-34638D01*
X39696Y-34615D01*
X39668Y-34587D01*
X39631Y-34559D01*
X39594Y-34532D01*
X39543Y-34504D01*
X39488Y-34485D01*
X39497D01*
X39520Y-34481D01*
X39562Y-34472D01*
X39608Y-34462D01*
X39659Y-34444D01*
X39715Y-34425D01*
X39766Y-34402D01*
X39812Y-34374D01*
X39817Y-34370D01*
X39830Y-34360D01*
X39854Y-34342D01*
X39881Y-34319D01*
X39909Y-34291D01*
X39941Y-34259D01*
X39974Y-34222D01*
X40002Y-34185D01*
X40006Y-34180D01*
X40011Y-34166D01*
X40025Y-34143D01*
X40039Y-34115D01*
X40057Y-34083D01*
X40076Y-34046D01*
X40104Y-33967D01*
Y-33962D01*
X40108Y-33948D01*
X40117Y-33925D01*
X40127Y-33902D01*
X40141Y-33837D01*
X40159Y-33773D01*
Y-33768D01*
X40164Y-33754D01*
X40168Y-33731D01*
X40173Y-33698D01*
Y-33661D01*
X40178Y-33615D01*
X40182Y-33569D01*
Y-33513D01*
X40173Y-33407D01*
X40164Y-33347D01*
X40150Y-33291D01*
X40131Y-33236D01*
X40108Y-33185D01*
X40080Y-33138D01*
X40043Y-33092D01*
X40039Y-33087D01*
X40034Y-33083D01*
X40020Y-33069D01*
X40002Y-33055D01*
X39979Y-33041D01*
X39951Y-33018D01*
X39914Y-32999D01*
X39877Y-32976D01*
X39830Y-32958D01*
X39779Y-32935D01*
X39719Y-32916D01*
X39659Y-32902D01*
X39585Y-32884D01*
X39511Y-32875D01*
X39428Y-32870D01*
X39340Y-32865D01*
D02*
G37*
%LPD*%
G36*
X39284Y-33259D02*
X39340Y-33268D01*
X39395Y-33286D01*
X39400D01*
X39405Y-33291D01*
X39428Y-33314D01*
X39460Y-33347D01*
X39488Y-33388D01*
Y-33393D01*
X39492Y-33402D01*
X39502Y-33416D01*
X39506Y-33439D01*
X39511Y-33467D01*
Y-33499D01*
Y-33541D01*
X39502Y-33587D01*
Y-33592D01*
Y-33597D01*
X39492Y-33624D01*
X39483Y-33671D01*
X39469Y-33722D01*
X39451Y-33786D01*
X39432Y-33851D01*
X39414Y-33916D01*
X39391Y-33981D01*
X39386Y-33990D01*
X39381Y-34009D01*
X39367Y-34036D01*
X39344Y-34073D01*
X39321Y-34110D01*
X39289Y-34152D01*
X39252Y-34194D01*
X39210Y-34226D01*
X39205D01*
X39192Y-34235D01*
X39173Y-34245D01*
X39145Y-34254D01*
X39090Y-34272D01*
X39062Y-34282D01*
X39039Y-34286D01*
X38997D01*
X38974Y-34291D01*
X38682D01*
X39020Y-33254D01*
X39261D01*
X39284Y-33259D01*
D02*
G37*
%LPC*%
G36*
X39238Y-33310D02*
X39057D01*
X38756Y-34240D01*
X38858D01*
X38905Y-34245D01*
X38969D01*
X39002Y-34240D01*
X39011D01*
X39030Y-34235D01*
X39053Y-34226D01*
X39080Y-34222D01*
X39090D01*
X39108Y-34212D01*
X39141Y-34198D01*
X39182Y-34175D01*
X39187Y-34171D01*
X39201Y-34161D01*
X39219Y-34143D01*
X39243Y-34120D01*
X39270Y-34087D01*
X39298Y-34050D01*
X39321Y-34004D01*
X39344Y-33948D01*
X39349Y-33939D01*
X39354Y-33921D01*
X39363Y-33888D01*
X39377Y-33842D01*
X39391Y-33791D01*
X39409Y-33726D01*
X39432Y-33652D01*
X39451Y-33573D01*
Y-33569D01*
X39455Y-33555D01*
Y-33536D01*
Y-33513D01*
Y-33462D01*
X39451Y-33439D01*
X39442Y-33416D01*
Y-33411D01*
X39437Y-33407D01*
X39423Y-33388D01*
X39400Y-33361D01*
X39367Y-33337D01*
X39363D01*
X39358Y-33333D01*
X39330Y-33324D01*
X39289Y-33314D01*
X39238Y-33310D01*
D02*
G37*
G36*
X38150Y-32865D02*
X36544D01*
X35539Y-36119D01*
X37132D01*
X37335Y-35508D01*
X36498D01*
X36729Y-34782D01*
X37548D01*
X37738Y-34175D01*
X36919D01*
X37132Y-33476D01*
X37965D01*
X38150Y-32865D01*
D02*
G37*
G36*
X33290D02*
X32285D01*
X30670Y-36119D01*
X31396D01*
X31762Y-35402D01*
X32429D01*
X32415Y-36119D01*
X33109D01*
X33290Y-32865D01*
D02*
G37*
%LPD*%
G36*
X32489Y-34883D02*
X31975D01*
X32489Y-33773D01*
X32544D01*
X32489Y-34883D01*
D02*
G37*
%LPC*%
G36*
X32484Y-33902D02*
X32484Y-33907D01*
X32480Y-33911D01*
X32470Y-33925D01*
X32466Y-33944D01*
X32443Y-33995D01*
X32410Y-34055D01*
X32378Y-34124D01*
X32341Y-34203D01*
X32267Y-34370D01*
X32262Y-34379D01*
X32253Y-34407D01*
X32230Y-34448D01*
X32206Y-34509D01*
X32174Y-34578D01*
X32142Y-34657D01*
X32100Y-34740D01*
X32058Y-34833D01*
X32433D01*
X32484Y-33907D01*
X32484Y-33907D01*
Y-33902D01*
D02*
G37*
%LPD*%
D10*
X2677Y4096D02*
G03*
X2677Y4096I-20J0D01*
G01*
X11354Y-8079D02*
Y-8479D01*
X11621D01*
X12021Y-8079D02*
X11754D01*
Y-8479D01*
X12021D01*
X11754Y-8279D02*
X11887D01*
X12154Y-8079D02*
Y-8479D01*
X12354D01*
X12420Y-8412D01*
Y-8146D01*
X12354Y-8079D01*
X12154D01*
X12954D02*
X13220D01*
X13087D01*
Y-8479D01*
X13420D02*
X13553D01*
X13620Y-8412D01*
Y-8279D01*
X13553Y-8212D01*
X13420D01*
X13353Y-8279D01*
Y-8412D01*
X13420Y-8479D01*
X13753Y-8612D02*
Y-8212D01*
X13953D01*
X14020Y-8279D01*
Y-8412D01*
X13953Y-8479D01*
X13753D01*
X14753Y-8079D02*
X14620D01*
X14553Y-8146D01*
Y-8412D01*
X14620Y-8479D01*
X14753D01*
X14820Y-8412D01*
Y-8146D01*
X14753Y-8079D01*
X14953Y-8212D02*
X15086Y-8479D01*
X15220Y-8212D01*
X15553Y-8479D02*
X15419D01*
X15353Y-8412D01*
Y-8279D01*
X15419Y-8212D01*
X15553D01*
X15619Y-8279D01*
Y-8345D01*
X15353D01*
X15753Y-8212D02*
Y-8479D01*
Y-8345D01*
X15819Y-8279D01*
X15886Y-8212D01*
X15953D01*
X16153Y-8479D02*
X16286D01*
X16219D01*
Y-8079D01*
X16153D01*
X16552Y-8212D02*
X16686D01*
X16752Y-8279D01*
Y-8479D01*
X16552D01*
X16486Y-8412D01*
X16552Y-8345D01*
X16752D01*
X16886Y-8212D02*
Y-8412D01*
X16952Y-8479D01*
X17152D01*
Y-8545D01*
X17086Y-8612D01*
X17019D01*
X17152Y-8479D02*
Y-8212D01*
X11354Y-16380D02*
Y-16780D01*
X11554D01*
X11621Y-16713D01*
Y-16646D01*
X11554Y-16580D01*
X11354D01*
X11554D01*
X11621Y-16513D01*
Y-16446D01*
X11554Y-16380D01*
X11354D01*
X11821Y-16780D02*
X11954D01*
X12021Y-16713D01*
Y-16580D01*
X11954Y-16513D01*
X11821D01*
X11754Y-16580D01*
Y-16713D01*
X11821Y-16780D01*
X12220Y-16513D02*
X12354D01*
X12420Y-16580D01*
Y-16780D01*
X12220D01*
X12154Y-16713D01*
X12220Y-16646D01*
X12420D01*
X12554Y-16513D02*
Y-16780D01*
Y-16646D01*
X12620Y-16580D01*
X12687Y-16513D01*
X12754D01*
X13220Y-16380D02*
Y-16780D01*
X13020D01*
X12954Y-16713D01*
Y-16580D01*
X13020Y-16513D01*
X13220D01*
X13953Y-16380D02*
X13820D01*
X13753Y-16446D01*
Y-16713D01*
X13820Y-16780D01*
X13953D01*
X14020Y-16713D01*
Y-16446D01*
X13953Y-16380D01*
X14153Y-16513D02*
Y-16713D01*
X14220Y-16780D01*
X14420D01*
Y-16513D01*
X14620Y-16446D02*
Y-16513D01*
X14553D01*
X14686D01*
X14620D01*
Y-16713D01*
X14686Y-16780D01*
X14886D02*
X15020D01*
X14953D01*
Y-16380D01*
X14886D01*
X15220Y-16780D02*
X15353D01*
X15286D01*
Y-16513D01*
X15220D01*
X15553Y-16780D02*
Y-16513D01*
X15753D01*
X15819Y-16580D01*
Y-16780D01*
X16153D02*
X16019D01*
X15953Y-16713D01*
Y-16580D01*
X16019Y-16513D01*
X16153D01*
X16219Y-16580D01*
Y-16646D01*
X15953D01*
D11*
X3804Y2750D02*
G03*
X3804Y2750I-39J0D01*
G01*
X6351Y979D02*
G03*
X6351Y979I-49J0D01*
G01*
D12*
X4861Y2105D02*
X4897Y2468D01*
X6664Y3705D02*
X6722D01*
X6287Y3238D02*
X6871D01*
D13*
X2661Y3740D02*
X2744Y3823D01*
X2661Y3740D02*
X2744Y3656D01*
X3412Y4491D02*
X3496Y4575D01*
X3580Y4491D01*
X3412Y2988D02*
X3496Y2904D01*
X3580Y2988D01*
X4248Y3656D02*
X4331Y3740D01*
X4248Y3823D02*
X4331Y3740D01*
X4395Y4405D02*
Y4605D01*
X1854Y3080D02*
X1996Y3221D01*
X1285Y3139D02*
X1485D01*
X3168Y4751D02*
Y4951D01*
X2535Y4544D02*
X2676Y4685D01*
X4749Y4405D02*
Y4605D01*
X5748Y2034D02*
X5948D01*
X4848Y4751D02*
Y4951D01*
X5348Y2031D02*
X5548D01*
X5907Y3420D02*
X6049Y3561D01*
X6356Y3573D02*
X6498Y3715D01*
X5098Y2569D02*
Y2769D01*
X4587Y3700D02*
X4729Y3841D01*
X3991Y3055D02*
Y2888D01*
X4024Y2855D01*
X4091D01*
X4124Y2888D01*
Y3055D01*
X4191Y2855D02*
X4257D01*
X4224D01*
Y3055D01*
X4191Y3021D01*
X444Y3226D02*
X377D01*
X411D01*
Y3060D01*
X377Y3026D01*
X344D01*
X311Y3060D01*
X644Y3026D02*
X511D01*
X644Y3160D01*
Y3193D01*
X610Y3226D01*
X544D01*
X511Y3193D01*
X4145Y5084D02*
Y5284D01*
X4245D01*
X4278Y5251D01*
Y5184D01*
X4245Y5151D01*
X4145D01*
X4211D02*
X4278Y5084D01*
X4345D02*
X4411D01*
X4378D01*
Y5284D01*
X4345Y5251D01*
X4511D02*
X4545Y5284D01*
X4611D01*
X4645Y5251D01*
Y5218D01*
X4611Y5184D01*
X4578D01*
X4611D01*
X4645Y5151D01*
Y5118D01*
X4611Y5084D01*
X4545D01*
X4511Y5118D01*
X2860Y9264D02*
Y9064D01*
X2960D01*
X2993Y9097D01*
Y9230D01*
X2960Y9264D01*
X2860D01*
X3060Y9064D02*
X3126D01*
X3093D01*
Y9264D01*
X3060Y9230D01*
X4298Y3231D02*
Y3431D01*
X4398D01*
X4431Y3397D01*
Y3331D01*
X4398Y3297D01*
X4298D01*
X4365D02*
X4431Y3231D01*
X4498D02*
X4565D01*
X4531D01*
Y3431D01*
X4498Y3397D01*
X4798Y3231D02*
X4664D01*
X4798Y3364D01*
Y3397D01*
X4764Y3431D01*
X4698D01*
X4664Y3397D01*
X4456Y1758D02*
Y1958D01*
X4556D01*
X4589Y1925D01*
Y1858D01*
X4556Y1825D01*
X4456D01*
X4523D02*
X4589Y1758D01*
X4656D02*
X4723D01*
X4689D01*
Y1958D01*
X4656Y1925D01*
X4823Y1758D02*
X4889D01*
X4856D01*
Y1958D01*
X4823Y1925D01*
X5772Y4102D02*
X5890Y3984D01*
X5937Y3984D01*
X5984Y4031D01*
X5984Y4078D01*
X5866Y4196D01*
X5937Y4220D02*
X5937Y4267D01*
X5984Y4314D01*
X6031Y4314D01*
X6055Y4290D01*
X6055Y4243D01*
X6031Y4220D01*
X6055Y4243D01*
X6102Y4243D01*
X6125Y4220D01*
X6125Y4172D01*
X6078Y4125D01*
X6031Y4125D01*
X5845Y4817D02*
Y4864D01*
X5798Y4911D01*
X5751Y4911D01*
X5657Y4817D01*
Y4770D01*
X5704Y4723D01*
X5751Y4723D01*
X6010Y4699D02*
X5916Y4794D01*
X5845Y4723D01*
X5916Y4699D01*
X5939Y4676D01*
Y4629D01*
X5892Y4582D01*
X5845D01*
X5798Y4629D01*
Y4676D01*
X2042Y3524D02*
X1947Y3618D01*
X1900Y3617D01*
X1853Y3570D01*
X1853Y3523D01*
X1948Y3429D01*
X1995Y3429D01*
X2042Y3476D01*
X1971Y3500D02*
X2066Y3500D01*
X2042Y3476D02*
X2042Y3524D01*
X2113Y3547D02*
X2160Y3595D01*
X2136Y3571D01*
X1994Y3712D01*
X1994Y3665D01*
X1478Y4560D02*
X1596Y4442D01*
X1643D01*
X1690Y4490D01*
X1690Y4537D01*
X1572Y4654D01*
X1855D02*
X1761Y4560D01*
Y4749D01*
X1737Y4772D01*
X1690D01*
X1643Y4725D01*
X1643Y4678D01*
X6808Y697D02*
X6775Y731D01*
X6708D01*
X6675Y697D01*
Y664D01*
X6708Y631D01*
X6775D01*
X6808Y597D01*
Y564D01*
X6775Y531D01*
X6708D01*
X6675Y564D01*
X6875Y731D02*
Y531D01*
X6941Y597D01*
X7008Y531D01*
Y731D01*
X7074Y531D02*
X7141D01*
X7108D01*
Y731D01*
X7074Y697D01*
X6872Y3572D02*
X6866Y3772D01*
X6966Y3775D01*
X7001Y3742D01*
X7003Y3676D01*
X6970Y3641D01*
X6870Y3638D01*
X6937Y3640D02*
X7005Y3576D01*
X7072Y3578D02*
X7139Y3579D01*
X7105Y3578D01*
X7100Y3778D01*
X7067Y3744D01*
X7234Y3749D02*
X7266Y3783D01*
X7333Y3785D01*
X7367Y3753D01*
X7371Y3619D01*
X7338Y3585D01*
X7272Y3583D01*
X7238Y3616D01*
X7234Y3749D01*
X7028Y3223D02*
X7027Y3423D01*
X7127Y3424D01*
X7160Y3391D01*
X7161Y3324D01*
X7128Y3291D01*
X7028Y3290D01*
X7095Y3290D02*
X7162Y3224D01*
X7228Y3258D02*
X7262Y3225D01*
X7328Y3226D01*
X7361Y3259D01*
X7360Y3392D01*
X7327Y3425D01*
X7260Y3425D01*
X7227Y3391D01*
X7227Y3358D01*
X7261Y3325D01*
X7361Y3326D01*
X5270Y1422D02*
Y1622D01*
X5370D01*
X5403Y1589D01*
Y1522D01*
X5370Y1489D01*
X5270D01*
X5337D02*
X5403Y1422D01*
X5470Y1589D02*
X5503Y1622D01*
X5570D01*
X5603Y1589D01*
Y1556D01*
X5570Y1522D01*
X5603Y1489D01*
Y1456D01*
X5570Y1422D01*
X5503D01*
X5470Y1456D01*
Y1489D01*
X5503Y1522D01*
X5470Y1556D01*
Y1589D01*
X5503Y1522D02*
X5570D01*
X5025Y5097D02*
Y5297D01*
X5125D01*
X5158Y5264D01*
Y5197D01*
X5125Y5164D01*
X5025D01*
X5092D02*
X5158Y5097D01*
X5225Y5297D02*
X5358D01*
Y5264D01*
X5225Y5131D01*
Y5097D01*
X5756Y1439D02*
Y1639D01*
X5856D01*
X5889Y1606D01*
Y1539D01*
X5856Y1506D01*
X5756D01*
X5822D02*
X5889Y1439D01*
X6089Y1639D02*
X6022Y1606D01*
X5956Y1539D01*
Y1473D01*
X5989Y1439D01*
X6056D01*
X6089Y1473D01*
Y1506D01*
X6056Y1539D01*
X5956D01*
X4551Y4051D02*
Y4251D01*
X4650D01*
X4684Y4218D01*
Y4151D01*
X4650Y4118D01*
X4551D01*
X4617D02*
X4684Y4051D01*
X4884Y4251D02*
X4750D01*
Y4151D01*
X4817Y4184D01*
X4850D01*
X4884Y4151D01*
Y4084D01*
X4850Y4051D01*
X4784D01*
X4750Y4084D01*
X2172Y4851D02*
X2030Y4993D01*
X2101Y5063D01*
X2148D01*
X2195Y5016D01*
X2195Y4969D01*
X2125Y4898D01*
X2172Y4946D02*
X2266D01*
X2384Y5063D02*
X2243Y5205D01*
X2243Y5063D01*
X2337Y5158D01*
X2873Y5113D02*
Y5313D01*
X2973D01*
X3007Y5279D01*
Y5213D01*
X2973Y5179D01*
X2873D01*
X2940D02*
X3007Y5113D01*
X3073Y5279D02*
X3107Y5313D01*
X3173D01*
X3207Y5279D01*
Y5246D01*
X3173Y5213D01*
X3140D01*
X3173D01*
X3207Y5179D01*
Y5146D01*
X3173Y5113D01*
X3107D01*
X3073Y5146D01*
X1133Y3069D02*
X934Y3071D01*
X934Y3171D01*
X968Y3204D01*
X1034Y3203D01*
X1068Y3170D01*
X1067Y3070D01*
X1067Y3136D02*
X1134Y3203D01*
X1136Y3403D02*
X1135Y3269D01*
X1002Y3403D01*
X969Y3404D01*
X936Y3371D01*
X935Y3304D01*
X968Y3270D01*
X1608Y2731D02*
Y2931D01*
X1708D01*
X1741Y2897D01*
Y2831D01*
X1708Y2797D01*
X1608D01*
X1674D02*
X1741Y2731D01*
X1808D02*
X1874D01*
X1841D01*
Y2931D01*
X1808Y2897D01*
X5741Y2485D02*
Y2619D01*
X5708Y2652D01*
X5641D01*
X5608Y2619D01*
Y2485D01*
X5641Y2452D01*
X5708D01*
X5674Y2519D02*
X5741Y2452D01*
X5708D02*
X5741Y2485D01*
X5908Y2452D02*
Y2652D01*
X5808Y2552D01*
X5941D01*
X3060Y2811D02*
X3056Y2944D01*
X3022Y2977D01*
X2955Y2974D01*
X2923Y2940D01*
X2927Y2807D01*
X2962Y2775D01*
X3028Y2777D01*
X2993Y2842D02*
X3061Y2778D01*
X3028Y2777D02*
X3060Y2811D01*
X3123Y2946D02*
X3155Y2981D01*
X3222Y2983D01*
X3256Y2951D01*
X3257Y2917D01*
X3225Y2883D01*
X3191Y2882D01*
X3225Y2883D01*
X3259Y2851D01*
X3260Y2817D01*
X3228Y2783D01*
X3161Y2781D01*
X3127Y2813D01*
X5105Y3384D02*
Y3517D01*
X5071Y3551D01*
X5005D01*
X4971Y3517D01*
Y3384D01*
X5005Y3351D01*
X5071D01*
X5038Y3417D02*
X5105Y3351D01*
X5071D02*
X5105Y3384D01*
X5304Y3351D02*
X5171D01*
X5304Y3484D01*
Y3517D01*
X5271Y3551D01*
X5204D01*
X5171Y3517D01*
X5548Y553D02*
X5481D01*
X5515D01*
Y387D01*
X5481Y353D01*
X5448D01*
X5415Y387D01*
X5615Y353D02*
X5681D01*
X5648D01*
Y553D01*
X5615Y520D01*
X1097Y3858D02*
X1096Y3905D01*
X1047Y3951D01*
X1000Y3949D01*
X909Y3852D01*
X910Y3805D01*
X959Y3759D01*
X1006Y3761D01*
X1105Y3622D02*
X1242Y3768D01*
X1100Y3764D01*
X1197Y3672D01*
X4867Y1571D02*
X4834Y1605D01*
X4767D01*
X4734Y1571D01*
Y1438D01*
X4767Y1405D01*
X4834D01*
X4867Y1438D01*
X4934Y1571D02*
X4967Y1605D01*
X5034D01*
X5067Y1571D01*
Y1538D01*
X5034Y1505D01*
X5000D01*
X5034D01*
X5067Y1471D01*
Y1438D01*
X5034Y1405D01*
X4967D01*
X4934Y1438D01*
X3725Y5262D02*
X3692Y5296D01*
X3625D01*
X3592Y5262D01*
Y5129D01*
X3625Y5096D01*
X3692D01*
X3725Y5129D01*
X3925Y5096D02*
X3792D01*
X3925Y5229D01*
Y5262D01*
X3892Y5296D01*
X3825D01*
X3792Y5262D01*
X4595Y2462D02*
X4561Y2495D01*
X4495D01*
X4461Y2462D01*
Y2329D01*
X4495Y2295D01*
X4561D01*
X4595Y2329D01*
X4661Y2295D02*
X4728D01*
X4694D01*
Y2495D01*
X4661Y2462D01*
D14*
X3253Y9596D02*
X3303Y9646D01*
X3106Y9449D02*
X3155Y9498D01*
X3253Y9596D01*
D15*
X6291Y1186D02*
Y1343D01*
Y2898D02*
Y3056D01*
X6449D01*
X6291Y1186D02*
X6449D01*
X4028Y218D02*
Y1242D01*
X1193Y218D02*
Y1242D01*
X1182Y1769D02*
Y2332D01*
Y1487D02*
Y1769D01*
Y2332D02*
Y2614D01*
X2290Y1484D02*
Y2610D01*
D16*
X5541Y4444D02*
X5654Y4557D01*
X4444Y2883D02*
X4604D01*
X3937Y4776D02*
Y4936D01*
X4978Y2062D02*
X5138D01*
X1538Y3802D02*
X1651Y3915D01*
D17*
X0Y3830D02*
G03*
X1114Y4257I100J1406D01*
G01*
X6486D02*
G03*
X7600Y3830I1014J979D01*
G01*
X3450Y8300D02*
G03*
X3300Y8450I-150J0D01*
G01*
X4150Y5550D02*
G03*
X4300Y5400I150J0D01*
G01*
Y8450D02*
G03*
X4150Y8300I0J-150D01*
G01*
X3300Y5400D02*
G03*
X3450Y5550I0J150D01*
G01*
X0Y0D02*
Y3830D01*
X7600Y0D02*
Y1725D01*
Y2515D01*
Y3830D01*
X0Y0D02*
X7600D01*
X2650Y8450D02*
Y9830D01*
X4300Y5400D02*
X5382D01*
X2650Y8450D02*
X3300D01*
X2650Y9830D02*
X4950D01*
Y8450D02*
Y9830D01*
X3450Y5550D02*
Y8300D01*
X4300Y8450D02*
X4950D01*
X5382Y5400D02*
X6486Y4257D01*
X1114D02*
X2218Y5400D01*
X4150Y5550D02*
Y8300D01*
X2218Y5400D02*
X3300D01*
M02*
